G75*
G70*
%OFA0B0*%
%FSLAX24Y24*%
%IPPOS*%
%LPD*%
%AMOC8*
5,1,8,0,0,1.08239X$1,22.5*
%
%ADD10C,0.1340*%
%ADD11R,0.0680X0.0680*%
%ADD12C,0.0680*%
%ADD13OC8,0.0670*%
%ADD14C,0.0670*%
%ADD15R,0.0670X0.0670*%
%ADD16R,0.0946X0.0316*%
%ADD17OC8,0.0820*%
%ADD18R,0.0710X0.0867*%
%ADD19R,0.0710X0.0789*%
%ADD20R,0.0789X0.0710*%
%ADD21R,0.0867X0.0671*%
%ADD22R,0.0820X0.0820*%
%ADD23C,0.0820*%
%ADD24OC8,0.0720*%
%ADD25R,0.0710X0.0790*%
%ADD26R,0.0790X0.0710*%
%ADD27R,0.0671X0.0671*%
%ADD28C,0.0790*%
%ADD29C,0.0720*%
%ADD30R,0.0436X0.0436*%
D10*
X021180Y016380D03*
X001180Y022380D03*
D11*
X010680Y021380D03*
X011080Y022380D03*
X012680Y023380D03*
X019680Y022380D03*
X019680Y021380D03*
X026680Y022380D03*
X027680Y013380D03*
X030680Y012380D03*
X039680Y008880D03*
X047680Y008880D03*
X055180Y008880D03*
X023680Y003380D03*
X014680Y003380D03*
X014680Y002380D03*
X012680Y003380D03*
D12*
X011680Y003380D03*
X010680Y003380D03*
X009680Y003380D03*
X008680Y003380D03*
X007680Y003380D03*
X015680Y003380D03*
X016680Y003380D03*
X017680Y003380D03*
X018680Y003380D03*
X019680Y003380D03*
X020680Y003380D03*
X021680Y003380D03*
X021680Y002380D03*
X020680Y002380D03*
X019680Y002380D03*
X018680Y002380D03*
X017680Y002380D03*
X016680Y002380D03*
X015680Y002380D03*
X024680Y003380D03*
X025680Y003380D03*
X026680Y003380D03*
X030680Y005380D03*
X030680Y006380D03*
X030680Y007380D03*
X030680Y008380D03*
X030680Y009380D03*
X030680Y010380D03*
X030680Y011380D03*
X027680Y014380D03*
X027680Y015380D03*
X027680Y016380D03*
X027680Y017380D03*
X027680Y018380D03*
X027680Y019380D03*
X027680Y020380D03*
X025680Y022380D03*
X024680Y022380D03*
X023680Y022380D03*
X022680Y022380D03*
X021680Y022380D03*
X019680Y023380D03*
X018680Y023380D03*
X017680Y023380D03*
X016680Y023380D03*
X015680Y023380D03*
X014680Y023380D03*
X013680Y023380D03*
X013680Y022380D03*
X012680Y022380D03*
X012680Y021380D03*
X013680Y021380D03*
X014680Y021380D03*
X015680Y021380D03*
X016680Y021380D03*
X017680Y021380D03*
X018680Y021380D03*
X018680Y022380D03*
X017680Y022380D03*
X016680Y022380D03*
X015680Y022380D03*
X014680Y022380D03*
X010080Y022380D03*
X009080Y022380D03*
X008080Y022380D03*
X007080Y022380D03*
X006080Y022380D03*
X005080Y022380D03*
X004080Y022380D03*
X003680Y021380D03*
X004680Y021380D03*
X005680Y021380D03*
X006680Y021380D03*
X007680Y021380D03*
X008680Y021380D03*
X009680Y021380D03*
X039680Y007880D03*
X039680Y006880D03*
X039680Y005880D03*
X047680Y005880D03*
X047680Y006880D03*
X047680Y007880D03*
X055180Y007880D03*
X055180Y006880D03*
X055180Y005880D03*
D13*
X019680Y014380D03*
X017680Y014380D03*
D14*
X018680Y014380D03*
X020680Y014380D03*
X020680Y013380D03*
X019680Y013380D03*
X018680Y013380D03*
X017680Y013380D03*
X017680Y012380D03*
X018680Y012380D03*
X019680Y012380D03*
X020680Y012380D03*
X022680Y013380D03*
X023680Y013380D03*
X025680Y013380D03*
X025680Y014380D03*
X025680Y015380D03*
X023680Y015380D03*
X022680Y015380D03*
X022680Y014380D03*
X023680Y014380D03*
X023680Y016380D03*
X022680Y016380D03*
X022680Y017380D03*
X023680Y017380D03*
X025680Y017380D03*
X025680Y016380D03*
X025680Y018380D03*
X025680Y019380D03*
X023680Y019380D03*
X022680Y019380D03*
X022680Y018380D03*
X023680Y018380D03*
X023680Y011380D03*
X022680Y011380D03*
X022680Y010380D03*
X023680Y010380D03*
X023680Y009380D03*
X022680Y009380D03*
X022680Y008380D03*
X023680Y008380D03*
X023680Y007380D03*
X022680Y007380D03*
X022680Y006380D03*
X023680Y006380D03*
X023680Y005380D03*
X022680Y005380D03*
X025680Y005380D03*
X026680Y005380D03*
X026680Y006380D03*
X025680Y006380D03*
X025680Y007380D03*
X026680Y007380D03*
X026680Y008380D03*
X025680Y008380D03*
X025680Y009380D03*
X026680Y009380D03*
X026680Y010380D03*
X025680Y010380D03*
X025680Y011380D03*
X026680Y011380D03*
D15*
X026680Y012380D03*
X025680Y012380D03*
X023680Y012380D03*
X022680Y012380D03*
X022680Y020380D03*
X023680Y020380D03*
X025680Y020380D03*
D16*
X032119Y020130D03*
X032119Y019630D03*
X032119Y019130D03*
X032119Y018630D03*
X032119Y018130D03*
X032119Y017630D03*
X032119Y017130D03*
X032119Y016630D03*
X035741Y016630D03*
X035741Y017130D03*
X035741Y017630D03*
X035741Y018130D03*
X035741Y018630D03*
X035741Y019130D03*
X035741Y019630D03*
X035741Y020130D03*
X040119Y020130D03*
X040119Y019630D03*
X040119Y019130D03*
X040119Y018630D03*
X040119Y018130D03*
X040119Y017630D03*
X040119Y017130D03*
X040119Y016630D03*
X043741Y016630D03*
X043741Y017130D03*
X043741Y017630D03*
X043741Y018130D03*
X043741Y018630D03*
X043741Y019130D03*
X043741Y019630D03*
X043741Y020130D03*
X047869Y020130D03*
X047869Y019630D03*
X047869Y019130D03*
X047869Y018630D03*
X047869Y018130D03*
X047869Y017630D03*
X047869Y017130D03*
X047869Y016630D03*
X051491Y016630D03*
X051491Y017130D03*
X051491Y017630D03*
X051491Y018130D03*
X051491Y018630D03*
X051491Y019130D03*
X051491Y019630D03*
X051491Y020130D03*
D17*
X051680Y025130D03*
X050680Y025130D03*
X049680Y025130D03*
X048680Y025130D03*
X048680Y026130D03*
X049680Y026130D03*
X050680Y026130D03*
X051680Y026130D03*
X043930Y026130D03*
X042930Y026130D03*
X041930Y026130D03*
X040930Y026130D03*
X040930Y025130D03*
X041930Y025130D03*
X042930Y025130D03*
X043930Y025130D03*
X035930Y025130D03*
X034930Y025130D03*
X033930Y025130D03*
X032930Y025130D03*
X032930Y026130D03*
X033930Y026130D03*
X034930Y026130D03*
X035930Y026130D03*
D18*
X035481Y022630D03*
X034379Y022630D03*
X034379Y021630D03*
X035481Y021630D03*
X042379Y021630D03*
X043481Y021630D03*
X043481Y022630D03*
X042379Y022630D03*
X050129Y022630D03*
X051231Y022630D03*
X051231Y021630D03*
X050129Y021630D03*
D19*
X046731Y025130D03*
X045629Y025130D03*
X045629Y026130D03*
X046731Y026130D03*
X038981Y026130D03*
X037879Y026130D03*
X037879Y025130D03*
X038981Y025130D03*
X054129Y025130D03*
X055231Y025130D03*
X055231Y026130D03*
X054129Y026130D03*
D20*
X045930Y023431D03*
X045930Y022329D03*
X030930Y023079D03*
X030930Y024181D03*
X008180Y013681D03*
X008180Y012579D03*
D21*
X009430Y012539D03*
X009430Y013721D03*
X038180Y022289D03*
X038180Y023471D03*
X054430Y023721D03*
X054430Y022539D03*
X041430Y005971D03*
X041430Y004789D03*
D22*
X029180Y022880D03*
D23*
X029180Y023880D03*
X029180Y024880D03*
X029180Y025880D03*
D24*
X026680Y025880D03*
X025680Y025880D03*
X025680Y024880D03*
X026680Y024880D03*
X026680Y023880D03*
X025680Y023880D03*
X022680Y023880D03*
X021680Y023880D03*
X021680Y024880D03*
X022680Y024880D03*
X022680Y025880D03*
X021680Y025880D03*
X008680Y024880D03*
X007680Y024880D03*
X006680Y024880D03*
X005680Y024880D03*
X005680Y023880D03*
X006680Y023880D03*
X007680Y023880D03*
X008680Y023880D03*
X003680Y018880D03*
X002680Y018880D03*
X001680Y018880D03*
X001680Y017880D03*
X002680Y017880D03*
X003680Y017880D03*
X003680Y008880D03*
X002680Y008880D03*
X001680Y008880D03*
X001680Y007880D03*
X002680Y007880D03*
X003680Y007880D03*
X028680Y007380D03*
X029680Y007380D03*
X029680Y008380D03*
X028680Y008380D03*
X028680Y009380D03*
X029680Y009380D03*
X029680Y010380D03*
X028680Y010380D03*
X028680Y011380D03*
X029680Y011380D03*
X029680Y012380D03*
X028680Y012380D03*
X035680Y008880D03*
X036680Y008880D03*
X036680Y007880D03*
X035680Y007880D03*
X035680Y006880D03*
X036680Y006880D03*
X036680Y005880D03*
X035680Y005880D03*
X035680Y004880D03*
X036680Y004880D03*
X043680Y004880D03*
X044680Y004880D03*
X044680Y005880D03*
X043680Y005880D03*
X043680Y006880D03*
X044680Y006880D03*
X044680Y007880D03*
X043680Y007880D03*
X043680Y008880D03*
X044680Y008880D03*
X051680Y008880D03*
X052680Y008880D03*
X052680Y007880D03*
X051680Y007880D03*
X051680Y006880D03*
X052680Y006880D03*
X052680Y005880D03*
X051680Y005880D03*
X051680Y004880D03*
X052680Y004880D03*
X029680Y005380D03*
X028680Y005380D03*
X028680Y006380D03*
X029680Y006380D03*
D25*
X012490Y019380D03*
X011370Y019380D03*
D26*
X014680Y018820D03*
X016680Y018820D03*
X018180Y018820D03*
X018180Y019940D03*
X016680Y019940D03*
X014680Y019940D03*
X052930Y021820D03*
X052930Y022940D03*
D27*
X018180Y017569D03*
X016680Y017569D03*
X014680Y017569D03*
X012430Y017819D03*
X011430Y017819D03*
X011430Y016441D03*
X012430Y016441D03*
X014680Y016191D03*
X016680Y016191D03*
X018180Y016191D03*
D28*
X002285Y014614D02*
X001575Y014614D01*
X001575Y012646D02*
X002285Y012646D01*
D29*
X002540Y002670D02*
X002540Y002030D01*
X004320Y002030D02*
X004320Y002670D01*
X004320Y004590D02*
X004320Y005230D01*
X002540Y005230D02*
X002540Y004590D01*
X017290Y006530D02*
X017290Y007170D01*
X019070Y007170D02*
X019070Y006530D01*
X019070Y009090D02*
X019070Y009730D01*
X017290Y009730D02*
X017290Y009090D01*
X006500Y012630D02*
X005860Y012630D01*
X005860Y013630D02*
X006500Y013630D01*
X006500Y014630D02*
X005860Y014630D01*
D30*
X030180Y017880D03*
X030930Y019380D03*
X029930Y020630D03*
X031930Y021380D03*
X034680Y018630D03*
X036680Y020380D03*
X038180Y021380D03*
X038930Y019380D03*
X037930Y017880D03*
X042680Y018630D03*
X044680Y020380D03*
X045930Y021380D03*
X046680Y019380D03*
X045930Y017880D03*
X050430Y018630D03*
X052430Y020380D03*
X054430Y021380D03*
X055430Y024130D03*
X046680Y024130D03*
X038930Y024130D03*
X053680Y017880D03*
M02*
