G75*
G70*
%OFA0B0*%
%FSLAX24Y24*%
%IPPOS*%
%LPD*%
%AMOC8*
5,1,8,0,0,1.08239X$1,22.5*
%
%ADD10C,0.0000*%
%ADD11R,0.0600X0.0600*%
%ADD12C,0.0600*%
%ADD13OC8,0.0590*%
%ADD14C,0.0590*%
%ADD15R,0.0590X0.0590*%
%ADD16R,0.0866X0.0236*%
%ADD17OC8,0.0740*%
%ADD18R,0.0630X0.0787*%
%ADD19R,0.0630X0.0709*%
%ADD20R,0.0709X0.0630*%
%ADD21R,0.0787X0.0591*%
%ADD22R,0.0740X0.0740*%
%ADD23C,0.0740*%
%ADD24OC8,0.0640*%
%ADD25R,0.0630X0.0710*%
%ADD26R,0.0710X0.0630*%
%ADD27R,0.0591X0.0591*%
%ADD28C,0.0710*%
%ADD29C,0.0640*%
%ADD30C,0.0160*%
%ADD31R,0.0436X0.0436*%
%ADD32C,0.0400*%
%ADD33C,0.0120*%
%ADD34C,0.0660*%
D10*
X000180Y000380D02*
X056180Y000380D01*
X056180Y027880D01*
X000180Y027880D01*
X000180Y000380D01*
D11*
X012680Y003380D03*
X014680Y003380D03*
X014680Y002380D03*
X023680Y003380D03*
X039680Y008880D03*
X047680Y008880D03*
X055180Y008880D03*
X030680Y012380D03*
X027680Y013380D03*
X019680Y021380D03*
X019680Y022380D03*
X012680Y023380D03*
X011080Y022380D03*
X010680Y021380D03*
X026680Y022380D03*
D12*
X025680Y022380D03*
X024680Y022380D03*
X023680Y022380D03*
X022680Y022380D03*
X021680Y022380D03*
X019680Y023380D03*
X018680Y023380D03*
X017680Y023380D03*
X016680Y023380D03*
X015680Y023380D03*
X014680Y023380D03*
X013680Y023380D03*
X013680Y022380D03*
X012680Y022380D03*
X012680Y021380D03*
X013680Y021380D03*
X014680Y021380D03*
X015680Y021380D03*
X016680Y021380D03*
X017680Y021380D03*
X018680Y021380D03*
X018680Y022380D03*
X017680Y022380D03*
X016680Y022380D03*
X015680Y022380D03*
X014680Y022380D03*
X010080Y022380D03*
X009080Y022380D03*
X008080Y022380D03*
X007080Y022380D03*
X006080Y022380D03*
X005080Y022380D03*
X004080Y022380D03*
X003680Y021380D03*
X004680Y021380D03*
X005680Y021380D03*
X006680Y021380D03*
X007680Y021380D03*
X008680Y021380D03*
X009680Y021380D03*
X027680Y020380D03*
X027680Y019380D03*
X027680Y018380D03*
X027680Y017380D03*
X027680Y016380D03*
X027680Y015380D03*
X027680Y014380D03*
X030680Y011380D03*
X030680Y010380D03*
X030680Y009380D03*
X030680Y008380D03*
X030680Y007380D03*
X030680Y006380D03*
X030680Y005380D03*
X026680Y003380D03*
X025680Y003380D03*
X024680Y003380D03*
X021680Y003380D03*
X020680Y003380D03*
X019680Y003380D03*
X018680Y003380D03*
X017680Y003380D03*
X016680Y003380D03*
X015680Y003380D03*
X015680Y002380D03*
X016680Y002380D03*
X017680Y002380D03*
X018680Y002380D03*
X019680Y002380D03*
X020680Y002380D03*
X021680Y002380D03*
X011680Y003380D03*
X010680Y003380D03*
X009680Y003380D03*
X008680Y003380D03*
X007680Y003380D03*
X039680Y005880D03*
X039680Y006880D03*
X039680Y007880D03*
X047680Y007880D03*
X047680Y006880D03*
X047680Y005880D03*
X055180Y005880D03*
X055180Y006880D03*
X055180Y007880D03*
D13*
X019680Y014380D03*
X017680Y014380D03*
D14*
X018680Y014380D03*
X020680Y014380D03*
X020680Y013380D03*
X019680Y013380D03*
X018680Y013380D03*
X017680Y013380D03*
X017680Y012380D03*
X018680Y012380D03*
X019680Y012380D03*
X020680Y012380D03*
X022680Y013380D03*
X023680Y013380D03*
X025680Y013380D03*
X025680Y014380D03*
X025680Y015380D03*
X023680Y015380D03*
X022680Y015380D03*
X022680Y014380D03*
X023680Y014380D03*
X023680Y016380D03*
X022680Y016380D03*
X022680Y017380D03*
X023680Y017380D03*
X025680Y017380D03*
X025680Y016380D03*
X025680Y018380D03*
X025680Y019380D03*
X023680Y019380D03*
X022680Y019380D03*
X022680Y018380D03*
X023680Y018380D03*
X023680Y011380D03*
X022680Y011380D03*
X022680Y010380D03*
X023680Y010380D03*
X023680Y009380D03*
X022680Y009380D03*
X022680Y008380D03*
X023680Y008380D03*
X023680Y007380D03*
X022680Y007380D03*
X022680Y006380D03*
X023680Y006380D03*
X023680Y005380D03*
X022680Y005380D03*
X025680Y005380D03*
X026680Y005380D03*
X026680Y006380D03*
X025680Y006380D03*
X025680Y007380D03*
X026680Y007380D03*
X026680Y008380D03*
X025680Y008380D03*
X025680Y009380D03*
X026680Y009380D03*
X026680Y010380D03*
X025680Y010380D03*
X025680Y011380D03*
X026680Y011380D03*
D15*
X026680Y012380D03*
X025680Y012380D03*
X023680Y012380D03*
X022680Y012380D03*
X022680Y020380D03*
X023680Y020380D03*
X025680Y020380D03*
D16*
X032119Y020130D03*
X032119Y019630D03*
X032119Y019130D03*
X032119Y018630D03*
X032119Y018130D03*
X032119Y017630D03*
X032119Y017130D03*
X032119Y016630D03*
X035741Y016630D03*
X035741Y017130D03*
X035741Y017630D03*
X035741Y018130D03*
X035741Y018630D03*
X035741Y019130D03*
X035741Y019630D03*
X035741Y020130D03*
X040119Y020130D03*
X040119Y019630D03*
X040119Y019130D03*
X040119Y018630D03*
X040119Y018130D03*
X040119Y017630D03*
X040119Y017130D03*
X040119Y016630D03*
X043741Y016630D03*
X043741Y017130D03*
X043741Y017630D03*
X043741Y018130D03*
X043741Y018630D03*
X043741Y019130D03*
X043741Y019630D03*
X043741Y020130D03*
X047869Y020130D03*
X047869Y019630D03*
X047869Y019130D03*
X047869Y018630D03*
X047869Y018130D03*
X047869Y017630D03*
X047869Y017130D03*
X047869Y016630D03*
X051491Y016630D03*
X051491Y017130D03*
X051491Y017630D03*
X051491Y018130D03*
X051491Y018630D03*
X051491Y019130D03*
X051491Y019630D03*
X051491Y020130D03*
D17*
X051680Y025130D03*
X050680Y025130D03*
X049680Y025130D03*
X048680Y025130D03*
X048680Y026130D03*
X049680Y026130D03*
X050680Y026130D03*
X051680Y026130D03*
X043930Y026130D03*
X042930Y026130D03*
X041930Y026130D03*
X040930Y026130D03*
X040930Y025130D03*
X041930Y025130D03*
X042930Y025130D03*
X043930Y025130D03*
X035930Y025130D03*
X034930Y025130D03*
X033930Y025130D03*
X032930Y025130D03*
X032930Y026130D03*
X033930Y026130D03*
X034930Y026130D03*
X035930Y026130D03*
D18*
X035481Y022630D03*
X034379Y022630D03*
X034379Y021630D03*
X035481Y021630D03*
X042379Y021630D03*
X043481Y021630D03*
X043481Y022630D03*
X042379Y022630D03*
X050129Y022630D03*
X051231Y022630D03*
X051231Y021630D03*
X050129Y021630D03*
D19*
X046731Y025130D03*
X045629Y025130D03*
X045629Y026130D03*
X046731Y026130D03*
X038981Y026130D03*
X037879Y026130D03*
X037879Y025130D03*
X038981Y025130D03*
X054129Y025130D03*
X055231Y025130D03*
X055231Y026130D03*
X054129Y026130D03*
D20*
X045930Y023431D03*
X045930Y022329D03*
X030930Y023079D03*
X030930Y024181D03*
X008180Y013681D03*
X008180Y012579D03*
D21*
X009430Y012539D03*
X009430Y013721D03*
X038180Y022289D03*
X038180Y023471D03*
X054430Y023721D03*
X054430Y022539D03*
X041430Y005971D03*
X041430Y004789D03*
D22*
X029180Y022880D03*
D23*
X029180Y023880D03*
X029180Y024880D03*
X029180Y025880D03*
D24*
X026680Y025880D03*
X025680Y025880D03*
X025680Y024880D03*
X026680Y024880D03*
X026680Y023880D03*
X025680Y023880D03*
X022680Y023880D03*
X021680Y023880D03*
X021680Y024880D03*
X022680Y024880D03*
X022680Y025880D03*
X021680Y025880D03*
X008680Y024880D03*
X007680Y024880D03*
X006680Y024880D03*
X005680Y024880D03*
X005680Y023880D03*
X006680Y023880D03*
X007680Y023880D03*
X008680Y023880D03*
X003680Y018880D03*
X002680Y018880D03*
X001680Y018880D03*
X001680Y017880D03*
X002680Y017880D03*
X003680Y017880D03*
X003680Y008880D03*
X002680Y008880D03*
X001680Y008880D03*
X001680Y007880D03*
X002680Y007880D03*
X003680Y007880D03*
X028680Y007380D03*
X029680Y007380D03*
X029680Y008380D03*
X028680Y008380D03*
X028680Y009380D03*
X029680Y009380D03*
X029680Y010380D03*
X028680Y010380D03*
X028680Y011380D03*
X029680Y011380D03*
X029680Y012380D03*
X028680Y012380D03*
X035680Y008880D03*
X036680Y008880D03*
X036680Y007880D03*
X035680Y007880D03*
X035680Y006880D03*
X036680Y006880D03*
X036680Y005880D03*
X035680Y005880D03*
X035680Y004880D03*
X036680Y004880D03*
X043680Y004880D03*
X044680Y004880D03*
X044680Y005880D03*
X043680Y005880D03*
X043680Y006880D03*
X044680Y006880D03*
X044680Y007880D03*
X043680Y007880D03*
X043680Y008880D03*
X044680Y008880D03*
X051680Y008880D03*
X052680Y008880D03*
X052680Y007880D03*
X051680Y007880D03*
X051680Y006880D03*
X052680Y006880D03*
X052680Y005880D03*
X051680Y005880D03*
X051680Y004880D03*
X052680Y004880D03*
X029680Y005380D03*
X028680Y005380D03*
X028680Y006380D03*
X029680Y006380D03*
D25*
X012490Y019380D03*
X011370Y019380D03*
D26*
X014680Y018820D03*
X016680Y018820D03*
X018180Y018820D03*
X018180Y019940D03*
X016680Y019940D03*
X014680Y019940D03*
X052930Y021820D03*
X052930Y022940D03*
D27*
X018180Y017569D03*
X016680Y017569D03*
X014680Y017569D03*
X012430Y017819D03*
X011430Y017819D03*
X011430Y016441D03*
X012430Y016441D03*
X014680Y016191D03*
X016680Y016191D03*
X018180Y016191D03*
D28*
X002285Y014614D02*
X001575Y014614D01*
X001575Y012646D02*
X002285Y012646D01*
D29*
X005860Y012630D02*
X006500Y012630D01*
X006500Y013630D02*
X005860Y013630D01*
X005860Y014630D02*
X006500Y014630D01*
X017290Y009730D02*
X017290Y009090D01*
X019070Y009090D02*
X019070Y009730D01*
X019070Y007170D02*
X019070Y006530D01*
X017290Y006530D02*
X017290Y007170D01*
X004320Y005230D02*
X004320Y004590D01*
X002540Y004590D02*
X002540Y005230D01*
X002540Y002670D02*
X002540Y002030D01*
X004320Y002030D02*
X004320Y002670D01*
D30*
X004320Y002350D02*
X004320Y004380D01*
X004320Y004770D01*
X004320Y004910D01*
X004430Y004880D02*
X004320Y004770D01*
X004320Y004380D02*
X016680Y004380D01*
X017680Y003380D01*
X017180Y002880D02*
X016680Y003380D01*
X016180Y002880D02*
X016180Y002130D01*
X016430Y001880D01*
X032680Y001880D01*
X034180Y003380D01*
X047930Y003380D01*
X050930Y006380D01*
X052180Y006380D01*
X052680Y006880D01*
X055180Y006880D01*
X055180Y007880D02*
X052680Y007880D01*
X052180Y007380D01*
X050930Y007380D01*
X047430Y003880D01*
X033180Y003880D01*
X031680Y002380D01*
X022930Y002380D01*
X022430Y002880D01*
X017180Y002880D01*
X016180Y002880D02*
X015680Y003380D01*
X014680Y003380D02*
X013930Y002630D01*
X013930Y001880D01*
X014430Y001380D01*
X033680Y001380D01*
X035180Y002880D01*
X048430Y002880D01*
X050930Y005380D01*
X052180Y005380D01*
X052680Y005880D01*
X055180Y005880D01*
X055180Y008880D02*
X052680Y008880D01*
X052730Y009330D01*
X048180Y013880D01*
X022180Y013880D01*
X021680Y013380D01*
X021680Y008380D01*
X022180Y007880D01*
X024430Y007880D01*
X024930Y007380D01*
X025680Y007380D01*
X023180Y006880D02*
X022680Y007380D01*
X023180Y006880D02*
X034680Y006880D01*
X035180Y007380D01*
X036180Y007380D01*
X036680Y007880D01*
X039680Y007880D01*
X040680Y008380D02*
X042680Y006380D01*
X044180Y006380D01*
X044680Y005880D01*
X047680Y005880D01*
X047680Y006880D02*
X044680Y006880D01*
X044180Y007380D01*
X043180Y007380D01*
X039680Y010880D01*
X025180Y010880D01*
X024180Y009880D01*
X023180Y009880D01*
X022680Y009380D01*
X023180Y008880D02*
X034180Y008880D01*
X034680Y008380D01*
X040680Y008380D01*
X039680Y008880D02*
X036680Y008880D01*
X035680Y009880D01*
X024930Y009880D01*
X024430Y009380D01*
X023680Y009380D01*
X023180Y008880D02*
X022680Y008380D01*
X020680Y006880D02*
X020680Y004380D01*
X021680Y003380D01*
X023680Y004380D02*
X022680Y005380D01*
X023180Y005880D02*
X022680Y006380D01*
X023180Y005880D02*
X034680Y005880D01*
X035180Y006380D01*
X036230Y006380D01*
X036680Y006880D01*
X039680Y006880D01*
X041430Y005971D02*
X041430Y005880D01*
X043680Y005880D01*
X043680Y004880D02*
X041430Y004880D01*
X041430Y004789D01*
X039680Y005880D02*
X036680Y005880D01*
X036180Y005380D01*
X032180Y005380D01*
X031180Y004380D01*
X023680Y004380D01*
X020680Y006880D02*
X019680Y007880D01*
X003680Y007880D01*
X002680Y007880D01*
X001680Y007880D01*
X016680Y013630D02*
X017430Y012880D01*
X018180Y012880D01*
X018680Y012380D01*
X018180Y011880D02*
X017680Y012380D01*
X018180Y011880D02*
X019180Y011880D01*
X019680Y012380D01*
X019180Y012880D02*
X018680Y013380D01*
X019180Y013880D02*
X019680Y013380D01*
X019180Y013880D02*
X018180Y013880D01*
X017680Y013380D01*
X016680Y013630D02*
X016680Y016130D01*
X014741Y016130D01*
X014680Y016191D01*
X013180Y016880D02*
X013180Y021630D01*
X013430Y021880D01*
X015180Y021880D01*
X015680Y021380D01*
X014680Y021380D02*
X014680Y019940D01*
X016680Y019940D02*
X016680Y021380D01*
X017680Y021380D02*
X018180Y020880D01*
X018180Y019940D01*
X016680Y018880D02*
X016680Y018820D01*
X016680Y017569D01*
X018180Y017569D02*
X018180Y018820D01*
X021180Y017880D02*
X022180Y016880D01*
X022180Y015880D01*
X022680Y015380D01*
X023180Y015130D02*
X023430Y014880D01*
X029430Y014880D01*
X029930Y014380D01*
X050418Y014380D01*
X050436Y014381D01*
X050445Y014382D01*
X050450Y014382D01*
X052203Y014382D01*
X052930Y015130D01*
X052930Y018380D01*
X052680Y018630D01*
X051491Y018630D01*
X051491Y019130D02*
X053180Y019130D01*
X053180Y020880D01*
X052930Y021820D01*
X051930Y022130D02*
X051231Y021630D01*
X050804Y021254D01*
X049930Y020380D01*
X049930Y017630D01*
X051491Y017630D01*
X051491Y017130D02*
X052180Y017130D01*
X052430Y016880D01*
X052430Y016380D01*
X052180Y016130D01*
X047430Y016130D01*
X047180Y016380D01*
X047180Y017380D01*
X047430Y017630D01*
X047869Y017630D01*
X048680Y017630D01*
X048930Y017880D01*
X048930Y023630D01*
X047930Y024630D01*
X047930Y026630D01*
X048180Y026880D01*
X050680Y026880D01*
X053430Y026880D01*
X053806Y026504D01*
X054129Y026130D01*
X055231Y026130D02*
X055304Y025004D01*
X055430Y024880D01*
X055430Y024130D01*
X054430Y023721D01*
X052930Y022880D01*
X051930Y022130D02*
X051930Y024630D01*
X051680Y025130D01*
X054129Y025130D01*
X055231Y025130D02*
X055231Y026130D01*
X051680Y026130D02*
X051680Y025130D01*
X051180Y024506D02*
X050680Y025130D01*
X050680Y026130D01*
X050680Y026880D01*
X049680Y026130D02*
X049680Y025130D01*
X050056Y024754D01*
X050129Y022630D01*
X050180Y022630D02*
X050056Y022506D01*
X050129Y021630D01*
X051054Y021504D02*
X051231Y021630D01*
X051231Y022630D02*
X051180Y024506D01*
X049430Y024380D02*
X048680Y025130D01*
X048680Y026130D01*
X046731Y026130D02*
X046731Y025130D01*
X046680Y024130D01*
X045930Y023431D01*
X045930Y022380D02*
X045930Y022329D01*
X045930Y021380D01*
X045930Y019380D01*
X046680Y018630D01*
X047869Y018630D01*
X047869Y019130D02*
X046930Y019130D01*
X046680Y019380D01*
X045930Y018630D02*
X045930Y017880D01*
X045180Y018380D02*
X044930Y018630D01*
X043430Y018630D01*
X043741Y019130D02*
X045430Y019130D01*
X045930Y018630D01*
X045180Y018380D02*
X045180Y015630D01*
X044430Y014880D01*
X030180Y014880D01*
X028680Y016380D01*
X028680Y017380D01*
X028180Y017880D01*
X023180Y017880D01*
X022680Y018380D01*
X023180Y018880D02*
X028430Y018880D01*
X029430Y017880D01*
X029430Y016880D01*
X030680Y015630D01*
X036930Y015630D01*
X037180Y015880D01*
X037180Y018380D01*
X036930Y018630D01*
X035741Y018630D01*
X035741Y019130D02*
X037430Y019130D01*
X037930Y018630D01*
X037930Y017880D01*
X039430Y017380D02*
X039680Y017630D01*
X040119Y017630D01*
X040930Y017630D01*
X041180Y017880D01*
X041180Y023630D01*
X040180Y024630D01*
X040180Y026630D01*
X040430Y026880D01*
X042930Y026880D01*
X044930Y026880D01*
X045306Y026504D01*
X045629Y026130D01*
X045629Y025130D02*
X043930Y025130D01*
X043930Y024880D01*
X044180Y024630D01*
X044180Y022130D01*
X043481Y021630D01*
X043054Y021254D01*
X042180Y020380D01*
X042180Y017630D01*
X043741Y017630D01*
X043741Y017130D02*
X044430Y017130D01*
X044680Y016880D01*
X044680Y016380D01*
X044430Y016130D01*
X039680Y016130D01*
X039430Y016380D01*
X039430Y017380D01*
X040119Y016630D02*
X041430Y016630D01*
X041680Y016880D01*
X041680Y024380D01*
X040930Y025130D01*
X040930Y026130D01*
X041930Y026130D02*
X041930Y025130D01*
X042306Y024754D01*
X042379Y022630D01*
X042430Y022630D02*
X042306Y022506D01*
X042379Y021630D01*
X043481Y021630D02*
X043554Y021754D01*
X043481Y022630D02*
X043430Y024506D01*
X042930Y025130D01*
X042930Y026130D01*
X042930Y026880D01*
X043930Y026130D02*
X043930Y025130D01*
X039054Y025254D02*
X038930Y025130D01*
X038930Y024130D01*
X038180Y023380D01*
X038180Y022289D02*
X038180Y021380D01*
X038180Y019130D01*
X038680Y018630D01*
X040119Y018630D01*
X040119Y019130D02*
X039180Y019130D01*
X038930Y019380D01*
X036680Y019880D02*
X036680Y020380D01*
X036680Y019880D02*
X036430Y019630D01*
X035741Y019630D01*
X034680Y018630D02*
X035180Y018130D01*
X035930Y018130D01*
X035741Y017630D02*
X034180Y017630D01*
X034180Y017130D01*
X035180Y016630D01*
X035680Y016630D01*
X035741Y017130D02*
X036430Y017130D01*
X036680Y016880D01*
X036680Y016380D01*
X036430Y016130D01*
X031680Y016130D01*
X031430Y016380D01*
X031430Y017380D01*
X031680Y017630D01*
X032119Y017630D01*
X032930Y017630D01*
X033180Y017880D01*
X033180Y023630D01*
X032180Y024630D01*
X032180Y026630D01*
X032430Y026880D01*
X034930Y026880D01*
X037180Y026880D01*
X037556Y026504D01*
X037879Y026130D01*
X038981Y026130D02*
X039054Y025254D01*
X038981Y025130D02*
X038930Y025130D01*
X037879Y025130D02*
X035930Y025130D01*
X036180Y024630D01*
X036180Y022130D01*
X035481Y021630D01*
X035054Y021254D01*
X034180Y020380D01*
X034180Y017630D01*
X033680Y016880D02*
X033680Y024380D01*
X032930Y025130D01*
X032930Y026130D01*
X033930Y026130D02*
X033930Y025130D01*
X034306Y024754D01*
X034379Y022630D01*
X034430Y022630D02*
X034306Y022756D01*
X034379Y021630D01*
X035304Y021504D02*
X035481Y021630D01*
X035481Y022630D02*
X035430Y024506D01*
X034930Y025130D01*
X034930Y026130D01*
X034930Y026880D01*
X035930Y026130D02*
X035930Y025130D01*
X030930Y024130D02*
X030680Y023880D01*
X029180Y023880D01*
X029180Y022880D02*
X030680Y022880D01*
X030680Y021880D02*
X021680Y021880D01*
X021180Y021380D01*
X021180Y017880D01*
X021930Y017880D02*
X021930Y021130D01*
X022180Y021380D01*
X029180Y021380D01*
X029930Y020630D01*
X030930Y021630D02*
X030680Y021880D01*
X030930Y021630D02*
X030930Y019380D01*
X031180Y019130D01*
X032119Y019130D01*
X032119Y018630D02*
X032680Y018630D01*
X032805Y018780D01*
X032805Y020780D01*
X031930Y021380D01*
X030180Y018880D02*
X028180Y020880D01*
X023180Y020880D01*
X022680Y020380D01*
X022680Y019380D02*
X023180Y018880D01*
X021930Y017880D02*
X022430Y017380D01*
X022680Y017380D01*
X022680Y016380D02*
X023180Y015880D01*
X023180Y015130D01*
X021430Y014880D02*
X021430Y014130D01*
X021180Y013880D01*
X020180Y013880D01*
X019680Y014380D01*
X019180Y014880D02*
X020180Y014880D01*
X020680Y014380D01*
X021430Y014880D02*
X020930Y015380D01*
X018680Y015380D01*
X017680Y014380D01*
X018680Y014380D02*
X019180Y014880D01*
X018180Y016191D02*
X016680Y016191D01*
X016680Y016130D01*
X014680Y017569D02*
X014680Y018820D01*
X012680Y017880D02*
X012430Y018130D01*
X012430Y019320D01*
X012490Y019380D01*
X011370Y019380D02*
X009620Y021320D01*
X009680Y021380D01*
X009080Y022380D02*
X009080Y022980D01*
X008680Y023380D01*
X008680Y023880D01*
X007680Y023880D02*
X007680Y023380D01*
X008080Y022980D01*
X008080Y022380D01*
X007080Y022380D02*
X007080Y022980D01*
X006680Y023380D01*
X006680Y023880D01*
X005680Y023880D02*
X005680Y023380D01*
X006080Y022980D01*
X006080Y022380D01*
X011430Y017819D02*
X012430Y017819D01*
X012680Y017880D01*
X013180Y016880D02*
X012680Y016630D01*
X012430Y016441D01*
X012619Y016441D02*
X012680Y016380D01*
X012619Y016441D02*
X011430Y016441D01*
X019180Y012880D02*
X020180Y012880D01*
X020680Y013380D01*
X023180Y011630D02*
X023430Y011880D01*
X024180Y011880D01*
X025107Y012807D01*
X025284Y012880D02*
X046180Y012880D01*
X048680Y010380D01*
X048680Y008380D01*
X048180Y007880D01*
X047680Y007880D01*
X044680Y007880D01*
X044680Y008880D02*
X047680Y008880D01*
X044680Y008880D02*
X044680Y009130D01*
X041930Y011880D01*
X025180Y011880D01*
X023680Y010380D01*
X023180Y010880D02*
X023180Y011630D01*
X023180Y010880D02*
X022680Y010380D01*
X025680Y013380D02*
X027680Y013380D01*
X027680Y014380D02*
X025680Y014380D01*
X025680Y015380D02*
X027680Y015380D01*
X027680Y016380D02*
X025680Y016380D01*
X030180Y017880D02*
X030180Y018880D01*
X027680Y019380D02*
X025680Y019380D01*
X025680Y020380D02*
X027680Y020380D01*
X026680Y022380D02*
X026680Y023880D01*
X026680Y024880D01*
X029180Y024880D01*
X029180Y025880D02*
X028430Y026630D01*
X026430Y026630D01*
X025680Y025880D01*
X025680Y024880D01*
X025680Y023880D01*
X025680Y022380D01*
X022680Y023880D02*
X022680Y024880D01*
X022680Y025880D01*
X021680Y025880D02*
X021680Y024880D01*
X021680Y023880D01*
X021930Y023130D02*
X020430Y023130D01*
X019680Y022380D01*
X019180Y022880D02*
X018680Y022380D01*
X019180Y022880D02*
X019180Y023880D01*
X020430Y024880D01*
X021680Y024880D01*
X022680Y023880D02*
X021930Y023130D01*
X026680Y024880D02*
X026680Y025880D01*
X038056Y022256D02*
X038180Y022289D01*
X043741Y019630D02*
X044430Y019630D01*
X044680Y019880D01*
X044680Y020380D01*
X042680Y018630D02*
X043180Y018130D01*
X043930Y018130D01*
X042180Y017630D02*
X042180Y017130D01*
X043180Y016630D01*
X043680Y016630D01*
X047869Y016630D02*
X049180Y016630D01*
X049430Y016880D01*
X049430Y024380D01*
X054430Y022539D02*
X054430Y021380D01*
X052430Y020380D02*
X052430Y019880D01*
X052180Y019630D01*
X051491Y019630D01*
X050430Y018630D02*
X050930Y018130D01*
X051680Y018130D01*
X053180Y019130D02*
X053430Y019130D01*
X053680Y018880D01*
X053680Y017880D01*
X051430Y016630D02*
X050930Y016630D01*
X049930Y017130D01*
X049930Y017630D01*
X033680Y016880D02*
X033430Y016630D01*
X032119Y016630D01*
X017290Y006850D02*
X017290Y004770D01*
X018680Y003380D01*
D31*
X030180Y017880D03*
X030930Y019380D03*
X029930Y020630D03*
X031930Y021380D03*
X034680Y018630D03*
X036680Y020380D03*
X038180Y021380D03*
X038930Y019380D03*
X037930Y017880D03*
X042680Y018630D03*
X044680Y020380D03*
X045930Y021380D03*
X046680Y019380D03*
X045930Y017880D03*
X050430Y018630D03*
X052430Y020380D03*
X054430Y021380D03*
X055430Y024130D03*
X046680Y024130D03*
X038930Y024130D03*
X053680Y017880D03*
D32*
X009430Y013721D02*
X009430Y013630D01*
X008180Y013630D01*
X006180Y013630D01*
X006180Y012630D02*
X008180Y012630D01*
X008180Y012579D01*
X008180Y012630D02*
X009430Y012630D01*
X009430Y012539D01*
X008180Y013630D02*
X008180Y013681D01*
D33*
X025107Y012807D02*
X025284Y012880D01*
X025680Y017380D02*
X027680Y017380D01*
X027680Y018380D02*
X025680Y018380D01*
X030680Y023130D02*
X030930Y023079D01*
D34*
X006180Y012630D02*
X005180Y012630D01*
X004680Y013130D01*
X004680Y018380D01*
X004180Y018880D01*
X003680Y018880D01*
X002680Y018880D01*
X001680Y018880D01*
M02*
