G75*
G70*
%OFA0B0*%
%FSLAX24Y24*%
%IPPOS*%
%LPD*%
%AMOC8*
5,1,8,0,0,1.08239X$1,22.5*
%
%ADD10C,0.0030*%
%ADD11C,0.0040*%
%ADD12C,0.0050*%
%ADD13C,0.0020*%
%ADD14C,0.0160*%
%ADD15R,0.0500X0.2000*%
%ADD16C,0.0090*%
%ADD17C,0.0060*%
%ADD18C,0.0000*%
%ADD19C,0.0080*%
%ADD20R,0.0598X0.0193*%
%ADD21R,0.0200X0.0200*%
%ADD22R,0.0230X0.0720*%
%ADD23R,0.0295X0.0669*%
%ADD24R,0.0669X0.0295*%
%ADD25R,0.0630X0.0197*%
%ADD26R,0.0290X0.0690*%
%ADD27R,0.0690X0.0290*%
%ADD28R,0.0197X0.0049*%
%ADD29R,0.0089X0.0128*%
%ADD30R,0.0049X0.0089*%
%ADD31R,0.0167X0.0049*%
%ADD32R,0.0197X0.0138*%
%ADD33R,0.0236X0.0049*%
%ADD34R,0.0669X0.0118*%
%ADD35R,0.0669X0.0276*%
%ADD36R,0.0128X0.0167*%
%ADD37R,0.0138X0.0138*%
%ADD38C,0.0100*%
%ADD39R,0.0300X0.4200*%
%ADD40R,0.0200X0.0750*%
%ADD41R,0.0200X0.0300*%
%ADD42R,0.0200X0.0700*%
D10*
X007245Y003995D02*
X007245Y004285D01*
X007390Y004285D01*
X007438Y004237D01*
X007438Y004140D01*
X007390Y004092D01*
X007245Y004092D01*
X007342Y004092D02*
X007438Y003995D01*
X007540Y004043D02*
X007588Y003995D01*
X007685Y003995D01*
X007733Y004043D01*
X007733Y004092D01*
X007685Y004140D01*
X007588Y004140D01*
X007540Y004188D01*
X007540Y004237D01*
X007588Y004285D01*
X007685Y004285D01*
X007733Y004237D01*
X007834Y004285D02*
X008028Y004285D01*
X007931Y004285D02*
X007931Y003995D01*
X021775Y006193D02*
X021775Y006290D01*
X021823Y006338D01*
X021872Y006338D01*
X021920Y006290D01*
X021968Y006338D01*
X022017Y006338D01*
X022065Y006290D01*
X022065Y006193D01*
X022017Y006145D01*
X021920Y006242D02*
X021920Y006290D01*
X021920Y006440D02*
X021920Y006585D01*
X021968Y006633D01*
X022017Y006633D01*
X022065Y006585D01*
X022065Y006488D01*
X022017Y006440D01*
X021920Y006440D01*
X021823Y006536D01*
X021775Y006633D01*
X021775Y006193D02*
X021823Y006145D01*
X021823Y007145D02*
X021775Y007193D01*
X021775Y007290D01*
X021823Y007338D01*
X021872Y007338D01*
X021920Y007290D01*
X021968Y007338D01*
X022017Y007338D01*
X022065Y007290D01*
X022065Y007193D01*
X022017Y007145D01*
X021920Y007242D02*
X021920Y007290D01*
X021920Y007440D02*
X021872Y007536D01*
X021872Y007585D01*
X021920Y007633D01*
X022017Y007633D01*
X022065Y007585D01*
X022065Y007488D01*
X022017Y007440D01*
X021920Y007440D02*
X021775Y007440D01*
X021775Y007633D01*
X021823Y008145D02*
X021775Y008193D01*
X021775Y008290D01*
X021823Y008338D01*
X021872Y008338D01*
X021920Y008290D01*
X021968Y008338D01*
X022017Y008338D01*
X022065Y008290D01*
X022065Y008193D01*
X022017Y008145D01*
X021920Y008242D02*
X021920Y008290D01*
X021920Y008440D02*
X021920Y008633D01*
X022065Y008585D02*
X021775Y008585D01*
X021920Y008440D01*
X022017Y009145D02*
X022065Y009193D01*
X022065Y009290D01*
X022017Y009338D01*
X021968Y009338D01*
X021920Y009290D01*
X021920Y009242D01*
X021920Y009290D02*
X021872Y009338D01*
X021823Y009338D01*
X021775Y009290D01*
X021775Y009193D01*
X021823Y009145D01*
X021823Y009440D02*
X021775Y009488D01*
X021775Y009585D01*
X021823Y009633D01*
X021872Y009633D01*
X021920Y009585D01*
X021968Y009633D01*
X022017Y009633D01*
X022065Y009585D01*
X022065Y009488D01*
X022017Y009440D01*
X021920Y009536D02*
X021920Y009585D01*
X022017Y010145D02*
X022065Y010193D01*
X022065Y010290D01*
X022017Y010338D01*
X021968Y010338D01*
X021920Y010290D01*
X021920Y010242D01*
X021920Y010290D02*
X021872Y010338D01*
X021823Y010338D01*
X021775Y010290D01*
X021775Y010193D01*
X021823Y010145D01*
X021823Y010440D02*
X021775Y010488D01*
X021775Y010585D01*
X021823Y010633D01*
X021872Y010633D01*
X022065Y010440D01*
X022065Y010633D01*
X022017Y011145D02*
X022065Y011193D01*
X022065Y011290D01*
X022017Y011338D01*
X021968Y011338D01*
X021920Y011290D01*
X021920Y011242D01*
X021920Y011290D02*
X021872Y011338D01*
X021823Y011338D01*
X021775Y011290D01*
X021775Y011193D01*
X021823Y011145D01*
X021872Y011440D02*
X021775Y011536D01*
X022065Y011536D01*
X022065Y011440D02*
X022065Y011633D01*
X022017Y012145D02*
X022065Y012193D01*
X022065Y012290D01*
X022017Y012338D01*
X021968Y012338D01*
X021920Y012290D01*
X021920Y012242D01*
X021920Y012290D02*
X021872Y012338D01*
X021823Y012338D01*
X021775Y012290D01*
X021775Y012193D01*
X021823Y012145D01*
X021823Y012440D02*
X021775Y012488D01*
X021775Y012585D01*
X021823Y012633D01*
X022017Y012440D01*
X022065Y012488D01*
X022065Y012585D01*
X022017Y012633D01*
X021823Y012633D01*
X021823Y012440D02*
X022017Y012440D01*
X022065Y013145D02*
X021872Y013338D01*
X021823Y013338D01*
X021775Y013290D01*
X021775Y013193D01*
X021823Y013145D01*
X022065Y013145D02*
X022065Y013338D01*
X022017Y013440D02*
X022065Y013488D01*
X022065Y013585D01*
X022017Y013633D01*
X021823Y013633D01*
X021775Y013585D01*
X021775Y013488D01*
X021823Y013440D01*
X021872Y013440D01*
X021920Y013488D01*
X021920Y013633D01*
X021823Y014145D02*
X021775Y014193D01*
X021775Y014290D01*
X021823Y014338D01*
X021872Y014338D01*
X022065Y014145D01*
X022065Y014338D01*
X022017Y014440D02*
X021968Y014440D01*
X021920Y014488D01*
X021920Y014585D01*
X021968Y014633D01*
X022017Y014633D01*
X022065Y014585D01*
X022065Y014488D01*
X022017Y014440D01*
X021920Y014488D02*
X021872Y014440D01*
X021823Y014440D01*
X021775Y014488D01*
X021775Y014585D01*
X021823Y014633D01*
X021872Y014633D01*
X021920Y014585D01*
X021823Y015145D02*
X021775Y015193D01*
X021775Y015290D01*
X021823Y015338D01*
X021872Y015338D01*
X022065Y015145D01*
X022065Y015338D01*
X022065Y015440D02*
X022017Y015440D01*
X021823Y015633D01*
X021775Y015633D01*
X021775Y015440D01*
X024325Y015488D02*
X024325Y015585D01*
X024373Y015633D01*
X024422Y015633D01*
X024470Y015585D01*
X024518Y015633D01*
X024567Y015633D01*
X024615Y015585D01*
X024615Y015488D01*
X024567Y015440D01*
X024470Y015536D02*
X024470Y015585D01*
X024373Y015440D02*
X024325Y015488D01*
X024325Y015290D02*
X024470Y015145D01*
X024470Y015338D01*
X024615Y015290D02*
X024325Y015290D01*
X024420Y014633D02*
X024420Y014440D01*
X024275Y014585D01*
X024565Y014585D01*
X024420Y014338D02*
X024420Y014145D01*
X024275Y014290D01*
X024565Y014290D01*
X024517Y013633D02*
X024565Y013585D01*
X024565Y013488D01*
X024517Y013440D01*
X024420Y013440D02*
X024372Y013536D01*
X024372Y013585D01*
X024420Y013633D01*
X024517Y013633D01*
X024420Y013440D02*
X024275Y013440D01*
X024275Y013633D01*
X024420Y013338D02*
X024420Y013145D01*
X024275Y013290D01*
X024565Y013290D01*
X024517Y012633D02*
X024468Y012633D01*
X024420Y012585D01*
X024420Y012440D01*
X024517Y012440D01*
X024565Y012488D01*
X024565Y012585D01*
X024517Y012633D01*
X024323Y012536D02*
X024420Y012440D01*
X024420Y012338D02*
X024420Y012145D01*
X024275Y012290D01*
X024565Y012290D01*
X024323Y012536D02*
X024275Y012633D01*
X024275Y011633D02*
X024323Y011633D01*
X024517Y011440D01*
X024565Y011440D01*
X024565Y011290D02*
X024275Y011290D01*
X024420Y011145D01*
X024420Y011338D01*
X024275Y011440D02*
X024275Y011633D01*
X024323Y010633D02*
X024372Y010633D01*
X024420Y010585D01*
X024420Y010488D01*
X024372Y010440D01*
X024323Y010440D01*
X024275Y010488D01*
X024275Y010585D01*
X024323Y010633D01*
X024420Y010585D02*
X024468Y010633D01*
X024517Y010633D01*
X024565Y010585D01*
X024565Y010488D01*
X024517Y010440D01*
X024468Y010440D01*
X024420Y010488D01*
X024420Y010338D02*
X024420Y010145D01*
X024275Y010290D01*
X024565Y010290D01*
X024517Y009633D02*
X024323Y009633D01*
X024275Y009585D01*
X024275Y009488D01*
X024323Y009440D01*
X024372Y009440D01*
X024420Y009488D01*
X024420Y009633D01*
X024517Y009633D02*
X024565Y009585D01*
X024565Y009488D01*
X024517Y009440D01*
X024420Y009338D02*
X024420Y009145D01*
X024275Y009290D01*
X024565Y009290D01*
X024517Y008633D02*
X024565Y008585D01*
X024565Y008488D01*
X024517Y008440D01*
X024323Y008633D01*
X024517Y008633D01*
X024517Y008440D02*
X024323Y008440D01*
X024275Y008488D01*
X024275Y008585D01*
X024323Y008633D01*
X024275Y008338D02*
X024275Y008145D01*
X024420Y008145D01*
X024372Y008242D01*
X024372Y008290D01*
X024420Y008338D01*
X024517Y008338D01*
X024565Y008290D01*
X024565Y008193D01*
X024517Y008145D01*
X024565Y007633D02*
X024565Y007440D01*
X024565Y007536D02*
X024275Y007536D01*
X024372Y007440D01*
X024420Y007338D02*
X024517Y007338D01*
X024565Y007290D01*
X024565Y007193D01*
X024517Y007145D01*
X024420Y007145D02*
X024372Y007242D01*
X024372Y007290D01*
X024420Y007338D01*
X024275Y007338D02*
X024275Y007145D01*
X024420Y007145D01*
X024372Y006633D02*
X024323Y006633D01*
X024275Y006585D01*
X024275Y006488D01*
X024323Y006440D01*
X024275Y006338D02*
X024275Y006145D01*
X024420Y006145D01*
X024372Y006242D01*
X024372Y006290D01*
X024420Y006338D01*
X024517Y006338D01*
X024565Y006290D01*
X024565Y006193D01*
X024517Y006145D01*
X024565Y006440D02*
X024372Y006633D01*
X024565Y006633D02*
X024565Y006440D01*
X024517Y005633D02*
X024565Y005585D01*
X024565Y005488D01*
X024517Y005440D01*
X024517Y005338D02*
X024565Y005290D01*
X024565Y005193D01*
X024517Y005145D01*
X024420Y005145D02*
X024372Y005242D01*
X024372Y005290D01*
X024420Y005338D01*
X024517Y005338D01*
X024420Y005145D02*
X024275Y005145D01*
X024275Y005338D01*
X024323Y005440D02*
X024275Y005488D01*
X024275Y005585D01*
X024323Y005633D01*
X024372Y005633D01*
X024420Y005585D01*
X024468Y005633D01*
X024517Y005633D01*
X024420Y005585D02*
X024420Y005536D01*
X024573Y004778D02*
X024525Y004729D01*
X024525Y004584D01*
X024815Y004584D01*
X024815Y004729D01*
X024767Y004778D01*
X024573Y004778D01*
X024525Y004483D02*
X024815Y004483D01*
X024525Y004290D01*
X024815Y004290D01*
X024767Y004188D02*
X024670Y004188D01*
X024670Y004092D01*
X024767Y004188D02*
X024815Y004140D01*
X024815Y004043D01*
X024767Y003995D01*
X024573Y003995D01*
X024525Y004043D01*
X024525Y004140D01*
X024573Y004188D01*
X023815Y004092D02*
X023718Y004188D01*
X023525Y004188D01*
X023573Y004290D02*
X023767Y004290D01*
X023815Y004338D01*
X023815Y004435D01*
X023767Y004483D01*
X023767Y004584D02*
X023573Y004584D01*
X023525Y004633D01*
X023525Y004729D01*
X023573Y004778D01*
X023767Y004778D02*
X023815Y004729D01*
X023815Y004633D01*
X023767Y004584D01*
X023573Y004483D02*
X023525Y004435D01*
X023525Y004338D01*
X023573Y004290D01*
X023525Y003995D02*
X023718Y003995D01*
X023815Y004092D01*
X025525Y004140D02*
X025525Y004043D01*
X025573Y003995D01*
X025622Y003995D01*
X025670Y004043D01*
X025670Y004140D01*
X025718Y004188D01*
X025767Y004188D01*
X025815Y004140D01*
X025815Y004043D01*
X025767Y003995D01*
X025573Y004188D02*
X025525Y004140D01*
X025573Y004290D02*
X025767Y004290D01*
X025815Y004338D01*
X025815Y004435D01*
X025767Y004483D01*
X025815Y004584D02*
X025815Y004778D01*
X025815Y004584D02*
X025525Y004584D01*
X025573Y004483D02*
X025525Y004435D01*
X025525Y004338D01*
X025573Y004290D01*
X026525Y004290D02*
X026525Y004435D01*
X026573Y004483D01*
X026767Y004483D01*
X026815Y004435D01*
X026815Y004290D01*
X026525Y004290D01*
X026573Y004188D02*
X026525Y004140D01*
X026525Y004043D01*
X026573Y003995D01*
X026622Y003995D01*
X026670Y004043D01*
X026670Y004140D01*
X026718Y004188D01*
X026767Y004188D01*
X026815Y004140D01*
X026815Y004043D01*
X026767Y003995D01*
X026815Y004584D02*
X026622Y004584D01*
X026525Y004681D01*
X026622Y004778D01*
X026815Y004778D01*
X026670Y004778D02*
X026670Y004584D01*
X026600Y002755D02*
X026530Y002755D01*
X026495Y002720D01*
X026600Y002755D02*
X026635Y002720D01*
X026635Y002685D01*
X026495Y002545D01*
X026635Y002545D01*
X026716Y002580D02*
X026856Y002720D01*
X026856Y002580D01*
X026821Y002545D01*
X026751Y002545D01*
X026716Y002580D01*
X026716Y002720D01*
X026751Y002755D01*
X026821Y002755D01*
X026856Y002720D01*
X025856Y002545D02*
X025716Y002545D01*
X025786Y002545D02*
X025786Y002755D01*
X025716Y002685D01*
X025635Y002685D02*
X025635Y002720D01*
X025600Y002755D01*
X025530Y002755D01*
X025495Y002720D01*
X025635Y002685D02*
X025495Y002545D01*
X025635Y002545D01*
X040612Y004827D02*
X040673Y004765D01*
X040920Y004765D01*
X040982Y004827D01*
X040982Y004950D01*
X040920Y005012D01*
X040982Y005133D02*
X040982Y005380D01*
X040982Y005257D02*
X040612Y005257D01*
X040735Y005133D01*
X040673Y005012D02*
X040612Y004950D01*
X040612Y004827D01*
X040797Y005502D02*
X040797Y005749D01*
X040982Y005687D02*
X040612Y005687D01*
X040797Y005502D01*
X024565Y016290D02*
X024275Y016290D01*
X024420Y016145D01*
X024420Y016338D01*
X024323Y016440D02*
X024275Y016488D01*
X024275Y016585D01*
X024323Y016633D01*
X024372Y016633D01*
X024565Y016440D01*
X024565Y016633D01*
X024420Y017145D02*
X024420Y017338D01*
X024372Y017440D02*
X024275Y017536D01*
X024565Y017536D01*
X024565Y017440D02*
X024565Y017633D01*
X024565Y017290D02*
X024275Y017290D01*
X024420Y017145D01*
X024420Y018145D02*
X024420Y018338D01*
X024517Y018440D02*
X024323Y018633D01*
X024517Y018633D01*
X024565Y018585D01*
X024565Y018488D01*
X024517Y018440D01*
X024323Y018440D01*
X024275Y018488D01*
X024275Y018585D01*
X024323Y018633D01*
X024323Y019145D02*
X024275Y019193D01*
X024275Y019290D01*
X024323Y019338D01*
X024372Y019338D01*
X024420Y019290D01*
X024468Y019338D01*
X024517Y019338D01*
X024565Y019290D01*
X024565Y019193D01*
X024517Y019145D01*
X024420Y019242D02*
X024420Y019290D01*
X024372Y019440D02*
X024420Y019488D01*
X024420Y019633D01*
X024517Y019633D02*
X024323Y019633D01*
X024275Y019585D01*
X024275Y019488D01*
X024323Y019440D01*
X024372Y019440D01*
X024517Y019440D02*
X024565Y019488D01*
X024565Y019585D01*
X024517Y019633D01*
X024517Y020145D02*
X024565Y020193D01*
X024565Y020290D01*
X024517Y020338D01*
X024468Y020338D01*
X024420Y020290D01*
X024420Y020242D01*
X024420Y020290D02*
X024372Y020338D01*
X024323Y020338D01*
X024275Y020290D01*
X024275Y020193D01*
X024323Y020145D01*
X024323Y020440D02*
X024372Y020440D01*
X024420Y020488D01*
X024420Y020585D01*
X024468Y020633D01*
X024517Y020633D01*
X024565Y020585D01*
X024565Y020488D01*
X024517Y020440D01*
X024468Y020440D01*
X024420Y020488D01*
X024420Y020585D02*
X024372Y020633D01*
X024323Y020633D01*
X024275Y020585D01*
X024275Y020488D01*
X024323Y020440D01*
X024545Y021011D02*
X024545Y021156D01*
X024593Y021205D01*
X024690Y021205D01*
X024738Y021156D01*
X024738Y021011D01*
X024738Y021108D02*
X024835Y021205D01*
X024835Y021306D02*
X024545Y021499D01*
X024593Y021600D02*
X024545Y021649D01*
X024545Y021745D01*
X024593Y021794D01*
X024642Y021794D01*
X024835Y021600D01*
X024835Y021794D01*
X024835Y021499D02*
X024545Y021306D01*
X024545Y021011D02*
X024835Y021011D01*
X025545Y021011D02*
X025545Y021205D01*
X025545Y021108D02*
X025835Y021108D01*
X025835Y021306D02*
X025545Y021499D01*
X025642Y021600D02*
X025545Y021697D01*
X025835Y021697D01*
X025835Y021600D02*
X025835Y021794D01*
X025835Y021499D02*
X025545Y021306D01*
X026545Y021306D02*
X026835Y021499D01*
X026835Y021600D02*
X026835Y021794D01*
X026835Y021697D02*
X026545Y021697D01*
X026642Y021600D01*
X026545Y021499D02*
X026835Y021306D01*
X026835Y021205D02*
X026738Y021108D01*
X026738Y021156D02*
X026738Y021011D01*
X026835Y021011D02*
X026545Y021011D01*
X026545Y021156D01*
X026593Y021205D01*
X026690Y021205D01*
X026738Y021156D01*
X023835Y021108D02*
X023545Y021108D01*
X023545Y021011D02*
X023545Y021205D01*
X023545Y021306D02*
X023835Y021499D01*
X023835Y021600D02*
X023642Y021794D01*
X023593Y021794D01*
X023545Y021745D01*
X023545Y021649D01*
X023593Y021600D01*
X023545Y021499D02*
X023835Y021306D01*
X023835Y021600D02*
X023835Y021794D01*
X022835Y021745D02*
X022835Y021649D01*
X022787Y021600D01*
X022835Y021499D02*
X022545Y021306D01*
X022593Y021205D02*
X022690Y021205D01*
X022738Y021156D01*
X022738Y021011D01*
X022738Y021108D02*
X022835Y021205D01*
X022835Y021306D02*
X022545Y021499D01*
X022593Y021600D02*
X022545Y021649D01*
X022545Y021745D01*
X022593Y021794D01*
X022642Y021794D01*
X022690Y021745D01*
X022738Y021794D01*
X022787Y021794D01*
X022835Y021745D01*
X022690Y021745D02*
X022690Y021697D01*
X022593Y021205D02*
X022545Y021156D01*
X022545Y021011D01*
X022835Y021011D01*
X022065Y020633D02*
X022065Y020440D01*
X021872Y020633D01*
X021823Y020633D01*
X021775Y020585D01*
X021775Y020488D01*
X021823Y020440D01*
X021823Y020338D02*
X021775Y020290D01*
X021775Y020193D01*
X021823Y020145D01*
X021823Y020338D02*
X021872Y020338D01*
X022065Y020145D01*
X022065Y020338D01*
X021835Y021108D02*
X021545Y021108D01*
X021545Y021011D02*
X021545Y021205D01*
X021545Y021306D02*
X021835Y021499D01*
X021787Y021600D02*
X021835Y021649D01*
X021835Y021745D01*
X021787Y021794D01*
X021738Y021794D01*
X021690Y021745D01*
X021690Y021697D01*
X021690Y021745D02*
X021642Y021794D01*
X021593Y021794D01*
X021545Y021745D01*
X021545Y021649D01*
X021593Y021600D01*
X021545Y021499D02*
X021835Y021306D01*
X021015Y021693D02*
X020967Y021645D01*
X021015Y021693D02*
X021015Y021790D01*
X020967Y021838D01*
X020918Y021838D01*
X020870Y021790D01*
X020870Y021693D01*
X020822Y021645D01*
X020773Y021645D01*
X020725Y021693D01*
X020725Y021790D01*
X020773Y021838D01*
X020725Y021940D02*
X021015Y021940D01*
X021015Y022133D01*
X021015Y022234D02*
X020725Y022234D01*
X020725Y022379D01*
X020773Y022428D01*
X020870Y022428D01*
X020918Y022379D01*
X020918Y022234D01*
X020918Y022331D02*
X021015Y022428D01*
X021015Y022529D02*
X021015Y022626D01*
X021015Y022577D02*
X020725Y022577D01*
X020725Y022529D02*
X020725Y022626D01*
X020822Y022725D02*
X020725Y022822D01*
X020822Y022919D01*
X021015Y022919D01*
X021015Y023020D02*
X021015Y023214D01*
X021015Y023020D02*
X020725Y023020D01*
X020870Y022919D02*
X020870Y022725D01*
X020822Y022725D02*
X021015Y022725D01*
X021495Y022995D02*
X021635Y022995D01*
X021565Y022995D02*
X021565Y023205D01*
X021495Y023135D01*
X021716Y023100D02*
X021856Y023100D01*
X021821Y022995D02*
X021821Y023205D01*
X021716Y023100D01*
X022495Y023135D02*
X022565Y023205D01*
X022565Y022995D01*
X022495Y022995D02*
X022635Y022995D01*
X022716Y023030D02*
X022751Y022995D01*
X022821Y022995D01*
X022856Y023030D01*
X022856Y023100D01*
X022821Y023135D01*
X022786Y023135D01*
X022716Y023100D01*
X022716Y023205D01*
X022856Y023205D01*
X023495Y023135D02*
X023565Y023205D01*
X023565Y022995D01*
X023495Y022995D02*
X023635Y022995D01*
X023716Y023030D02*
X023716Y023100D01*
X023821Y023100D01*
X023856Y023065D01*
X023856Y023030D01*
X023821Y022995D01*
X023751Y022995D01*
X023716Y023030D01*
X023716Y023100D02*
X023786Y023170D01*
X023856Y023205D01*
X024495Y023135D02*
X024565Y023205D01*
X024565Y022995D01*
X024495Y022995D02*
X024635Y022995D01*
X024716Y022995D02*
X024716Y023030D01*
X024856Y023170D01*
X024856Y023205D01*
X024716Y023205D01*
X025495Y023135D02*
X025565Y023205D01*
X025565Y022995D01*
X025495Y022995D02*
X025635Y022995D01*
X025716Y023030D02*
X025716Y023065D01*
X025751Y023100D01*
X025821Y023100D01*
X025856Y023065D01*
X025856Y023030D01*
X025821Y022995D01*
X025751Y022995D01*
X025716Y023030D01*
X025751Y023100D02*
X025716Y023135D01*
X025716Y023170D01*
X025751Y023205D01*
X025821Y023205D01*
X025856Y023170D01*
X025856Y023135D01*
X025821Y023100D01*
X026245Y023135D02*
X026315Y023205D01*
X026315Y022995D01*
X026245Y022995D02*
X026385Y022995D01*
X026466Y023030D02*
X026501Y022995D01*
X026571Y022995D01*
X026606Y023030D01*
X026606Y023170D01*
X026571Y023205D01*
X026501Y023205D01*
X026466Y023170D01*
X026466Y023135D01*
X026501Y023100D01*
X026606Y023100D01*
X030125Y023193D02*
X030173Y023145D01*
X030367Y023145D01*
X030415Y023193D01*
X030415Y023290D01*
X030367Y023338D01*
X030415Y023440D02*
X030415Y023633D01*
X030415Y023536D02*
X030125Y023536D01*
X030222Y023440D01*
X030173Y023338D02*
X030125Y023290D01*
X030125Y023193D01*
X030125Y023734D02*
X030270Y023734D01*
X030222Y023831D01*
X030222Y023879D01*
X030270Y023928D01*
X030367Y023928D01*
X030415Y023879D01*
X030415Y023783D01*
X030367Y023734D01*
X030125Y023734D02*
X030125Y023928D01*
X034445Y023435D02*
X034445Y023145D01*
X034445Y023242D02*
X034590Y023242D01*
X034638Y023290D01*
X034638Y023387D01*
X034590Y023435D01*
X034445Y023435D01*
X034542Y023242D02*
X034638Y023145D01*
X034740Y023145D02*
X034740Y023193D01*
X034933Y023387D01*
X034933Y023435D01*
X034740Y023435D01*
X037442Y023000D02*
X037490Y023048D01*
X037538Y023048D01*
X037587Y023000D01*
X037635Y023048D01*
X037684Y023048D01*
X037732Y023000D01*
X037732Y022903D01*
X037684Y022854D01*
X037732Y022753D02*
X037732Y022560D01*
X037732Y022656D02*
X037442Y022656D01*
X037538Y022560D01*
X037490Y022459D02*
X037442Y022410D01*
X037442Y022313D01*
X037490Y022265D01*
X037684Y022265D01*
X037732Y022313D01*
X037732Y022410D01*
X037684Y022459D01*
X037490Y022854D02*
X037442Y022903D01*
X037442Y023000D01*
X037587Y023000D02*
X037587Y022951D01*
X037590Y024395D02*
X037638Y024443D01*
X037590Y024395D02*
X037493Y024395D01*
X037445Y024443D01*
X037445Y024637D01*
X037493Y024685D01*
X037590Y024685D01*
X037638Y024637D01*
X037740Y024588D02*
X037836Y024685D01*
X037836Y024395D01*
X037740Y024395D02*
X037933Y024395D01*
X037993Y026645D02*
X038090Y026645D01*
X038138Y026693D01*
X038240Y026645D02*
X038433Y026838D01*
X038433Y026887D01*
X038385Y026935D01*
X038288Y026935D01*
X038240Y026887D01*
X038138Y026887D02*
X038090Y026935D01*
X037993Y026935D01*
X037945Y026887D01*
X037945Y026693D01*
X037993Y026645D01*
X038240Y026645D02*
X038433Y026645D01*
X042445Y023435D02*
X042590Y023435D01*
X042638Y023387D01*
X042638Y023290D01*
X042590Y023242D01*
X042445Y023242D01*
X042542Y023242D02*
X042638Y023145D01*
X042740Y023193D02*
X042788Y023145D01*
X042885Y023145D01*
X042933Y023193D01*
X042933Y023387D01*
X042885Y023435D01*
X042788Y023435D01*
X042740Y023387D01*
X042740Y023338D01*
X042788Y023290D01*
X042933Y023290D01*
X042445Y023145D02*
X042445Y023435D01*
X045125Y023081D02*
X045415Y023081D01*
X045415Y022984D02*
X045415Y023178D01*
X045222Y022984D02*
X045125Y023081D01*
X045125Y022786D02*
X045415Y022786D01*
X045415Y022690D02*
X045415Y022883D01*
X045222Y022690D02*
X045125Y022786D01*
X045173Y022588D02*
X045125Y022540D01*
X045125Y022443D01*
X045173Y022395D01*
X045367Y022395D01*
X045415Y022443D01*
X045415Y022540D01*
X045367Y022588D01*
X045340Y024395D02*
X045388Y024443D01*
X045340Y024395D02*
X045243Y024395D01*
X045195Y024443D01*
X045195Y024637D01*
X045243Y024685D01*
X045340Y024685D01*
X045388Y024637D01*
X045490Y024637D02*
X045538Y024685D01*
X045635Y024685D01*
X045683Y024637D01*
X045683Y024588D01*
X045635Y024540D01*
X045683Y024492D01*
X045683Y024443D01*
X045635Y024395D01*
X045538Y024395D01*
X045490Y024443D01*
X045586Y024540D02*
X045635Y024540D01*
X045743Y026645D02*
X045840Y026645D01*
X045888Y026693D01*
X045990Y026790D02*
X046183Y026790D01*
X046135Y026645D02*
X046135Y026935D01*
X045990Y026790D01*
X045888Y026887D02*
X045840Y026935D01*
X045743Y026935D01*
X045695Y026887D01*
X045695Y026693D01*
X045743Y026645D01*
X050195Y023435D02*
X050340Y023435D01*
X050388Y023387D01*
X050388Y023290D01*
X050340Y023242D01*
X050195Y023242D01*
X050292Y023242D02*
X050388Y023145D01*
X050490Y023145D02*
X050683Y023145D01*
X050586Y023145D02*
X050586Y023435D01*
X050490Y023338D01*
X050784Y023338D02*
X050881Y023435D01*
X050881Y023145D01*
X050784Y023145D02*
X050978Y023145D01*
X050195Y023145D02*
X050195Y023435D01*
X052645Y023442D02*
X052790Y023442D01*
X052838Y023490D01*
X052838Y023587D01*
X052790Y023635D01*
X052645Y023635D01*
X052645Y023345D01*
X052742Y023442D02*
X052838Y023345D01*
X052940Y023345D02*
X053133Y023538D01*
X053133Y023587D01*
X053085Y023635D01*
X052988Y023635D01*
X052940Y023587D01*
X052940Y023345D02*
X053133Y023345D01*
X053692Y023250D02*
X053692Y023153D01*
X053740Y023104D01*
X053692Y023250D02*
X053740Y023298D01*
X053788Y023298D01*
X053982Y023104D01*
X053982Y023298D01*
X053982Y023003D02*
X053982Y022810D01*
X053982Y022906D02*
X053692Y022906D01*
X053788Y022810D01*
X053740Y022709D02*
X053692Y022660D01*
X053692Y022563D01*
X053740Y022515D01*
X053934Y022515D01*
X053982Y022563D01*
X053982Y022660D01*
X053934Y022709D01*
X053840Y024395D02*
X053888Y024443D01*
X053840Y024395D02*
X053743Y024395D01*
X053695Y024443D01*
X053695Y024637D01*
X053743Y024685D01*
X053840Y024685D01*
X053888Y024637D01*
X053990Y024685D02*
X053990Y024540D01*
X054086Y024588D01*
X054135Y024588D01*
X054183Y024540D01*
X054183Y024443D01*
X054135Y024395D01*
X054038Y024395D01*
X053990Y024443D01*
X053990Y024685D02*
X054183Y024685D01*
X054243Y026645D02*
X054340Y026645D01*
X054388Y026693D01*
X054490Y026693D02*
X054538Y026645D01*
X054635Y026645D01*
X054683Y026693D01*
X054683Y026887D01*
X054635Y026935D01*
X054538Y026935D01*
X054490Y026887D01*
X054490Y026838D01*
X054538Y026790D01*
X054683Y026790D01*
X054388Y026887D02*
X054340Y026935D01*
X054243Y026935D01*
X054195Y026887D01*
X054195Y026693D01*
X054243Y026645D01*
X051045Y021115D02*
X051094Y021067D01*
X050900Y020873D01*
X050949Y020825D01*
X051045Y020825D01*
X051094Y020873D01*
X051094Y021067D01*
X051045Y021115D02*
X050949Y021115D01*
X050900Y021067D01*
X050900Y020873D01*
X050799Y020825D02*
X050606Y020825D01*
X050702Y020825D02*
X050702Y021115D01*
X050606Y021018D01*
X050505Y020970D02*
X050456Y020922D01*
X050311Y020922D01*
X050408Y020922D02*
X050505Y020825D01*
X050505Y020970D02*
X050505Y021067D01*
X050456Y021115D01*
X050311Y021115D01*
X050311Y020825D01*
X043344Y020873D02*
X043295Y020825D01*
X043199Y020825D01*
X043150Y020873D01*
X043150Y020922D01*
X043199Y020970D01*
X043295Y020970D01*
X043344Y020922D01*
X043344Y020873D01*
X043295Y020970D02*
X043344Y021018D01*
X043344Y021067D01*
X043295Y021115D01*
X043199Y021115D01*
X043150Y021067D01*
X043150Y021018D01*
X043199Y020970D01*
X043049Y020970D02*
X043001Y020922D01*
X042856Y020922D01*
X042952Y020922D02*
X043049Y020825D01*
X043049Y020970D02*
X043049Y021067D01*
X043001Y021115D01*
X042856Y021115D01*
X042856Y020825D01*
X035344Y020873D02*
X035295Y020825D01*
X035199Y020825D01*
X035150Y020873D01*
X035150Y020970D01*
X035295Y020970D01*
X035344Y020922D01*
X035344Y020873D01*
X035247Y021067D02*
X035150Y020970D01*
X035049Y020970D02*
X035001Y020922D01*
X034856Y020922D01*
X034952Y020922D02*
X035049Y020825D01*
X035049Y020970D02*
X035049Y021067D01*
X035001Y021115D01*
X034856Y021115D01*
X034856Y020825D01*
X035247Y021067D02*
X035344Y021115D01*
X024565Y018290D02*
X024275Y018290D01*
X024420Y018145D01*
X022065Y018145D02*
X021872Y018338D01*
X021823Y018338D01*
X021775Y018290D01*
X021775Y018193D01*
X021823Y018145D01*
X022065Y018145D02*
X022065Y018338D01*
X021920Y018440D02*
X021920Y018633D01*
X022065Y018585D02*
X021775Y018585D01*
X021920Y018440D01*
X021823Y019145D02*
X021775Y019193D01*
X021775Y019290D01*
X021823Y019338D01*
X021872Y019338D01*
X022065Y019145D01*
X022065Y019338D01*
X022017Y019440D02*
X022065Y019488D01*
X022065Y019585D01*
X022017Y019633D01*
X021968Y019633D01*
X021920Y019585D01*
X021920Y019536D01*
X021920Y019585D02*
X021872Y019633D01*
X021823Y019633D01*
X021775Y019585D01*
X021775Y019488D01*
X021823Y019440D01*
X021775Y017633D02*
X021775Y017440D01*
X021920Y017440D01*
X021872Y017536D01*
X021872Y017585D01*
X021920Y017633D01*
X022017Y017633D01*
X022065Y017585D01*
X022065Y017488D01*
X022017Y017440D01*
X022065Y017338D02*
X022065Y017145D01*
X021872Y017338D01*
X021823Y017338D01*
X021775Y017290D01*
X021775Y017193D01*
X021823Y017145D01*
X018985Y017149D02*
X018937Y017100D01*
X018985Y017149D02*
X018985Y017245D01*
X018937Y017294D01*
X018840Y017294D01*
X018792Y017245D01*
X018792Y017197D01*
X018840Y017100D01*
X018695Y017100D01*
X018695Y017294D01*
X018743Y016999D02*
X018695Y016951D01*
X018695Y016806D01*
X018985Y016806D01*
X018985Y016951D01*
X018937Y016999D01*
X018743Y016999D01*
X018695Y016705D02*
X018695Y016511D01*
X018985Y016511D01*
X018985Y016705D01*
X018840Y016608D02*
X018840Y016511D01*
X018985Y016410D02*
X018985Y016216D01*
X018695Y016216D01*
X017485Y016216D02*
X017485Y016410D01*
X017485Y016511D02*
X017485Y016705D01*
X017485Y016806D02*
X017485Y016951D01*
X017437Y016999D01*
X017243Y016999D01*
X017195Y016951D01*
X017195Y016806D01*
X017485Y016806D01*
X017340Y016608D02*
X017340Y016511D01*
X017195Y016511D02*
X017485Y016511D01*
X017195Y016511D02*
X017195Y016705D01*
X017340Y017100D02*
X017340Y017294D01*
X017485Y017245D02*
X017195Y017245D01*
X017340Y017100D01*
X017195Y016216D02*
X017485Y016216D01*
X015485Y016216D02*
X015485Y016410D01*
X015485Y016511D02*
X015485Y016705D01*
X015485Y016806D02*
X015485Y016951D01*
X015437Y016999D01*
X015243Y016999D01*
X015195Y016951D01*
X015195Y016806D01*
X015485Y016806D01*
X015340Y016608D02*
X015340Y016511D01*
X015195Y016511D02*
X015485Y016511D01*
X015195Y016511D02*
X015195Y016705D01*
X015292Y017100D02*
X015195Y017197D01*
X015485Y017197D01*
X015485Y017100D02*
X015485Y017294D01*
X015485Y016216D02*
X015195Y016216D01*
X013415Y016145D02*
X013415Y016338D01*
X013415Y016440D02*
X013415Y016633D01*
X013415Y016734D02*
X013415Y016879D01*
X013367Y016928D01*
X013173Y016928D01*
X013125Y016879D01*
X013125Y016734D01*
X013415Y016734D01*
X013270Y016536D02*
X013270Y016440D01*
X013125Y016440D02*
X013415Y016440D01*
X013125Y016440D02*
X013125Y016633D01*
X013173Y017029D02*
X013125Y017077D01*
X013125Y017174D01*
X013173Y017222D01*
X013222Y017222D01*
X013270Y017174D01*
X013318Y017222D01*
X013367Y017222D01*
X013415Y017174D01*
X013415Y017077D01*
X013367Y017029D01*
X013270Y017126D02*
X013270Y017174D01*
X013125Y016145D02*
X013415Y016145D01*
X010735Y016966D02*
X010735Y017160D01*
X010735Y017261D02*
X010445Y017261D01*
X010445Y017455D01*
X010445Y017556D02*
X010445Y017701D01*
X010493Y017749D01*
X010687Y017749D01*
X010735Y017701D01*
X010735Y017556D01*
X010445Y017556D01*
X010590Y017358D02*
X010590Y017261D01*
X010735Y017261D02*
X010735Y017455D01*
X010735Y016966D02*
X010445Y016966D01*
X010493Y017850D02*
X010445Y017899D01*
X010445Y017995D01*
X010493Y018044D01*
X010542Y018044D01*
X010735Y017850D01*
X010735Y018044D01*
X011861Y018625D02*
X011861Y018915D01*
X012006Y018915D01*
X012055Y018867D01*
X012055Y018770D01*
X012006Y018722D01*
X011861Y018722D01*
X011958Y018722D02*
X012055Y018625D01*
X012156Y018625D02*
X012349Y018625D01*
X012252Y018625D02*
X012252Y018915D01*
X012156Y018818D01*
X012450Y018867D02*
X012499Y018915D01*
X012595Y018915D01*
X012644Y018867D01*
X012644Y018818D01*
X012450Y018625D01*
X012644Y018625D01*
X013925Y018845D02*
X013925Y018990D01*
X013973Y019038D01*
X014070Y019038D01*
X014118Y018990D01*
X014118Y018845D01*
X014118Y018942D02*
X014215Y019038D01*
X014215Y019140D02*
X014215Y019333D01*
X014215Y019236D02*
X013925Y019236D01*
X014022Y019140D01*
X013973Y019434D02*
X013925Y019483D01*
X013925Y019579D01*
X013973Y019628D01*
X014022Y019628D01*
X014070Y019579D01*
X014118Y019628D01*
X014167Y019628D01*
X014215Y019579D01*
X014215Y019483D01*
X014167Y019434D01*
X014070Y019531D02*
X014070Y019579D01*
X014215Y018845D02*
X013925Y018845D01*
X015925Y018845D02*
X015925Y018990D01*
X015973Y019038D01*
X016070Y019038D01*
X016118Y018990D01*
X016118Y018845D01*
X016118Y018942D02*
X016215Y019038D01*
X016215Y019140D02*
X016215Y019333D01*
X016215Y019236D02*
X015925Y019236D01*
X016022Y019140D01*
X016070Y019434D02*
X016070Y019628D01*
X016215Y019579D02*
X015925Y019579D01*
X016070Y019434D01*
X016215Y018845D02*
X015925Y018845D01*
X017425Y018845D02*
X017425Y018990D01*
X017473Y019038D01*
X017570Y019038D01*
X017618Y018990D01*
X017618Y018845D01*
X017618Y018942D02*
X017715Y019038D01*
X017715Y019140D02*
X017715Y019333D01*
X017715Y019236D02*
X017425Y019236D01*
X017522Y019140D01*
X017425Y018845D02*
X017715Y018845D01*
X020725Y021940D02*
X020725Y022133D01*
X020870Y022036D02*
X020870Y021940D01*
X005078Y020687D02*
X005078Y020493D01*
X005029Y020445D01*
X004884Y020445D01*
X004884Y020735D01*
X005029Y020735D01*
X005078Y020687D01*
X004783Y020735D02*
X004783Y020445D01*
X004590Y020735D01*
X004590Y020445D01*
X004488Y020493D02*
X004488Y020590D01*
X004392Y020590D01*
X004488Y020493D02*
X004440Y020445D01*
X004343Y020445D01*
X004295Y020493D01*
X004295Y020687D01*
X004343Y020735D01*
X004440Y020735D01*
X004488Y020687D01*
X003835Y020600D02*
X003545Y020600D01*
X003545Y020794D01*
X003690Y020697D02*
X003690Y020600D01*
X003835Y020499D02*
X003835Y020306D01*
X003545Y020306D01*
X003545Y020499D01*
X003690Y020402D02*
X003690Y020306D01*
X003690Y020205D02*
X003738Y020156D01*
X003738Y020011D01*
X003738Y020108D02*
X003835Y020205D01*
X003690Y020205D02*
X003593Y020205D01*
X003545Y020156D01*
X003545Y020011D01*
X003835Y020011D01*
X003835Y019910D02*
X003642Y019910D01*
X003545Y019813D01*
X003642Y019716D01*
X003835Y019716D01*
X003690Y019716D02*
X003690Y019910D01*
X008692Y013548D02*
X008740Y013548D01*
X008934Y013354D01*
X008982Y013354D01*
X008982Y013253D02*
X008982Y013060D01*
X008982Y013156D02*
X008692Y013156D01*
X008788Y013060D01*
X008740Y012959D02*
X008692Y012910D01*
X008692Y012813D01*
X008740Y012765D01*
X008934Y012765D01*
X008982Y012813D01*
X008982Y012910D01*
X008934Y012959D01*
X008692Y013354D02*
X008692Y013548D01*
X007665Y013379D02*
X007617Y013428D01*
X007568Y013428D01*
X007520Y013379D01*
X007520Y013234D01*
X007617Y013234D01*
X007665Y013283D01*
X007665Y013379D01*
X007520Y013234D02*
X007423Y013331D01*
X007375Y013428D01*
X007375Y013036D02*
X007665Y013036D01*
X007665Y012940D02*
X007665Y013133D01*
X007472Y012940D02*
X007375Y013036D01*
X007423Y012838D02*
X007375Y012790D01*
X007375Y012693D01*
X007423Y012645D01*
X007617Y012645D01*
X007665Y012693D01*
X007665Y012790D01*
X007617Y012838D01*
D11*
X007870Y012750D02*
X007870Y013510D01*
X008490Y013510D02*
X008490Y012750D01*
X009135Y012530D02*
X009135Y013730D01*
X009725Y013730D02*
X009725Y012530D01*
X014522Y016250D02*
X014526Y016274D01*
X014532Y016296D01*
X014543Y016318D01*
X014556Y016338D01*
X014572Y016355D01*
X014590Y016370D01*
X014611Y016382D01*
X014633Y016391D01*
X014656Y016396D01*
X014680Y016398D01*
X014704Y016396D01*
X014727Y016391D01*
X014749Y016382D01*
X014770Y016370D01*
X014788Y016355D01*
X014804Y016338D01*
X014817Y016318D01*
X014828Y016296D01*
X014834Y016274D01*
X014838Y016250D01*
X014858Y016319D02*
X014860Y016331D01*
X014865Y016342D01*
X014874Y016351D01*
X014885Y016356D01*
X014897Y016358D01*
X014909Y016356D01*
X014920Y016351D01*
X014929Y016342D01*
X014934Y016331D01*
X014936Y016319D01*
X014934Y016307D01*
X014929Y016296D01*
X014920Y016287D01*
X014909Y016282D01*
X014897Y016280D01*
X014885Y016282D01*
X014874Y016287D01*
X014865Y016296D01*
X014860Y016307D01*
X014858Y016319D01*
X014995Y016506D02*
X014995Y017254D01*
X014365Y017254D02*
X014365Y016506D01*
X012745Y016756D02*
X012745Y017504D01*
X012588Y017760D02*
X012584Y017736D01*
X012578Y017714D01*
X012567Y017692D01*
X012554Y017672D01*
X012538Y017655D01*
X012520Y017640D01*
X012499Y017628D01*
X012477Y017619D01*
X012454Y017614D01*
X012430Y017612D01*
X012406Y017614D01*
X012383Y017619D01*
X012361Y017628D01*
X012340Y017640D01*
X012322Y017655D01*
X012306Y017672D01*
X012293Y017692D01*
X012282Y017714D01*
X012276Y017736D01*
X012272Y017760D01*
X012174Y017691D02*
X012176Y017703D01*
X012181Y017714D01*
X012190Y017723D01*
X012201Y017728D01*
X012213Y017730D01*
X012225Y017728D01*
X012236Y017723D01*
X012245Y017714D01*
X012250Y017703D01*
X012252Y017691D01*
X012250Y017679D01*
X012245Y017668D01*
X012236Y017659D01*
X012225Y017654D01*
X012213Y017652D01*
X012201Y017654D01*
X012190Y017659D01*
X012181Y017668D01*
X012176Y017679D01*
X012174Y017691D01*
X012115Y017504D02*
X012115Y016756D01*
X011745Y016756D02*
X011745Y017504D01*
X011115Y017504D02*
X011115Y016756D01*
X011272Y016500D02*
X011276Y016524D01*
X011282Y016546D01*
X011293Y016568D01*
X011306Y016588D01*
X011322Y016605D01*
X011340Y016620D01*
X011361Y016632D01*
X011383Y016641D01*
X011406Y016646D01*
X011430Y016648D01*
X011454Y016646D01*
X011477Y016641D01*
X011499Y016632D01*
X011520Y016620D01*
X011538Y016605D01*
X011554Y016588D01*
X011567Y016568D01*
X011578Y016546D01*
X011584Y016524D01*
X011588Y016500D01*
X011608Y016569D02*
X011610Y016581D01*
X011615Y016592D01*
X011624Y016601D01*
X011635Y016606D01*
X011647Y016608D01*
X011659Y016606D01*
X011670Y016601D01*
X011679Y016592D01*
X011684Y016581D01*
X011686Y016569D01*
X011684Y016557D01*
X011679Y016546D01*
X011670Y016537D01*
X011659Y016532D01*
X011647Y016530D01*
X011635Y016532D01*
X011624Y016537D01*
X011615Y016546D01*
X011610Y016557D01*
X011608Y016569D01*
X016365Y016506D02*
X016365Y017254D01*
X016995Y017254D02*
X016995Y016506D01*
X016858Y016319D02*
X016860Y016331D01*
X016865Y016342D01*
X016874Y016351D01*
X016885Y016356D01*
X016897Y016358D01*
X016909Y016356D01*
X016920Y016351D01*
X016929Y016342D01*
X016934Y016331D01*
X016936Y016319D01*
X016934Y016307D01*
X016929Y016296D01*
X016920Y016287D01*
X016909Y016282D01*
X016897Y016280D01*
X016885Y016282D01*
X016874Y016287D01*
X016865Y016296D01*
X016860Y016307D01*
X016858Y016319D01*
X016838Y016250D02*
X016834Y016274D01*
X016828Y016296D01*
X016817Y016318D01*
X016804Y016338D01*
X016788Y016355D01*
X016770Y016370D01*
X016749Y016382D01*
X016727Y016391D01*
X016704Y016396D01*
X016680Y016398D01*
X016656Y016396D01*
X016633Y016391D01*
X016611Y016382D01*
X016590Y016370D01*
X016572Y016355D01*
X016556Y016338D01*
X016543Y016318D01*
X016532Y016296D01*
X016526Y016274D01*
X016522Y016250D01*
X017865Y016506D02*
X017865Y017254D01*
X018495Y017254D02*
X018495Y016506D01*
X018358Y016319D02*
X018360Y016331D01*
X018365Y016342D01*
X018374Y016351D01*
X018385Y016356D01*
X018397Y016358D01*
X018409Y016356D01*
X018420Y016351D01*
X018429Y016342D01*
X018434Y016331D01*
X018436Y016319D01*
X018434Y016307D01*
X018429Y016296D01*
X018420Y016287D01*
X018409Y016282D01*
X018397Y016280D01*
X018385Y016282D01*
X018374Y016287D01*
X018365Y016296D01*
X018360Y016307D01*
X018358Y016319D01*
X018338Y016250D02*
X018334Y016274D01*
X018328Y016296D01*
X018317Y016318D01*
X018304Y016338D01*
X018288Y016355D01*
X018270Y016370D01*
X018249Y016382D01*
X018227Y016391D01*
X018204Y016396D01*
X018180Y016398D01*
X018156Y016396D01*
X018133Y016391D01*
X018111Y016382D01*
X018090Y016370D01*
X018072Y016355D01*
X018056Y016338D01*
X018043Y016318D01*
X018032Y016296D01*
X018026Y016274D01*
X018022Y016250D01*
X017790Y020400D02*
X017550Y020400D01*
X017790Y020640D01*
X017790Y020700D01*
X017730Y020760D01*
X017610Y020760D01*
X017550Y020700D01*
X018550Y020640D02*
X018670Y020760D01*
X018670Y020400D01*
X018550Y020400D02*
X018790Y020400D01*
X019550Y020460D02*
X019550Y020700D01*
X019610Y020760D01*
X019730Y020760D01*
X019790Y020700D01*
X019550Y020460D01*
X019610Y020400D01*
X019730Y020400D01*
X019790Y020460D01*
X019790Y020700D01*
X016790Y020700D02*
X016790Y020640D01*
X016730Y020580D01*
X016790Y020520D01*
X016790Y020460D01*
X016730Y020400D01*
X016610Y020400D01*
X016550Y020460D01*
X016670Y020580D02*
X016730Y020580D01*
X016790Y020700D02*
X016730Y020760D01*
X016610Y020760D01*
X016550Y020700D01*
X015790Y020580D02*
X015550Y020580D01*
X015730Y020760D01*
X015730Y020400D01*
X014790Y020460D02*
X014790Y020580D01*
X014730Y020640D01*
X014670Y020640D01*
X014550Y020580D01*
X014550Y020760D01*
X014790Y020760D01*
X014790Y020460D02*
X014730Y020400D01*
X014610Y020400D01*
X014550Y020460D01*
X013790Y020460D02*
X013790Y020520D01*
X013730Y020580D01*
X013550Y020580D01*
X013550Y020460D01*
X013610Y020400D01*
X013730Y020400D01*
X013790Y020460D01*
X013670Y020700D02*
X013550Y020580D01*
X013670Y020700D02*
X013790Y020760D01*
X012790Y020760D02*
X012790Y020700D01*
X012550Y020460D01*
X012550Y020400D01*
X012550Y020760D02*
X012790Y020760D01*
X010790Y020700D02*
X010790Y020640D01*
X010730Y020580D01*
X010610Y020580D01*
X010550Y020640D01*
X010550Y020700D01*
X010610Y020760D01*
X010730Y020760D01*
X010790Y020700D01*
X010730Y020580D02*
X010790Y020520D01*
X010790Y020460D01*
X010730Y020400D01*
X010610Y020400D01*
X010550Y020460D01*
X010550Y020520D01*
X010610Y020580D01*
X009790Y020580D02*
X009610Y020580D01*
X009550Y020640D01*
X009550Y020700D01*
X009610Y020760D01*
X009730Y020760D01*
X009790Y020700D01*
X009790Y020460D01*
X009730Y020400D01*
X009610Y020400D01*
X009550Y020460D01*
X008790Y020400D02*
X008550Y020400D01*
X008610Y020310D02*
X008730Y020310D01*
X008790Y020250D01*
X008550Y020010D01*
X008610Y019950D01*
X008730Y019950D01*
X008790Y020010D01*
X008790Y020250D01*
X008610Y020310D02*
X008550Y020250D01*
X008550Y020010D01*
X008670Y020400D02*
X008670Y020760D01*
X008550Y020640D01*
X007790Y020400D02*
X007550Y020400D01*
X007670Y020400D02*
X007670Y020760D01*
X007550Y020640D01*
X007670Y020310D02*
X007670Y019950D01*
X007550Y019950D02*
X007790Y019950D01*
X007550Y020190D02*
X007670Y020310D01*
X006790Y020250D02*
X006730Y020310D01*
X006610Y020310D01*
X006550Y020250D01*
X006550Y020400D02*
X006790Y020400D01*
X006670Y020400D02*
X006670Y020760D01*
X006550Y020640D01*
X005790Y020400D02*
X005550Y020400D01*
X005610Y020310D02*
X005730Y020310D01*
X005790Y020250D01*
X005790Y020190D01*
X005730Y020130D01*
X005790Y020070D01*
X005790Y020010D01*
X005730Y019950D01*
X005610Y019950D01*
X005550Y020010D01*
X005670Y020130D02*
X005730Y020130D01*
X005550Y020250D02*
X005610Y020310D01*
X005670Y020400D02*
X005670Y020760D01*
X005550Y020640D01*
X006550Y019950D02*
X006790Y020190D01*
X006790Y020250D01*
X006790Y019950D02*
X006550Y019950D01*
X006670Y025600D02*
X006550Y025720D01*
X006670Y025840D01*
X006910Y025840D01*
X006910Y025968D02*
X006670Y026209D01*
X006610Y026209D01*
X006550Y026148D01*
X006550Y026028D01*
X006610Y025968D01*
X006730Y025840D02*
X006730Y025600D01*
X006670Y025600D02*
X006910Y025600D01*
X007550Y025720D02*
X007670Y025840D01*
X007910Y025840D01*
X007910Y025968D02*
X007910Y026209D01*
X007910Y026088D02*
X007550Y026088D01*
X007670Y025968D01*
X007730Y025840D02*
X007730Y025600D01*
X007670Y025600D02*
X007550Y025720D01*
X007670Y025600D02*
X007910Y025600D01*
X008550Y025720D02*
X008670Y025840D01*
X008910Y025840D01*
X008850Y025968D02*
X008610Y026209D01*
X008850Y026209D01*
X008910Y026148D01*
X008910Y026028D01*
X008850Y025968D01*
X008610Y025968D01*
X008550Y026028D01*
X008550Y026148D01*
X008610Y026209D01*
X008730Y025840D02*
X008730Y025600D01*
X008670Y025600D02*
X008550Y025720D01*
X008670Y025600D02*
X008910Y025600D01*
X006910Y025968D02*
X006910Y026209D01*
X005910Y026148D02*
X005550Y026148D01*
X005730Y025968D01*
X005730Y026209D01*
X005730Y025840D02*
X005730Y025600D01*
X005670Y025600D02*
X005550Y025720D01*
X005670Y025840D01*
X005910Y025840D01*
X005910Y025600D02*
X005670Y025600D01*
X018800Y025017D02*
X018860Y025077D01*
X019100Y024837D01*
X019160Y024897D01*
X019160Y025017D01*
X019100Y025077D01*
X018860Y025077D01*
X018800Y025017D02*
X018800Y024897D01*
X018860Y024837D01*
X019100Y024837D01*
X019160Y024709D02*
X018800Y024468D01*
X018800Y024340D02*
X018800Y024100D01*
X018800Y024220D02*
X019160Y024220D01*
X019160Y024468D02*
X018800Y024709D01*
X019600Y024709D02*
X019960Y024468D01*
X019960Y024340D02*
X019840Y024220D01*
X019840Y024280D02*
X019840Y024100D01*
X019960Y024100D02*
X019600Y024100D01*
X019600Y024280D01*
X019660Y024340D01*
X019780Y024340D01*
X019840Y024280D01*
X019600Y024468D02*
X019960Y024709D01*
X019900Y024837D02*
X019660Y024837D01*
X019600Y024897D01*
X019600Y025017D01*
X019660Y025077D01*
X019900Y024837D01*
X019960Y024897D01*
X019960Y025017D01*
X019900Y025077D01*
X019660Y025077D01*
X030620Y024010D02*
X030620Y023250D01*
X031240Y023250D02*
X031240Y024010D01*
X032800Y026850D02*
X033040Y026850D01*
X033160Y026970D01*
X033040Y027090D01*
X032800Y027090D01*
X032860Y027218D02*
X033100Y027218D01*
X033160Y027278D01*
X033160Y027398D01*
X033100Y027459D01*
X032860Y027459D01*
X032800Y027398D01*
X032800Y027278D01*
X032860Y027218D01*
X033800Y027218D02*
X033800Y027459D01*
X033800Y027587D02*
X033800Y027827D01*
X033980Y027707D02*
X033980Y027587D01*
X034160Y027587D02*
X033800Y027587D01*
X033980Y027338D02*
X033980Y027218D01*
X033980Y027090D02*
X034040Y027030D01*
X034040Y026850D01*
X034160Y026850D02*
X033800Y026850D01*
X033800Y027030D01*
X033860Y027090D01*
X033980Y027090D01*
X034040Y026970D02*
X034160Y027090D01*
X034160Y027218D02*
X034160Y027459D01*
X034160Y027218D02*
X033800Y027218D01*
X034800Y027338D02*
X034920Y027218D01*
X034980Y027090D02*
X034980Y026850D01*
X034860Y026970D02*
X035100Y026970D01*
X035160Y027218D02*
X035160Y027459D01*
X035160Y027338D02*
X034800Y027338D01*
X034860Y027587D02*
X034800Y027647D01*
X034800Y027767D01*
X034860Y027827D01*
X035100Y027587D01*
X035160Y027647D01*
X035160Y027767D01*
X035100Y027827D01*
X034860Y027827D01*
X034860Y027587D02*
X035100Y027587D01*
X035800Y027647D02*
X035800Y027767D01*
X035860Y027827D01*
X036100Y027587D01*
X036160Y027647D01*
X036160Y027767D01*
X036100Y027827D01*
X035860Y027827D01*
X035800Y027647D02*
X035860Y027587D01*
X036100Y027587D01*
X036160Y027459D02*
X036160Y027218D01*
X036160Y027338D02*
X035800Y027338D01*
X035920Y027218D01*
X035980Y027090D02*
X035980Y026850D01*
X038050Y026440D02*
X038810Y026440D01*
X038810Y025820D02*
X038050Y025820D01*
X038050Y025440D02*
X038810Y025440D01*
X038810Y024820D02*
X038050Y024820D01*
X037885Y023480D02*
X037885Y022280D01*
X038475Y022280D02*
X038475Y023480D01*
X040800Y026850D02*
X041040Y026850D01*
X041160Y026970D01*
X041040Y027090D01*
X040800Y027090D01*
X040860Y027218D02*
X041100Y027218D01*
X041160Y027278D01*
X041160Y027398D01*
X041100Y027459D01*
X040860Y027459D01*
X040800Y027398D01*
X040800Y027278D01*
X040860Y027218D01*
X041800Y027218D02*
X042160Y027218D01*
X042160Y027459D01*
X042160Y027587D02*
X041800Y027587D01*
X041800Y027827D01*
X041980Y027707D02*
X041980Y027587D01*
X041800Y027459D02*
X041800Y027218D01*
X041860Y027090D02*
X041980Y027090D01*
X042040Y027030D01*
X042040Y026850D01*
X042160Y026850D02*
X041800Y026850D01*
X041800Y027030D01*
X041860Y027090D01*
X041980Y027218D02*
X041980Y027338D01*
X042160Y027090D02*
X042040Y026970D01*
X042860Y026970D02*
X043100Y026970D01*
X042980Y026850D02*
X042980Y027090D01*
X042920Y027218D02*
X042800Y027338D01*
X043160Y027338D01*
X043160Y027218D02*
X043160Y027459D01*
X043100Y027587D02*
X042860Y027827D01*
X043100Y027827D01*
X043160Y027767D01*
X043160Y027647D01*
X043100Y027587D01*
X042860Y027587D01*
X042800Y027647D01*
X042800Y027767D01*
X042860Y027827D01*
X043800Y027767D02*
X043860Y027827D01*
X044100Y027587D01*
X044160Y027647D01*
X044160Y027767D01*
X044100Y027827D01*
X043860Y027827D01*
X043800Y027767D02*
X043800Y027647D01*
X043860Y027587D01*
X044100Y027587D01*
X044160Y027459D02*
X044160Y027218D01*
X044160Y027338D02*
X043800Y027338D01*
X043920Y027218D01*
X043980Y027090D02*
X043980Y026850D01*
X045800Y026440D02*
X046560Y026440D01*
X046560Y025820D02*
X045800Y025820D01*
X045800Y025440D02*
X046560Y025440D01*
X046560Y024820D02*
X045800Y024820D01*
X045620Y023260D02*
X045620Y022500D01*
X046240Y022500D02*
X046240Y023260D01*
X048550Y026850D02*
X048790Y026850D01*
X048910Y026970D01*
X048790Y027090D01*
X048550Y027090D01*
X048610Y027218D02*
X048850Y027218D01*
X048910Y027278D01*
X048910Y027398D01*
X048850Y027459D01*
X048610Y027459D01*
X048550Y027398D01*
X048550Y027278D01*
X048610Y027218D01*
X049550Y027218D02*
X049550Y027459D01*
X049550Y027587D02*
X049550Y027827D01*
X049730Y027707D02*
X049730Y027587D01*
X049910Y027587D02*
X049550Y027587D01*
X049730Y027338D02*
X049730Y027218D01*
X049730Y027090D02*
X049790Y027030D01*
X049790Y026850D01*
X049910Y026850D02*
X049550Y026850D01*
X049550Y027030D01*
X049610Y027090D01*
X049730Y027090D01*
X049790Y026970D02*
X049910Y027090D01*
X049910Y027218D02*
X049910Y027459D01*
X049910Y027218D02*
X049550Y027218D01*
X050550Y027338D02*
X050670Y027218D01*
X050730Y027090D02*
X050730Y026850D01*
X050610Y026970D02*
X050850Y026970D01*
X050910Y027218D02*
X050910Y027459D01*
X050910Y027338D02*
X050550Y027338D01*
X050610Y027587D02*
X050550Y027647D01*
X050550Y027767D01*
X050610Y027827D01*
X050850Y027587D01*
X050910Y027647D01*
X050910Y027767D01*
X050850Y027827D01*
X050610Y027827D01*
X050610Y027587D02*
X050850Y027587D01*
X051550Y027647D02*
X051550Y027767D01*
X051610Y027827D01*
X051850Y027587D01*
X051910Y027647D01*
X051910Y027767D01*
X051850Y027827D01*
X051610Y027827D01*
X051550Y027647D02*
X051610Y027587D01*
X051850Y027587D01*
X051910Y027459D02*
X051910Y027218D01*
X051910Y027338D02*
X051550Y027338D01*
X051670Y027218D01*
X051730Y027090D02*
X051730Y026850D01*
X054300Y026440D02*
X055060Y026440D01*
X055060Y025820D02*
X054300Y025820D01*
X054300Y025440D02*
X055060Y025440D01*
X055060Y024820D02*
X054300Y024820D01*
X054135Y023730D02*
X054135Y022530D01*
X054725Y022530D02*
X054725Y023730D01*
X049960Y019182D02*
X049883Y019259D01*
X049807Y019259D01*
X049730Y019182D01*
X049730Y018952D01*
X049883Y018952D01*
X049960Y019029D01*
X049960Y019182D01*
X049730Y018952D02*
X049576Y019105D01*
X049500Y019259D01*
X049500Y018798D02*
X049576Y018798D01*
X049883Y018492D01*
X049960Y018492D01*
X049883Y018338D02*
X049960Y018261D01*
X049960Y018108D01*
X049883Y018031D01*
X049730Y018185D02*
X049730Y018261D01*
X049807Y018338D01*
X049883Y018338D01*
X049730Y018261D02*
X049653Y018338D01*
X049576Y018338D01*
X049500Y018261D01*
X049500Y018108D01*
X049576Y018031D01*
X049576Y017878D02*
X049883Y017571D01*
X049960Y017571D01*
X049883Y017417D02*
X049576Y017417D01*
X049500Y017341D01*
X049500Y017110D01*
X049960Y017110D01*
X049960Y017341D01*
X049883Y017417D01*
X049500Y017571D02*
X049500Y017878D01*
X049576Y017878D01*
X049160Y017648D02*
X048700Y017648D01*
X048930Y017417D01*
X048930Y017724D01*
X049083Y017264D02*
X049160Y017187D01*
X049160Y017034D01*
X049083Y016957D01*
X048776Y016957D01*
X048700Y017034D01*
X048700Y017187D01*
X048776Y017264D01*
X048700Y016803D02*
X048700Y016650D01*
X048700Y016727D02*
X049160Y016727D01*
X049160Y016803D02*
X049160Y016650D01*
X049500Y016803D02*
X049653Y016957D01*
X049960Y016957D01*
X049730Y016957D02*
X049730Y016650D01*
X049653Y016650D02*
X049500Y016803D01*
X049653Y016650D02*
X049960Y016650D01*
X049500Y018492D02*
X049500Y018798D01*
X042210Y019029D02*
X042210Y019182D01*
X042133Y019259D01*
X042057Y019259D01*
X041980Y019182D01*
X041980Y018952D01*
X042133Y018952D01*
X042210Y019029D01*
X041980Y018952D02*
X041826Y019105D01*
X041750Y019259D01*
X041750Y018798D02*
X041826Y018798D01*
X042133Y018492D01*
X042210Y018492D01*
X042133Y018338D02*
X042210Y018261D01*
X042210Y018108D01*
X042133Y018031D01*
X041980Y018185D02*
X041980Y018261D01*
X042057Y018338D01*
X042133Y018338D01*
X041980Y018261D02*
X041903Y018338D01*
X041826Y018338D01*
X041750Y018261D01*
X041750Y018108D01*
X041826Y018031D01*
X041826Y017878D02*
X042133Y017571D01*
X042210Y017571D01*
X042133Y017417D02*
X041826Y017417D01*
X041750Y017341D01*
X041750Y017110D01*
X042210Y017110D01*
X042210Y017341D01*
X042133Y017417D01*
X041750Y017571D02*
X041750Y017878D01*
X041826Y017878D01*
X041410Y017648D02*
X041410Y017494D01*
X041333Y017417D01*
X041333Y017264D02*
X041410Y017187D01*
X041410Y017034D01*
X041333Y016957D01*
X041026Y016957D01*
X040950Y017034D01*
X040950Y017187D01*
X041026Y017264D01*
X041026Y017417D02*
X040950Y017494D01*
X040950Y017648D01*
X041026Y017724D01*
X041103Y017724D01*
X041180Y017648D01*
X041257Y017724D01*
X041333Y017724D01*
X041410Y017648D01*
X041180Y017648D02*
X041180Y017571D01*
X041903Y016957D02*
X042210Y016957D01*
X041980Y016957D02*
X041980Y016650D01*
X041903Y016650D02*
X041750Y016803D01*
X041903Y016957D01*
X041903Y016650D02*
X042210Y016650D01*
X041410Y016650D02*
X041410Y016803D01*
X041410Y016727D02*
X040950Y016727D01*
X040950Y016803D02*
X040950Y016650D01*
X041750Y018492D02*
X041750Y018798D01*
X034210Y019029D02*
X034210Y019182D01*
X034133Y019259D01*
X034057Y019259D01*
X033980Y019182D01*
X033980Y018952D01*
X034133Y018952D01*
X034210Y019029D01*
X033980Y018952D02*
X033826Y019105D01*
X033750Y019259D01*
X033750Y018798D02*
X033826Y018798D01*
X034133Y018492D01*
X034210Y018492D01*
X034133Y018338D02*
X034210Y018261D01*
X034210Y018108D01*
X034133Y018031D01*
X033980Y018185D02*
X033980Y018261D01*
X034057Y018338D01*
X034133Y018338D01*
X033980Y018261D02*
X033903Y018338D01*
X033826Y018338D01*
X033750Y018261D01*
X033750Y018108D01*
X033826Y018031D01*
X033826Y017878D02*
X033750Y017878D01*
X033750Y017571D01*
X033826Y017417D02*
X033750Y017341D01*
X033750Y017110D01*
X034210Y017110D01*
X034210Y017341D01*
X034133Y017417D01*
X033826Y017417D01*
X034133Y017571D02*
X034210Y017571D01*
X034133Y017571D02*
X033826Y017878D01*
X033410Y017724D02*
X033410Y017417D01*
X033103Y017724D01*
X033026Y017724D01*
X032950Y017648D01*
X032950Y017494D01*
X033026Y017417D01*
X033026Y017264D02*
X032950Y017187D01*
X032950Y017034D01*
X033026Y016957D01*
X033333Y016957D01*
X033410Y017034D01*
X033410Y017187D01*
X033333Y017264D01*
X033750Y016803D02*
X033903Y016957D01*
X034210Y016957D01*
X033980Y016957D02*
X033980Y016650D01*
X033903Y016650D02*
X033750Y016803D01*
X033903Y016650D02*
X034210Y016650D01*
X033410Y016650D02*
X033410Y016803D01*
X033410Y016727D02*
X032950Y016727D01*
X032950Y016803D02*
X032950Y016650D01*
X033750Y018492D02*
X033750Y018798D01*
X028470Y012610D02*
X028547Y012534D01*
X028547Y012457D01*
X028470Y012380D01*
X028547Y012303D01*
X028547Y012227D01*
X028470Y012150D01*
X028316Y012150D01*
X028240Y012227D01*
X028393Y012380D02*
X028470Y012380D01*
X028470Y012610D02*
X028316Y012610D01*
X028240Y012534D01*
X028086Y012610D02*
X027933Y012610D01*
X028009Y012610D02*
X028009Y012227D01*
X027933Y012150D01*
X027856Y012150D01*
X027779Y012227D01*
X027626Y012073D02*
X027319Y012073D01*
X027360Y012200D02*
X027300Y012260D01*
X027300Y012320D01*
X027360Y012380D01*
X027480Y012380D01*
X027540Y012320D01*
X027540Y012260D01*
X027480Y012200D01*
X027360Y012200D01*
X027360Y012380D02*
X027300Y012440D01*
X027300Y012500D01*
X027360Y012560D01*
X027480Y012560D01*
X027540Y012500D01*
X027540Y012440D01*
X027480Y012380D01*
X027165Y012227D02*
X027089Y012150D01*
X026935Y012150D01*
X026858Y012227D01*
X026858Y012534D01*
X026935Y012610D01*
X027089Y012610D01*
X027165Y012534D01*
X026705Y012534D02*
X026628Y012610D01*
X026475Y012610D01*
X026398Y012534D01*
X026398Y012227D01*
X026475Y012150D01*
X026628Y012150D01*
X026705Y012227D01*
X026245Y012303D02*
X026245Y012610D01*
X026245Y012303D02*
X026091Y012150D01*
X025938Y012303D01*
X025938Y012610D01*
X027300Y011500D02*
X027360Y011560D01*
X027480Y011560D01*
X027540Y011500D01*
X027540Y011260D01*
X027480Y011200D01*
X027360Y011200D01*
X027300Y011260D01*
X027360Y011380D02*
X027540Y011380D01*
X027360Y011380D02*
X027300Y011440D01*
X027300Y011500D01*
X027420Y010560D02*
X027420Y010200D01*
X027300Y010200D02*
X027540Y010200D01*
X027668Y010260D02*
X027909Y010500D01*
X027909Y010260D01*
X027848Y010200D01*
X027728Y010200D01*
X027668Y010260D01*
X027668Y010500D01*
X027728Y010560D01*
X027848Y010560D01*
X027909Y010500D01*
X027420Y010560D02*
X027300Y010440D01*
X027420Y009560D02*
X027420Y009200D01*
X027300Y009200D02*
X027540Y009200D01*
X027668Y009200D02*
X027909Y009200D01*
X027788Y009200D02*
X027788Y009560D01*
X027668Y009440D01*
X027420Y009560D02*
X027300Y009440D01*
X027420Y008560D02*
X027420Y008200D01*
X027300Y008200D02*
X027540Y008200D01*
X027668Y008200D02*
X027909Y008440D01*
X027909Y008500D01*
X027848Y008560D01*
X027728Y008560D01*
X027668Y008500D01*
X027420Y008560D02*
X027300Y008440D01*
X027668Y008200D02*
X027909Y008200D01*
X027848Y007560D02*
X027909Y007500D01*
X027909Y007440D01*
X027848Y007380D01*
X027909Y007320D01*
X027909Y007260D01*
X027848Y007200D01*
X027728Y007200D01*
X027668Y007260D01*
X027540Y007200D02*
X027300Y007200D01*
X027420Y007200D02*
X027420Y007560D01*
X027300Y007440D01*
X027668Y007500D02*
X027728Y007560D01*
X027848Y007560D01*
X027848Y007380D02*
X027788Y007380D01*
X027848Y006560D02*
X027668Y006380D01*
X027909Y006380D01*
X027848Y006200D02*
X027848Y006560D01*
X027420Y006560D02*
X027420Y006200D01*
X027300Y006200D02*
X027540Y006200D01*
X027300Y006440D02*
X027420Y006560D01*
X027420Y005560D02*
X027420Y005200D01*
X027300Y005200D02*
X027540Y005200D01*
X027668Y005260D02*
X027728Y005200D01*
X027848Y005200D01*
X027909Y005260D01*
X027909Y005380D01*
X027848Y005440D01*
X027788Y005440D01*
X027668Y005380D01*
X027668Y005560D01*
X027909Y005560D01*
X027420Y005560D02*
X027300Y005440D01*
X023060Y003744D02*
X023060Y003624D01*
X023000Y003564D01*
X022760Y003564D01*
X022700Y003624D01*
X022700Y003744D01*
X022760Y003804D01*
X023000Y003804D02*
X023060Y003744D01*
X023060Y003436D02*
X023060Y003196D01*
X022820Y003436D01*
X022760Y003436D01*
X022700Y003376D01*
X022700Y003256D01*
X022760Y003196D01*
X022700Y003070D02*
X022700Y002950D01*
X022700Y003010D02*
X023060Y003010D01*
X023060Y002950D02*
X023060Y003070D01*
X021550Y004050D02*
X021550Y004110D01*
X021790Y004350D01*
X021790Y004410D01*
X021550Y004410D01*
X020740Y004410D02*
X020620Y004350D01*
X020500Y004230D01*
X020680Y004230D01*
X020740Y004170D01*
X020740Y004110D01*
X020680Y004050D01*
X020560Y004050D01*
X020500Y004110D01*
X020500Y004230D01*
X019740Y004230D02*
X019740Y004110D01*
X019680Y004050D01*
X019560Y004050D01*
X019500Y004110D01*
X019500Y004230D02*
X019620Y004290D01*
X019680Y004290D01*
X019740Y004230D01*
X019740Y004410D02*
X019500Y004410D01*
X019500Y004230D01*
X018740Y004230D02*
X018500Y004230D01*
X018680Y004410D01*
X018680Y004050D01*
X017740Y004110D02*
X017680Y004050D01*
X017560Y004050D01*
X017500Y004110D01*
X017620Y004230D02*
X017680Y004230D01*
X017740Y004170D01*
X017740Y004110D01*
X017680Y004230D02*
X017740Y004290D01*
X017740Y004350D01*
X017680Y004410D01*
X017560Y004410D01*
X017500Y004350D01*
X016690Y004350D02*
X016630Y004410D01*
X016510Y004410D01*
X016450Y004350D01*
X016690Y004350D02*
X016690Y004290D01*
X016450Y004050D01*
X016690Y004050D01*
X015740Y004050D02*
X015500Y004050D01*
X015620Y004050D02*
X015620Y004410D01*
X015500Y004290D01*
X014740Y004350D02*
X014740Y004110D01*
X014680Y004050D01*
X014560Y004050D01*
X014500Y004110D01*
X014740Y004350D01*
X014680Y004410D01*
X014560Y004410D01*
X014500Y004350D01*
X014500Y004110D01*
X010009Y004170D02*
X010009Y004410D01*
X010009Y004170D02*
X009888Y004050D01*
X009768Y004170D01*
X009768Y004410D01*
X009640Y004410D02*
X009400Y004410D01*
X009400Y004230D01*
X009520Y004290D01*
X009580Y004290D01*
X009640Y004230D01*
X009640Y004110D01*
X009580Y004050D01*
X009460Y004050D01*
X009400Y004110D01*
X008860Y004060D02*
X008800Y004000D01*
X008860Y004060D02*
X008860Y004180D01*
X008800Y004240D01*
X008740Y004240D01*
X008680Y004180D01*
X008680Y004120D01*
X008680Y004180D02*
X008620Y004240D01*
X008560Y004240D01*
X008500Y004180D01*
X008500Y004060D01*
X008560Y004000D01*
X008500Y004368D02*
X008740Y004368D01*
X008860Y004488D01*
X008740Y004609D01*
X008500Y004609D01*
X008560Y004737D02*
X008500Y004797D01*
X008500Y004917D01*
X008560Y004977D01*
X008620Y004977D01*
X008680Y004917D01*
X008740Y004977D01*
X008800Y004977D01*
X008860Y004917D01*
X008860Y004797D01*
X008800Y004737D01*
X008680Y004857D02*
X008680Y004917D01*
X041135Y004780D02*
X041135Y005980D01*
X041725Y005980D02*
X041725Y004780D01*
D12*
X002455Y001955D02*
X002305Y002105D01*
X002755Y002105D01*
X002755Y001955D02*
X002755Y002255D01*
X004055Y002080D02*
X004055Y001930D01*
X004130Y001855D01*
X004280Y002005D02*
X004280Y002080D01*
X004355Y002155D01*
X004430Y002155D01*
X004505Y002080D01*
X004505Y001930D01*
X004430Y001855D01*
X004280Y002080D02*
X004205Y002155D01*
X004130Y002155D01*
X004055Y002080D01*
X007180Y002880D02*
X007180Y003880D01*
X013180Y003880D01*
X013180Y002880D01*
X007180Y002880D01*
X009605Y004605D02*
X009605Y005055D01*
X009830Y005055D01*
X009905Y004980D01*
X009905Y004830D01*
X009830Y004755D01*
X009605Y004755D01*
X010065Y004680D02*
X010140Y004605D01*
X010291Y004605D01*
X010366Y004680D01*
X010366Y004980D01*
X010291Y005055D01*
X010140Y005055D01*
X010065Y004980D01*
X010065Y004680D01*
X010526Y004605D02*
X010526Y005055D01*
X010826Y005055D02*
X010826Y004605D01*
X010676Y004755D01*
X010526Y004605D01*
X010630Y004455D02*
X010555Y004380D01*
X010555Y004080D01*
X010630Y004005D01*
X010780Y004005D01*
X010855Y004080D01*
X010855Y004230D01*
X010705Y004230D01*
X010855Y004380D02*
X010780Y004455D01*
X010630Y004455D01*
X011015Y004455D02*
X011015Y004005D01*
X011316Y004005D02*
X011015Y004455D01*
X010986Y004605D02*
X011286Y004605D01*
X011316Y004455D02*
X011316Y004005D01*
X011476Y004005D02*
X011701Y004005D01*
X011776Y004080D01*
X011776Y004380D01*
X011701Y004455D01*
X011476Y004455D01*
X011476Y004005D01*
X012205Y004205D02*
X012205Y004505D01*
X012205Y004205D02*
X012355Y004055D01*
X012505Y004205D01*
X012505Y004505D01*
X012665Y004355D02*
X012740Y004355D01*
X012740Y004055D01*
X012665Y004055D02*
X012816Y004055D01*
X012972Y004055D02*
X012972Y004355D01*
X013198Y004355D01*
X013273Y004280D01*
X013273Y004055D01*
X012740Y004505D02*
X012740Y004580D01*
X011747Y004605D02*
X011597Y004755D01*
X011672Y004755D02*
X011447Y004755D01*
X011447Y004605D02*
X011447Y005055D01*
X011672Y005055D01*
X011747Y004980D01*
X011747Y004830D01*
X011672Y004755D01*
X011286Y005055D02*
X010986Y005055D01*
X010986Y004605D01*
X010986Y004830D02*
X011136Y004830D01*
X014180Y003880D02*
X022180Y003880D01*
X022180Y002880D01*
X022180Y001880D01*
X014180Y001880D01*
X014180Y002880D01*
X022180Y002880D01*
X014180Y002880D01*
X014180Y003880D01*
X017105Y006520D02*
X017330Y006295D01*
X017330Y006595D01*
X017555Y006520D02*
X017105Y006520D01*
X016605Y007088D02*
X016530Y007013D01*
X016605Y007088D02*
X016605Y007239D01*
X016530Y007314D01*
X016455Y007314D01*
X016380Y007239D01*
X016380Y007088D01*
X016305Y007013D01*
X016230Y007013D01*
X016155Y007088D01*
X016155Y007239D01*
X016230Y007314D01*
X016155Y007474D02*
X016155Y007699D01*
X016230Y007774D01*
X016380Y007774D01*
X016455Y007699D01*
X016455Y007474D01*
X016605Y007474D02*
X016155Y007474D01*
X016155Y007934D02*
X016155Y008234D01*
X016230Y008395D02*
X016155Y008470D01*
X016155Y008620D01*
X016230Y008695D01*
X016305Y008695D01*
X016605Y008395D01*
X016605Y008695D01*
X016380Y008084D02*
X016380Y007934D01*
X016605Y007934D02*
X016155Y007934D01*
X017180Y009495D02*
X017105Y009570D01*
X017105Y009720D01*
X017180Y009795D01*
X017255Y009795D01*
X017330Y009720D01*
X017405Y009795D01*
X017480Y009795D01*
X017555Y009720D01*
X017555Y009570D01*
X017480Y009495D01*
X017330Y009645D02*
X017330Y009720D01*
X018855Y009545D02*
X019305Y009545D01*
X019305Y009395D02*
X019305Y009695D01*
X019005Y009395D02*
X018855Y009545D01*
X019180Y011880D02*
X017180Y011880D01*
X017180Y014880D01*
X019180Y014880D01*
X019180Y011880D01*
X019180Y014880D01*
X021180Y014880D01*
X021180Y011880D01*
X019180Y011880D01*
X016755Y012905D02*
X016755Y013055D01*
X016755Y012980D02*
X016305Y012980D01*
X016305Y012905D02*
X016305Y013055D01*
X016380Y013212D02*
X016305Y013287D01*
X016305Y013437D01*
X016380Y013512D01*
X016530Y013437D02*
X016605Y013512D01*
X016680Y013512D01*
X016755Y013437D01*
X016755Y013287D01*
X016680Y013212D01*
X016530Y013287D02*
X016455Y013212D01*
X016380Y013212D01*
X016530Y013287D02*
X016530Y013437D01*
X016605Y013672D02*
X016605Y013898D01*
X016530Y013973D01*
X016380Y013973D01*
X016305Y013898D01*
X016305Y013672D01*
X016755Y013672D01*
X022180Y012880D02*
X022180Y004880D01*
X023180Y004880D01*
X023180Y012880D01*
X024180Y012880D01*
X024180Y004880D01*
X023180Y004880D01*
X023180Y012880D01*
X023180Y020880D01*
X024180Y020880D01*
X024180Y012880D01*
X023180Y012880D01*
X022180Y012880D01*
X022180Y020880D01*
X023180Y020880D01*
X023180Y012880D01*
X022180Y012880D01*
X025180Y012880D02*
X025180Y020880D01*
X026180Y020880D01*
X026180Y012880D01*
X025180Y012880D01*
X025180Y004880D01*
X026180Y004880D01*
X026180Y012880D01*
X027180Y012880D01*
X027180Y020880D01*
X028180Y020880D01*
X028180Y012880D01*
X027180Y012880D01*
X027180Y004880D01*
X026180Y004880D01*
X026180Y012880D01*
X025180Y012880D01*
X030180Y012880D02*
X030180Y004880D01*
X031180Y004880D01*
X031180Y012880D01*
X030180Y012880D01*
X031655Y010835D02*
X032105Y010835D01*
X031655Y010535D01*
X032105Y010535D01*
X032105Y010378D02*
X032105Y010228D01*
X032105Y010303D02*
X031655Y010303D01*
X031655Y010228D02*
X031655Y010378D01*
X031730Y009607D02*
X031655Y009532D01*
X031655Y009382D01*
X031730Y009307D01*
X032030Y009307D01*
X032105Y009382D01*
X032105Y009532D01*
X032030Y009607D01*
X031880Y009607D01*
X031880Y009457D01*
X032030Y009147D02*
X031730Y009147D01*
X031655Y009072D01*
X031655Y008922D01*
X031730Y008847D01*
X032030Y008847D01*
X032105Y008922D01*
X032105Y009072D01*
X032030Y009147D01*
X032105Y008686D02*
X032105Y008386D01*
X031655Y008386D01*
X031805Y008226D02*
X032105Y008226D01*
X031880Y008226D02*
X031880Y007926D01*
X031805Y007926D02*
X031655Y008076D01*
X031805Y008226D01*
X031805Y007926D02*
X032105Y007926D01*
X032105Y007766D02*
X031655Y007766D01*
X031655Y007465D02*
X032105Y007766D01*
X032105Y007465D02*
X031655Y007465D01*
X031805Y007305D02*
X032105Y007305D01*
X031880Y007305D02*
X031880Y007005D01*
X031805Y007005D02*
X031655Y007155D01*
X031805Y007305D01*
X031805Y007005D02*
X032105Y007005D01*
X034455Y005476D02*
X034905Y005476D01*
X034905Y005326D02*
X034905Y005626D01*
X034605Y005326D02*
X034455Y005476D01*
X034530Y005166D02*
X034680Y005166D01*
X034755Y005091D01*
X034755Y004865D01*
X034905Y004865D02*
X034455Y004865D01*
X034455Y005091D01*
X034530Y005166D01*
X034455Y004705D02*
X034455Y004555D01*
X034455Y004630D02*
X034830Y004630D01*
X034905Y004555D01*
X034905Y004480D01*
X034830Y004405D01*
X039180Y005380D02*
X039180Y009380D01*
X040180Y009380D01*
X040180Y005380D01*
X039180Y005380D01*
X042455Y005326D02*
X042680Y005326D01*
X042605Y005476D01*
X042605Y005551D01*
X042680Y005626D01*
X042830Y005626D01*
X042905Y005551D01*
X042905Y005401D01*
X042830Y005326D01*
X042680Y005166D02*
X042755Y005091D01*
X042755Y004865D01*
X042905Y004865D02*
X042455Y004865D01*
X042455Y005091D01*
X042530Y005166D01*
X042680Y005166D01*
X042455Y005326D02*
X042455Y005626D01*
X042455Y004705D02*
X042455Y004555D01*
X042455Y004630D02*
X042830Y004630D01*
X042905Y004555D01*
X042905Y004480D01*
X042830Y004405D01*
X047180Y005380D02*
X047180Y009380D01*
X048180Y009380D01*
X048180Y005380D01*
X047180Y005380D01*
X050455Y005401D02*
X050530Y005326D01*
X050455Y005401D02*
X050455Y005551D01*
X050530Y005626D01*
X050605Y005626D01*
X050905Y005326D01*
X050905Y005626D01*
X050680Y005166D02*
X050755Y005091D01*
X050755Y004865D01*
X050905Y004865D02*
X050455Y004865D01*
X050455Y005091D01*
X050530Y005166D01*
X050680Y005166D01*
X050455Y004705D02*
X050455Y004555D01*
X050455Y004630D02*
X050830Y004630D01*
X050905Y004555D01*
X050905Y004480D01*
X050830Y004405D01*
X054680Y005380D02*
X054680Y009380D01*
X055680Y009380D01*
X055680Y005380D01*
X054680Y005380D01*
X050480Y016680D02*
X050482Y016700D01*
X050488Y016718D01*
X050497Y016736D01*
X050509Y016751D01*
X050524Y016763D01*
X050542Y016772D01*
X050560Y016778D01*
X050580Y016780D01*
X050600Y016778D01*
X050618Y016772D01*
X050636Y016763D01*
X050651Y016751D01*
X050663Y016736D01*
X050672Y016718D01*
X050678Y016700D01*
X050680Y016680D01*
X050678Y016660D01*
X050672Y016642D01*
X050663Y016624D01*
X050651Y016609D01*
X050636Y016597D01*
X050618Y016588D01*
X050600Y016582D01*
X050580Y016580D01*
X050560Y016582D01*
X050542Y016588D01*
X050524Y016597D01*
X050509Y016609D01*
X050497Y016624D01*
X050488Y016642D01*
X050482Y016660D01*
X050480Y016680D01*
X042730Y016680D02*
X042732Y016700D01*
X042738Y016718D01*
X042747Y016736D01*
X042759Y016751D01*
X042774Y016763D01*
X042792Y016772D01*
X042810Y016778D01*
X042830Y016780D01*
X042850Y016778D01*
X042868Y016772D01*
X042886Y016763D01*
X042901Y016751D01*
X042913Y016736D01*
X042922Y016718D01*
X042928Y016700D01*
X042930Y016680D01*
X042928Y016660D01*
X042922Y016642D01*
X042913Y016624D01*
X042901Y016609D01*
X042886Y016597D01*
X042868Y016588D01*
X042850Y016582D01*
X042830Y016580D01*
X042810Y016582D01*
X042792Y016588D01*
X042774Y016597D01*
X042759Y016609D01*
X042747Y016624D01*
X042738Y016642D01*
X042732Y016660D01*
X042730Y016680D01*
X034730Y016680D02*
X034732Y016700D01*
X034738Y016718D01*
X034747Y016736D01*
X034759Y016751D01*
X034774Y016763D01*
X034792Y016772D01*
X034810Y016778D01*
X034830Y016780D01*
X034850Y016778D01*
X034868Y016772D01*
X034886Y016763D01*
X034901Y016751D01*
X034913Y016736D01*
X034922Y016718D01*
X034928Y016700D01*
X034930Y016680D01*
X034928Y016660D01*
X034922Y016642D01*
X034913Y016624D01*
X034901Y016609D01*
X034886Y016597D01*
X034868Y016588D01*
X034850Y016582D01*
X034830Y016580D01*
X034810Y016582D01*
X034792Y016588D01*
X034774Y016597D01*
X034759Y016609D01*
X034747Y016624D01*
X034738Y016642D01*
X034732Y016660D01*
X034730Y016680D01*
X027180Y021880D02*
X021180Y021880D01*
X021180Y022880D01*
X027180Y022880D01*
X027180Y021880D01*
X027985Y023625D02*
X028360Y023625D01*
X028435Y023700D01*
X028435Y023850D01*
X028360Y023925D01*
X027985Y023925D01*
X028135Y024085D02*
X027985Y024236D01*
X028135Y024386D01*
X028435Y024386D01*
X028435Y024546D02*
X027985Y024546D01*
X027985Y024771D01*
X028060Y024846D01*
X028210Y024846D01*
X028285Y024771D01*
X028285Y024546D01*
X028285Y024696D02*
X028435Y024846D01*
X028435Y025156D02*
X027985Y025156D01*
X027985Y025006D02*
X027985Y025306D01*
X028135Y025467D02*
X027985Y025617D01*
X028435Y025617D01*
X028435Y025467D02*
X028435Y025767D01*
X028435Y025927D02*
X028135Y025927D01*
X027985Y026077D01*
X028135Y026227D01*
X028435Y026227D01*
X028210Y026227D02*
X028210Y025927D01*
X028210Y024386D02*
X028210Y024085D01*
X028135Y024085D02*
X028435Y024085D01*
X024905Y024230D02*
X024830Y024155D01*
X024455Y024155D01*
X024455Y024455D02*
X024830Y024455D01*
X024905Y024380D01*
X024905Y024230D01*
X024905Y024615D02*
X024605Y024615D01*
X024455Y024766D01*
X024605Y024916D01*
X024905Y024916D01*
X024905Y025076D02*
X024455Y025076D01*
X024455Y025301D01*
X024530Y025376D01*
X024680Y025376D01*
X024755Y025301D01*
X024755Y025076D01*
X024755Y025226D02*
X024905Y025376D01*
X024905Y025686D02*
X024455Y025686D01*
X024455Y025536D02*
X024455Y025836D01*
X024605Y025997D02*
X024455Y026147D01*
X024905Y026147D01*
X024905Y025997D02*
X024905Y026297D01*
X024680Y024916D02*
X024680Y024615D01*
X020905Y024615D02*
X020605Y024615D01*
X020455Y024766D01*
X020605Y024916D01*
X020905Y024916D01*
X020905Y025076D02*
X020455Y025076D01*
X020455Y025301D01*
X020530Y025376D01*
X020680Y025376D01*
X020755Y025301D01*
X020755Y025076D01*
X020755Y025226D02*
X020905Y025376D01*
X020905Y025686D02*
X020455Y025686D01*
X020455Y025536D02*
X020455Y025836D01*
X020530Y025997D02*
X020455Y026072D01*
X020455Y026222D01*
X020530Y026297D01*
X020830Y025997D01*
X020905Y026072D01*
X020905Y026222D01*
X020830Y026297D01*
X020530Y026297D01*
X020530Y025997D02*
X020830Y025997D01*
X020680Y024916D02*
X020680Y024615D01*
X020830Y024455D02*
X020455Y024455D01*
X020455Y024155D02*
X020830Y024155D01*
X020905Y024230D01*
X020905Y024380D01*
X020830Y024455D01*
X020180Y023880D02*
X020180Y022880D01*
X012180Y022880D01*
X012180Y023880D01*
X020180Y023880D01*
X020180Y022880D02*
X012180Y022880D01*
X012180Y021880D01*
X020180Y021880D01*
X020180Y020880D01*
X012180Y020880D01*
X012180Y021880D01*
X020180Y021880D01*
X020180Y022880D01*
X011580Y022880D02*
X011580Y021880D01*
X003580Y021880D01*
X003580Y022880D01*
X011580Y022880D01*
X011180Y021880D02*
X003180Y021880D01*
X003180Y020880D01*
X011180Y020880D01*
X011180Y021880D01*
X004905Y023655D02*
X004605Y023655D01*
X004455Y023805D01*
X004605Y023955D01*
X004905Y023955D01*
X004905Y024115D02*
X004905Y024341D01*
X004830Y024416D01*
X004530Y024416D01*
X004455Y024341D01*
X004455Y024115D01*
X004905Y024115D01*
X004680Y023955D02*
X004680Y023655D01*
X004455Y024576D02*
X004905Y024576D01*
X004905Y024801D01*
X004830Y024876D01*
X004530Y024876D01*
X004455Y024801D01*
X004455Y024576D01*
X004455Y025036D02*
X004455Y025261D01*
X004530Y025336D01*
X004680Y025336D01*
X004755Y025261D01*
X004755Y025036D01*
X004905Y025036D02*
X004455Y025036D01*
X004755Y025186D02*
X004905Y025336D01*
X001080Y020586D02*
X001155Y020511D01*
X001155Y020361D01*
X001080Y020286D01*
X000780Y020286D01*
X000705Y020361D01*
X000705Y020511D01*
X000780Y020586D01*
X000780Y020126D02*
X000705Y020051D01*
X000705Y019826D01*
X001155Y019826D01*
X001155Y020051D01*
X001080Y020126D01*
X000780Y020126D01*
X000705Y019666D02*
X001005Y019666D01*
X001155Y019516D01*
X001005Y019365D01*
X000705Y019365D01*
X000705Y019205D02*
X000705Y018905D01*
X000930Y018905D01*
X000855Y019055D01*
X000855Y019130D01*
X000930Y019205D01*
X001080Y019205D01*
X001155Y019130D01*
X001155Y018980D01*
X001080Y018905D01*
X001080Y018126D02*
X000780Y018126D01*
X000705Y018051D01*
X000705Y017826D01*
X001155Y017826D01*
X001155Y018051D01*
X001080Y018126D01*
X001155Y017666D02*
X000705Y017666D01*
X000705Y017365D02*
X001155Y017666D01*
X001155Y017365D02*
X000705Y017365D01*
X000780Y017205D02*
X000705Y017130D01*
X000705Y016980D01*
X000780Y016905D01*
X001080Y016905D01*
X001155Y016980D01*
X001155Y017130D01*
X001080Y017205D01*
X000930Y017205D01*
X000930Y017055D01*
X000955Y016380D02*
X000955Y016080D01*
X000805Y016230D02*
X001105Y016230D01*
X001265Y016380D02*
X001340Y016455D01*
X001491Y016455D01*
X001566Y016380D01*
X001566Y016305D01*
X001265Y016005D01*
X001566Y016005D01*
X001726Y016230D02*
X002026Y016230D01*
X002186Y016155D02*
X002336Y016005D01*
X002486Y016155D01*
X002486Y016455D01*
X002186Y016455D02*
X002186Y016155D01*
X001951Y016005D02*
X001951Y016455D01*
X001726Y016230D01*
X003155Y015279D02*
X003155Y014979D01*
X003155Y015129D02*
X002705Y015129D01*
X002855Y014979D01*
X004825Y014959D02*
X004825Y014809D01*
X004900Y014734D01*
X005200Y014734D01*
X005275Y014809D01*
X005275Y014959D01*
X005200Y015034D01*
X005275Y015195D02*
X005275Y015495D01*
X005275Y015345D02*
X004825Y015345D01*
X004975Y015195D01*
X004900Y015034D02*
X004825Y014959D01*
X005480Y015480D02*
X005580Y015580D01*
X006730Y015630D01*
X005620Y015400D02*
X005622Y015420D01*
X005628Y015438D01*
X005637Y015456D01*
X005649Y015471D01*
X005664Y015483D01*
X005682Y015492D01*
X005700Y015498D01*
X005720Y015500D01*
X005740Y015498D01*
X005758Y015492D01*
X005776Y015483D01*
X005791Y015471D01*
X005803Y015456D01*
X005812Y015438D01*
X005818Y015420D01*
X005820Y015400D01*
X005818Y015380D01*
X005812Y015362D01*
X005803Y015344D01*
X005791Y015329D01*
X005776Y015317D01*
X005758Y015308D01*
X005740Y015302D01*
X005720Y015300D01*
X005700Y015302D01*
X005682Y015308D01*
X005664Y015317D01*
X005649Y015329D01*
X005637Y015344D01*
X005628Y015362D01*
X005622Y015380D01*
X005620Y015400D01*
X005480Y015480D02*
X005480Y011780D01*
X005580Y011680D01*
X006730Y011630D01*
X006330Y012445D02*
X006405Y012520D01*
X006405Y012670D01*
X006330Y012745D01*
X006255Y012745D01*
X006180Y012670D01*
X006180Y012595D01*
X006180Y012670D02*
X006105Y012745D01*
X006030Y012745D01*
X005955Y012670D01*
X005955Y012520D01*
X006030Y012445D01*
X006030Y013445D02*
X005955Y013520D01*
X005955Y013670D01*
X006030Y013745D01*
X006105Y013745D01*
X006405Y013445D01*
X006405Y013745D01*
X006405Y014445D02*
X006405Y014745D01*
X006405Y014595D02*
X005955Y014595D01*
X006105Y014445D01*
X005275Y014427D02*
X005275Y014577D01*
X005275Y014502D02*
X004825Y014502D01*
X004825Y014427D02*
X004825Y014577D01*
X003155Y013329D02*
X003155Y013029D01*
X002855Y013329D01*
X002780Y013329D01*
X002705Y013254D01*
X002705Y013104D01*
X002780Y013029D01*
X000935Y014248D02*
X000485Y014549D01*
X000635Y014709D02*
X000485Y014859D01*
X000935Y014859D01*
X000935Y014709D02*
X000935Y015009D01*
X000935Y014549D02*
X000485Y014248D01*
X000880Y011205D02*
X000805Y011130D01*
X000805Y010830D01*
X000880Y010755D01*
X001030Y010755D01*
X001105Y010830D01*
X001105Y010980D01*
X000955Y010980D01*
X001105Y011130D02*
X001030Y011205D01*
X000880Y011205D01*
X001265Y011205D02*
X001566Y010755D01*
X001566Y011205D01*
X001726Y011205D02*
X001726Y010755D01*
X001951Y010755D01*
X002026Y010830D01*
X002026Y011130D01*
X001951Y011205D01*
X001726Y011205D01*
X001265Y011205D02*
X001265Y010755D01*
X001705Y010105D02*
X001705Y009655D01*
X002005Y009655D01*
X002165Y009730D02*
X002240Y009655D01*
X002391Y009655D01*
X002466Y009730D01*
X002466Y009805D01*
X002391Y009880D01*
X002240Y009880D01*
X002165Y009955D01*
X002165Y010030D01*
X002240Y010105D01*
X002391Y010105D01*
X002466Y010030D01*
X002626Y010105D02*
X002926Y010105D01*
X002776Y010105D02*
X002776Y009655D01*
X003086Y009730D02*
X003086Y010030D01*
X003161Y010105D01*
X003311Y010105D01*
X003386Y010030D01*
X003386Y009730D01*
X003311Y009655D01*
X003161Y009655D01*
X003086Y009730D01*
X003547Y009655D02*
X003547Y010105D01*
X003772Y010105D01*
X003847Y010030D01*
X003847Y009880D01*
X003772Y009805D01*
X003547Y009805D01*
X002005Y010105D02*
X001705Y010105D01*
X001705Y009880D02*
X001855Y009880D01*
X002638Y006155D02*
X002563Y006080D01*
X002563Y006005D01*
X002638Y005930D01*
X002789Y005930D01*
X002864Y005855D01*
X002864Y005780D01*
X002789Y005705D01*
X002638Y005705D01*
X002563Y005780D01*
X002638Y006155D02*
X002789Y006155D01*
X002864Y006080D01*
X003024Y006155D02*
X003249Y006155D01*
X003324Y006080D01*
X003324Y005930D01*
X003249Y005855D01*
X003024Y005855D01*
X003024Y005705D02*
X003024Y006155D01*
X003484Y006155D02*
X003484Y005705D01*
X003484Y005930D02*
X003634Y005930D01*
X003484Y006155D02*
X003784Y006155D01*
X003945Y006080D02*
X004020Y006155D01*
X004170Y006155D01*
X004245Y006080D01*
X004245Y006005D01*
X004170Y005930D01*
X004245Y005855D01*
X004245Y005780D01*
X004170Y005705D01*
X004020Y005705D01*
X003945Y005780D01*
X004095Y005930D02*
X004170Y005930D01*
X004280Y005355D02*
X004280Y005055D01*
X004055Y005280D01*
X004505Y005280D01*
X002805Y005355D02*
X002805Y005055D01*
X002505Y005355D01*
X002430Y005355D01*
X002355Y005280D01*
X002355Y005130D01*
X002430Y005055D01*
X018805Y006370D02*
X018880Y006295D01*
X018805Y006370D02*
X018805Y006520D01*
X018880Y006595D01*
X018955Y006595D01*
X019255Y006295D01*
X019255Y006595D01*
X023180Y003880D02*
X027180Y003880D01*
X027180Y002880D01*
X023180Y002880D01*
X023180Y003880D01*
D13*
X022083Y005190D02*
X022120Y005227D01*
X022120Y005300D01*
X022083Y005337D01*
X022047Y005337D01*
X022010Y005300D01*
X022010Y005263D01*
X022010Y005300D02*
X021973Y005337D01*
X021937Y005337D01*
X021900Y005300D01*
X021900Y005227D01*
X021937Y005190D01*
X021900Y005411D02*
X021900Y005558D01*
X021937Y005558D01*
X022083Y005411D01*
X022120Y005411D01*
X024850Y005458D02*
X024850Y005311D01*
X025070Y005311D01*
X025070Y005458D01*
X025070Y005532D02*
X024923Y005679D01*
X024887Y005679D01*
X024850Y005642D01*
X024850Y005569D01*
X024887Y005532D01*
X024960Y005384D02*
X024960Y005311D01*
X024960Y005237D02*
X024997Y005200D01*
X024997Y005090D01*
X025070Y005090D02*
X024850Y005090D01*
X024850Y005200D01*
X024887Y005237D01*
X024960Y005237D01*
X025070Y005532D02*
X025070Y005679D01*
X025070Y006090D02*
X024850Y006090D01*
X024850Y006200D01*
X024887Y006237D01*
X024960Y006237D01*
X024997Y006200D01*
X024997Y006090D01*
X024960Y006311D02*
X024960Y006384D01*
X025070Y006311D02*
X025070Y006458D01*
X025033Y006532D02*
X025070Y006569D01*
X025070Y006642D01*
X025033Y006679D01*
X024997Y006679D01*
X024960Y006642D01*
X024960Y006532D01*
X025033Y006532D01*
X024960Y006532D02*
X024887Y006605D01*
X024850Y006679D01*
X024850Y006458D02*
X024850Y006311D01*
X025070Y006311D01*
X025070Y007090D02*
X024850Y007090D01*
X024850Y007200D01*
X024887Y007237D01*
X024960Y007237D01*
X024997Y007200D01*
X024997Y007090D01*
X024960Y007311D02*
X024960Y007384D01*
X025070Y007311D02*
X025070Y007458D01*
X025070Y007532D02*
X025033Y007532D01*
X024887Y007679D01*
X024850Y007679D01*
X024850Y007532D01*
X024850Y007458D02*
X024850Y007311D01*
X025070Y007311D01*
X025070Y008090D02*
X024850Y008090D01*
X024850Y008200D01*
X024887Y008237D01*
X024960Y008237D01*
X024997Y008200D01*
X024997Y008090D01*
X025033Y008311D02*
X025070Y008348D01*
X025070Y008421D01*
X025033Y008458D01*
X024960Y008458D01*
X024960Y008384D01*
X024887Y008311D02*
X025033Y008311D01*
X024887Y008311D02*
X024850Y008348D01*
X024850Y008421D01*
X024887Y008458D01*
X024887Y008532D02*
X024850Y008569D01*
X024850Y008642D01*
X024887Y008679D01*
X024923Y008679D01*
X024960Y008642D01*
X024997Y008679D01*
X025033Y008679D01*
X025070Y008642D01*
X025070Y008569D01*
X025033Y008532D01*
X024960Y008605D02*
X024960Y008642D01*
X024997Y009090D02*
X024997Y009200D01*
X024960Y009237D01*
X024887Y009237D01*
X024850Y009200D01*
X024850Y009090D01*
X025070Y009090D01*
X025033Y009311D02*
X025070Y009348D01*
X025070Y009421D01*
X025033Y009458D01*
X024960Y009458D01*
X024960Y009384D01*
X024887Y009311D02*
X025033Y009311D01*
X024887Y009311D02*
X024850Y009348D01*
X024850Y009421D01*
X024887Y009458D01*
X024960Y009532D02*
X024960Y009679D01*
X025070Y009642D02*
X024850Y009642D01*
X024960Y009532D01*
X024997Y010090D02*
X024997Y010200D01*
X024960Y010237D01*
X024887Y010237D01*
X024850Y010200D01*
X024850Y010090D01*
X025070Y010090D01*
X025070Y010311D02*
X025070Y010421D01*
X025033Y010458D01*
X024887Y010458D01*
X024850Y010421D01*
X024850Y010311D01*
X025070Y010311D01*
X025033Y010532D02*
X025070Y010569D01*
X025070Y010642D01*
X025033Y010679D01*
X024997Y010679D01*
X024960Y010642D01*
X024960Y010532D01*
X025033Y010532D01*
X024960Y010532D02*
X024887Y010605D01*
X024850Y010679D01*
X024850Y011090D02*
X024850Y011200D01*
X024887Y011237D01*
X024960Y011237D01*
X024997Y011200D01*
X024997Y011090D01*
X025070Y011090D02*
X024850Y011090D01*
X024850Y011311D02*
X024850Y011421D01*
X024887Y011458D01*
X025033Y011458D01*
X025070Y011421D01*
X025070Y011311D01*
X024850Y011311D01*
X024850Y011532D02*
X024960Y011532D01*
X024923Y011605D01*
X024923Y011642D01*
X024960Y011679D01*
X025033Y011679D01*
X025070Y011642D01*
X025070Y011569D01*
X025033Y011532D01*
X024850Y011532D02*
X024850Y011679D01*
X024850Y012090D02*
X024850Y012200D01*
X024887Y012237D01*
X024960Y012237D01*
X024997Y012200D01*
X024997Y012090D01*
X025070Y012090D02*
X024850Y012090D01*
X024850Y012311D02*
X024850Y012421D01*
X024887Y012458D01*
X025033Y012458D01*
X025070Y012421D01*
X025070Y012311D01*
X024850Y012311D01*
X024960Y012532D02*
X024960Y012679D01*
X025070Y012642D02*
X024850Y012642D01*
X024960Y012532D01*
X024997Y013090D02*
X024997Y013200D01*
X024960Y013237D01*
X024887Y013237D01*
X024850Y013200D01*
X024850Y013090D01*
X025070Y013090D01*
X025033Y013311D02*
X025070Y013348D01*
X025070Y013384D01*
X025033Y013421D01*
X024850Y013421D01*
X024850Y013384D02*
X024850Y013458D01*
X024850Y013532D02*
X024850Y013679D01*
X024887Y013679D01*
X025033Y013532D01*
X025070Y013532D01*
X025070Y014090D02*
X024850Y014090D01*
X024850Y014200D01*
X024887Y014237D01*
X024960Y014237D01*
X024997Y014200D01*
X024997Y014090D01*
X025033Y014311D02*
X025070Y014348D01*
X025070Y014384D01*
X025033Y014421D01*
X024850Y014421D01*
X024850Y014384D02*
X024850Y014458D01*
X024960Y014532D02*
X024960Y014642D01*
X024997Y014679D01*
X025033Y014679D01*
X025070Y014642D01*
X025070Y014569D01*
X025033Y014532D01*
X024960Y014532D01*
X024887Y014605D01*
X024850Y014679D01*
X024850Y015090D02*
X024850Y015200D01*
X024887Y015237D01*
X024960Y015237D01*
X024997Y015200D01*
X024997Y015090D01*
X025070Y015090D02*
X024850Y015090D01*
X025033Y015311D02*
X025070Y015348D01*
X025070Y015384D01*
X025033Y015421D01*
X024850Y015421D01*
X024850Y015384D02*
X024850Y015458D01*
X024850Y015532D02*
X024960Y015532D01*
X024923Y015605D01*
X024923Y015642D01*
X024960Y015679D01*
X025033Y015679D01*
X025070Y015642D01*
X025070Y015569D01*
X025033Y015532D01*
X024850Y015532D02*
X024850Y015679D01*
X024850Y016090D02*
X024850Y016200D01*
X024887Y016237D01*
X024960Y016237D01*
X024997Y016200D01*
X024997Y016090D01*
X025070Y016090D02*
X024850Y016090D01*
X025033Y016311D02*
X025070Y016348D01*
X025070Y016384D01*
X025033Y016421D01*
X024850Y016421D01*
X024850Y016384D02*
X024850Y016458D01*
X024960Y016532D02*
X024960Y016679D01*
X025070Y016642D02*
X024850Y016642D01*
X024960Y016532D01*
X024997Y017090D02*
X024997Y017200D01*
X024960Y017237D01*
X024887Y017237D01*
X024850Y017200D01*
X024850Y017090D01*
X025070Y017090D01*
X025033Y017311D02*
X025070Y017348D01*
X025070Y017384D01*
X025033Y017421D01*
X024850Y017421D01*
X024850Y017384D02*
X024850Y017458D01*
X024887Y017532D02*
X024850Y017569D01*
X024850Y017642D01*
X024887Y017679D01*
X024923Y017679D01*
X024960Y017642D01*
X024997Y017679D01*
X025033Y017679D01*
X025070Y017642D01*
X025070Y017569D01*
X025033Y017532D01*
X024960Y017605D02*
X024960Y017642D01*
X024997Y018090D02*
X024997Y018200D01*
X024960Y018237D01*
X024887Y018237D01*
X024850Y018200D01*
X024850Y018090D01*
X025070Y018090D01*
X025033Y018311D02*
X025070Y018348D01*
X025070Y018384D01*
X025033Y018421D01*
X024850Y018421D01*
X024850Y018384D02*
X024850Y018458D01*
X024887Y018532D02*
X024850Y018569D01*
X024850Y018642D01*
X024887Y018679D01*
X024923Y018679D01*
X025070Y018532D01*
X025070Y018679D01*
X025070Y019090D02*
X024850Y019090D01*
X024850Y019200D01*
X024887Y019237D01*
X024960Y019237D01*
X024997Y019200D01*
X024997Y019090D01*
X024960Y019311D02*
X024960Y019458D01*
X025033Y019532D02*
X025070Y019532D01*
X025033Y019532D02*
X024887Y019679D01*
X024850Y019679D01*
X024850Y019532D01*
X024850Y019458D02*
X025070Y019458D01*
X025070Y019311D02*
X024850Y019311D01*
X024850Y020090D02*
X024850Y020200D01*
X024887Y020237D01*
X024960Y020237D01*
X024997Y020200D01*
X024997Y020090D01*
X025070Y020090D02*
X024850Y020090D01*
X024850Y020311D02*
X025070Y020311D01*
X024960Y020311D02*
X024960Y020458D01*
X024887Y020532D02*
X024850Y020569D01*
X024850Y020642D01*
X024887Y020679D01*
X024923Y020679D01*
X025070Y020532D01*
X025070Y020679D01*
X025070Y020458D02*
X024850Y020458D01*
X022083Y016608D02*
X022047Y016608D01*
X022010Y016571D01*
X022010Y016461D01*
X022083Y016461D01*
X022120Y016498D01*
X022120Y016571D01*
X022083Y016608D01*
X021937Y016534D02*
X022010Y016461D01*
X021973Y016387D02*
X022120Y016240D01*
X022120Y016387D01*
X021973Y016387D02*
X021937Y016387D01*
X021900Y016350D01*
X021900Y016277D01*
X021937Y016240D01*
X021937Y016534D02*
X021900Y016608D01*
X019380Y008630D02*
X019280Y008630D01*
X019280Y007630D01*
X019380Y007630D01*
X018680Y007630D02*
X018680Y008630D01*
X017680Y008630D01*
X017680Y007630D01*
X018680Y007630D01*
X017930Y008130D02*
X017932Y008161D01*
X017938Y008192D01*
X017948Y008222D01*
X017961Y008250D01*
X017978Y008277D01*
X017998Y008301D01*
X018021Y008323D01*
X018046Y008341D01*
X018074Y008356D01*
X018103Y008368D01*
X018133Y008376D01*
X018164Y008380D01*
X018196Y008380D01*
X018227Y008376D01*
X018257Y008368D01*
X018286Y008356D01*
X018314Y008341D01*
X018339Y008323D01*
X018362Y008301D01*
X018382Y008277D01*
X018399Y008250D01*
X018412Y008222D01*
X018422Y008192D01*
X018428Y008161D01*
X018430Y008130D01*
X018428Y008099D01*
X018422Y008068D01*
X018412Y008038D01*
X018399Y008010D01*
X018382Y007983D01*
X018362Y007959D01*
X018339Y007937D01*
X018314Y007919D01*
X018286Y007904D01*
X018257Y007892D01*
X018227Y007884D01*
X018196Y007880D01*
X018164Y007880D01*
X018133Y007884D01*
X018103Y007892D01*
X018074Y007904D01*
X018046Y007919D01*
X018021Y007937D01*
X017998Y007959D01*
X017978Y007983D01*
X017961Y008010D01*
X017948Y008038D01*
X017938Y008068D01*
X017932Y008099D01*
X017930Y008130D01*
X017080Y007680D02*
X016980Y007680D01*
X017080Y007680D02*
X017080Y008630D01*
X016980Y008630D01*
X004630Y004080D02*
X004530Y004080D01*
X004530Y003130D01*
X004630Y003130D01*
X003930Y003130D02*
X003930Y004130D01*
X002930Y004130D01*
X002930Y003130D01*
X003930Y003130D01*
X003180Y003630D02*
X003182Y003661D01*
X003188Y003692D01*
X003198Y003722D01*
X003211Y003750D01*
X003228Y003777D01*
X003248Y003801D01*
X003271Y003823D01*
X003296Y003841D01*
X003324Y003856D01*
X003353Y003868D01*
X003383Y003876D01*
X003414Y003880D01*
X003446Y003880D01*
X003477Y003876D01*
X003507Y003868D01*
X003536Y003856D01*
X003564Y003841D01*
X003589Y003823D01*
X003612Y003801D01*
X003632Y003777D01*
X003649Y003750D01*
X003662Y003722D01*
X003672Y003692D01*
X003678Y003661D01*
X003680Y003630D01*
X003678Y003599D01*
X003672Y003568D01*
X003662Y003538D01*
X003649Y003510D01*
X003632Y003483D01*
X003612Y003459D01*
X003589Y003437D01*
X003564Y003419D01*
X003536Y003404D01*
X003507Y003392D01*
X003477Y003384D01*
X003446Y003380D01*
X003414Y003380D01*
X003383Y003384D01*
X003353Y003392D01*
X003324Y003404D01*
X003296Y003419D01*
X003271Y003437D01*
X003248Y003459D01*
X003228Y003483D01*
X003211Y003510D01*
X003198Y003538D01*
X003188Y003568D01*
X003182Y003599D01*
X003180Y003630D01*
X002330Y004130D02*
X002330Y003130D01*
X002230Y003130D01*
X002230Y004130D02*
X002330Y004130D01*
D14*
X034430Y000630D02*
X034430Y013130D01*
X037930Y013130D01*
X037930Y000630D01*
X034430Y000630D01*
X042430Y000630D02*
X042430Y013130D01*
X045930Y013130D01*
X045930Y000630D01*
X042430Y000630D01*
X050430Y000630D02*
X050430Y013130D01*
X053930Y013130D01*
X053930Y000630D01*
X050430Y000630D01*
D15*
X053930Y006880D03*
X045930Y006880D03*
X037930Y007130D03*
D16*
X041265Y006905D02*
X041645Y006525D01*
X041550Y006620D02*
X041835Y006905D01*
X041835Y007133D02*
X041455Y007133D01*
X041455Y007418D01*
X041550Y007513D01*
X041835Y007513D01*
X041740Y007740D02*
X041455Y007740D01*
X041740Y007740D02*
X041835Y007836D01*
X041835Y008121D01*
X041455Y008121D01*
X041550Y008348D02*
X041740Y008348D01*
X041835Y008443D01*
X041835Y008728D01*
X041835Y008956D02*
X041265Y008956D01*
X041455Y008728D02*
X041455Y008443D01*
X041550Y008348D01*
X041645Y008956D02*
X041455Y009241D01*
X041265Y009462D02*
X041265Y009557D01*
X041835Y009557D01*
X041835Y009462D02*
X041835Y009652D01*
X041740Y009867D02*
X041550Y009867D01*
X041455Y009963D01*
X041455Y010153D01*
X041550Y010248D01*
X041645Y010248D01*
X041645Y009867D01*
X041740Y009867D02*
X041835Y009963D01*
X041835Y010153D01*
X041835Y010475D02*
X041455Y010855D01*
X041360Y010855D01*
X041265Y010760D01*
X041265Y010570D01*
X041360Y010475D01*
X041835Y010475D02*
X041835Y010855D01*
X041835Y009241D02*
X041645Y008956D01*
X041835Y006525D02*
X041265Y006525D01*
X033835Y006513D02*
X033550Y006513D01*
X033455Y006418D01*
X033455Y006133D01*
X033835Y006133D01*
X033835Y005905D02*
X033550Y005620D01*
X033645Y005525D02*
X033265Y005905D01*
X033265Y005525D02*
X033835Y005525D01*
X033740Y006740D02*
X033835Y006836D01*
X033835Y007121D01*
X033455Y007121D01*
X033550Y007348D02*
X033740Y007348D01*
X033835Y007443D01*
X033835Y007728D01*
X033835Y007956D02*
X033265Y007956D01*
X033455Y007728D02*
X033455Y007443D01*
X033550Y007348D01*
X033645Y007956D02*
X033455Y008241D01*
X033265Y008462D02*
X033265Y008557D01*
X033835Y008557D01*
X033835Y008462D02*
X033835Y008652D01*
X033740Y008867D02*
X033550Y008867D01*
X033455Y008963D01*
X033455Y009153D01*
X033550Y009248D01*
X033645Y009248D01*
X033645Y008867D01*
X033740Y008867D02*
X033835Y008963D01*
X033835Y009153D01*
X033835Y009475D02*
X033835Y009855D01*
X033835Y009665D02*
X033265Y009665D01*
X033455Y009475D01*
X033835Y008241D02*
X033645Y007956D01*
X033740Y006740D02*
X033455Y006740D01*
X049265Y007206D02*
X049835Y007206D01*
X049645Y007206D02*
X049455Y007491D01*
X049265Y007712D02*
X049265Y007807D01*
X049835Y007807D01*
X049835Y007712D02*
X049835Y007902D01*
X049740Y008117D02*
X049550Y008117D01*
X049455Y008213D01*
X049455Y008403D01*
X049550Y008498D01*
X049645Y008498D01*
X049645Y008117D01*
X049740Y008117D02*
X049835Y008213D01*
X049835Y008403D01*
X049740Y008725D02*
X049835Y008820D01*
X049835Y009010D01*
X049740Y009105D01*
X049645Y009105D01*
X049550Y009010D01*
X049550Y008915D01*
X049550Y009010D02*
X049455Y009105D01*
X049360Y009105D01*
X049265Y009010D01*
X049265Y008820D01*
X049360Y008725D01*
X049835Y007491D02*
X049645Y007206D01*
X049835Y006978D02*
X049835Y006693D01*
X049740Y006598D01*
X049550Y006598D01*
X049455Y006693D01*
X049455Y006978D01*
X049455Y006371D02*
X049835Y006371D01*
X049835Y006086D01*
X049740Y005990D01*
X049455Y005990D01*
X049550Y005763D02*
X049835Y005763D01*
X049550Y005763D02*
X049455Y005668D01*
X049455Y005383D01*
X049835Y005383D01*
X049835Y005155D02*
X049550Y004870D01*
X049645Y004775D02*
X049265Y005155D01*
X049265Y004775D02*
X049835Y004775D01*
X047695Y023925D02*
X047315Y023925D01*
X047695Y023925D02*
X047885Y024115D01*
X047695Y024305D01*
X047315Y024305D01*
X047505Y024533D02*
X047315Y024723D01*
X047505Y024913D01*
X047885Y024913D01*
X047885Y025140D02*
X047315Y025140D01*
X047600Y024913D02*
X047600Y024533D01*
X047505Y024533D02*
X047885Y024533D01*
X047885Y025140D02*
X047885Y025521D01*
X047695Y025748D02*
X047315Y025748D01*
X047695Y025748D02*
X047885Y025938D01*
X047695Y026128D01*
X047315Y026128D01*
X047315Y026356D02*
X047885Y026356D01*
X047885Y026736D01*
X047790Y026964D02*
X047885Y027059D01*
X047885Y027249D01*
X047790Y027344D01*
X047695Y027344D01*
X047600Y027249D01*
X047600Y027154D01*
X047600Y027249D02*
X047505Y027344D01*
X047410Y027344D01*
X047315Y027249D01*
X047315Y027059D01*
X047410Y026964D01*
X047315Y026736D02*
X047315Y026356D01*
X047600Y026356D02*
X047600Y026546D01*
X040135Y026356D02*
X040135Y026736D01*
X040135Y026964D02*
X039755Y027344D01*
X039660Y027344D01*
X039565Y027249D01*
X039565Y027059D01*
X039660Y026964D01*
X039565Y026736D02*
X039565Y026356D01*
X040135Y026356D01*
X039850Y026356D02*
X039850Y026546D01*
X040135Y026964D02*
X040135Y027344D01*
X039945Y026128D02*
X039565Y026128D01*
X039945Y026128D02*
X040135Y025938D01*
X039945Y025748D01*
X039565Y025748D01*
X040135Y025521D02*
X040135Y025140D01*
X039565Y025140D01*
X039755Y024913D02*
X040135Y024913D01*
X039850Y024913D02*
X039850Y024533D01*
X039755Y024533D02*
X039565Y024723D01*
X039755Y024913D01*
X039755Y024533D02*
X040135Y024533D01*
X039945Y024305D02*
X039565Y024305D01*
X039945Y024305D02*
X040135Y024115D01*
X039945Y023925D01*
X039565Y023925D01*
X032135Y024115D02*
X031945Y024305D01*
X031565Y024305D01*
X031755Y024533D02*
X031565Y024723D01*
X031755Y024913D01*
X032135Y024913D01*
X032135Y025140D02*
X031565Y025140D01*
X031850Y024913D02*
X031850Y024533D01*
X031755Y024533D02*
X032135Y024533D01*
X032135Y024115D02*
X031945Y023925D01*
X031565Y023925D01*
X032135Y025140D02*
X032135Y025521D01*
X031945Y025748D02*
X032135Y025938D01*
X031945Y026128D01*
X031565Y026128D01*
X031565Y026356D02*
X032135Y026356D01*
X032135Y026736D01*
X032135Y026964D02*
X032135Y027344D01*
X032135Y027154D02*
X031565Y027154D01*
X031755Y026964D01*
X031565Y026736D02*
X031565Y026356D01*
X031850Y026356D02*
X031850Y026546D01*
X031945Y025748D02*
X031565Y025748D01*
D17*
X032430Y026380D02*
X032680Y026630D01*
X033180Y026630D01*
X033430Y026380D01*
X033680Y026630D01*
X034180Y026630D01*
X034430Y026380D01*
X034680Y026630D01*
X035180Y026630D01*
X035430Y026380D01*
X035680Y026630D01*
X036180Y026630D01*
X036430Y026380D01*
X036430Y024880D01*
X036180Y024630D01*
X035680Y024630D01*
X035430Y024880D01*
X035180Y024630D01*
X034680Y024630D01*
X034430Y024880D01*
X034180Y024630D01*
X033680Y024630D01*
X033430Y024880D01*
X033180Y024630D01*
X032680Y024630D01*
X032430Y024880D01*
X032430Y026380D01*
X027180Y026130D02*
X027180Y025630D01*
X026930Y025380D01*
X025430Y025380D01*
X025180Y025630D01*
X025180Y026130D01*
X025430Y026380D01*
X026930Y026380D01*
X027180Y026130D01*
X026930Y025380D02*
X027180Y025130D01*
X027180Y024630D01*
X026930Y024380D01*
X025430Y024380D01*
X025180Y024630D01*
X025180Y025130D01*
X025430Y025380D01*
X025430Y024380D02*
X025180Y024130D01*
X025180Y023630D01*
X025430Y023380D01*
X026930Y023380D01*
X027180Y023630D01*
X027180Y024130D01*
X026930Y024380D01*
X023180Y024130D02*
X023180Y023630D01*
X022930Y023380D01*
X021430Y023380D01*
X021180Y023630D01*
X021180Y024130D01*
X021430Y024380D01*
X022930Y024380D01*
X023180Y024630D01*
X023180Y025130D01*
X022930Y025380D01*
X023180Y025630D01*
X023180Y026130D01*
X022930Y026380D01*
X021430Y026380D01*
X021180Y026130D01*
X021180Y025630D01*
X021430Y025380D01*
X022930Y025380D01*
X021430Y025380D02*
X021180Y025130D01*
X021180Y024630D01*
X021430Y024380D01*
X022930Y024380D02*
X023180Y024130D01*
X018500Y019755D02*
X018500Y019000D01*
X017860Y019000D02*
X017860Y019755D01*
X017000Y019755D02*
X017000Y019000D01*
X016360Y019000D02*
X016360Y019755D01*
X015000Y019755D02*
X015000Y019000D01*
X014360Y019000D02*
X014360Y019755D01*
X012310Y019700D02*
X011555Y019700D01*
X011555Y019060D02*
X012310Y019060D01*
X017285Y015304D02*
X017432Y015450D01*
X017432Y015010D01*
X017285Y015010D02*
X017579Y015010D01*
X028180Y012630D02*
X028180Y012130D01*
X028430Y011880D01*
X029930Y011880D01*
X030180Y012130D01*
X030180Y012630D01*
X029930Y012880D01*
X028430Y012880D01*
X028180Y012630D01*
X028430Y011880D02*
X028180Y011630D01*
X028180Y011130D01*
X028430Y010880D01*
X029930Y010880D01*
X030180Y011130D01*
X030180Y011630D01*
X029930Y011880D01*
X029930Y010880D02*
X030180Y010630D01*
X030180Y010130D01*
X029930Y009880D01*
X028430Y009880D01*
X028180Y010130D01*
X028180Y010630D01*
X028430Y010880D01*
X028430Y009880D02*
X028180Y009630D01*
X028180Y009130D01*
X028430Y008880D01*
X029930Y008880D01*
X030180Y009130D01*
X030180Y009630D01*
X029930Y009880D01*
X029930Y008880D02*
X030180Y008630D01*
X030180Y008130D01*
X029930Y007880D01*
X028430Y007880D01*
X028180Y008130D01*
X028180Y008630D01*
X028430Y008880D01*
X028430Y007880D02*
X028180Y007630D01*
X028180Y007130D01*
X028430Y006880D01*
X029930Y006880D01*
X030180Y007130D01*
X030180Y007630D01*
X029930Y007880D01*
X029930Y006880D02*
X030180Y006630D01*
X030180Y006130D01*
X029930Y005880D01*
X028430Y005880D01*
X028180Y006130D01*
X028180Y006630D01*
X028430Y006880D01*
X028430Y005880D02*
X028180Y005630D01*
X028180Y005130D01*
X028430Y004880D01*
X029930Y004880D01*
X030180Y005130D01*
X030180Y005630D01*
X029930Y005880D01*
X035180Y005630D02*
X035180Y006130D01*
X035430Y006380D01*
X036930Y006380D01*
X037180Y006630D01*
X037180Y007130D01*
X036930Y007380D01*
X035430Y007380D01*
X035180Y007630D01*
X035180Y008130D01*
X035430Y008380D01*
X035180Y008630D01*
X035180Y009130D01*
X035430Y009380D01*
X036930Y009380D01*
X037180Y009130D01*
X037180Y008630D01*
X036930Y008380D01*
X035430Y008380D01*
X035430Y007380D02*
X035180Y007130D01*
X035180Y006630D01*
X035430Y006380D01*
X035180Y005630D02*
X035430Y005380D01*
X036930Y005380D01*
X037180Y005630D01*
X037180Y006130D01*
X036930Y006380D01*
X036930Y005380D02*
X037180Y005130D01*
X037180Y004630D01*
X036930Y004380D01*
X035430Y004380D01*
X035180Y004630D01*
X035180Y005130D01*
X035430Y005380D01*
X036930Y007380D02*
X037180Y007630D01*
X037180Y008130D01*
X036930Y008380D01*
X043180Y008130D02*
X043180Y007630D01*
X043430Y007380D01*
X044930Y007380D01*
X045180Y007630D01*
X045180Y008130D01*
X044930Y008380D01*
X045180Y008630D01*
X045180Y009130D01*
X044930Y009380D01*
X043430Y009380D01*
X043180Y009130D01*
X043180Y008630D01*
X043430Y008380D01*
X044930Y008380D01*
X043430Y008380D02*
X043180Y008130D01*
X043430Y007380D02*
X043180Y007130D01*
X043180Y006630D01*
X043430Y006380D01*
X044930Y006380D01*
X045180Y006630D01*
X045180Y007130D01*
X044930Y007380D01*
X044930Y006380D02*
X045180Y006130D01*
X045180Y005630D01*
X044930Y005380D01*
X043430Y005380D01*
X043180Y005630D01*
X043180Y006130D01*
X043430Y006380D01*
X043430Y005380D02*
X043180Y005130D01*
X043180Y004630D01*
X043430Y004380D01*
X044930Y004380D01*
X045180Y004630D01*
X045180Y005130D01*
X044930Y005380D01*
X051180Y005130D02*
X051180Y004630D01*
X051430Y004380D01*
X052930Y004380D01*
X053180Y004630D01*
X053180Y005130D01*
X052930Y005380D01*
X051430Y005380D01*
X051180Y005630D01*
X051180Y006130D01*
X051430Y006380D01*
X052930Y006380D01*
X053180Y006630D01*
X053180Y007130D01*
X052930Y007380D01*
X051430Y007380D01*
X051180Y007630D01*
X051180Y008130D01*
X051430Y008380D01*
X051180Y008630D01*
X051180Y009130D01*
X051430Y009380D01*
X052930Y009380D01*
X053180Y009130D01*
X053180Y008630D01*
X052930Y008380D01*
X051430Y008380D01*
X052930Y008380D02*
X053180Y008130D01*
X053180Y007630D01*
X052930Y007380D01*
X051430Y007380D02*
X051180Y007130D01*
X051180Y006630D01*
X051430Y006380D01*
X052930Y006380D02*
X053180Y006130D01*
X053180Y005630D01*
X052930Y005380D01*
X051430Y005380D02*
X051180Y005130D01*
X019380Y007130D02*
X019180Y006930D01*
X018580Y006930D01*
X018480Y006930D01*
X018480Y006830D01*
X017880Y006830D01*
X017880Y006930D01*
X017780Y006930D01*
X017180Y006930D01*
X016980Y007130D01*
X016980Y007280D01*
X016980Y007680D01*
X016980Y008630D01*
X016980Y008980D01*
X016980Y009130D01*
X017180Y009330D01*
X017780Y009330D01*
X017880Y009330D01*
X017880Y009430D01*
X018480Y009430D01*
X018480Y009330D01*
X018580Y009330D01*
X019180Y009330D01*
X019380Y009130D01*
X019380Y008980D01*
X019380Y008630D01*
X019380Y007630D01*
X019380Y007280D01*
X019380Y007130D01*
X018830Y007280D02*
X018832Y007308D01*
X018838Y007335D01*
X018847Y007361D01*
X018860Y007386D01*
X018877Y007409D01*
X018896Y007429D01*
X018918Y007446D01*
X018942Y007460D01*
X018968Y007470D01*
X018995Y007477D01*
X019023Y007480D01*
X019051Y007479D01*
X019078Y007474D01*
X019105Y007465D01*
X019130Y007453D01*
X019153Y007438D01*
X019174Y007419D01*
X019192Y007398D01*
X019207Y007374D01*
X019218Y007348D01*
X019226Y007322D01*
X019230Y007294D01*
X019230Y007266D01*
X019226Y007238D01*
X019218Y007212D01*
X019207Y007186D01*
X019192Y007162D01*
X019174Y007141D01*
X019153Y007122D01*
X019130Y007107D01*
X019105Y007095D01*
X019078Y007086D01*
X019051Y007081D01*
X019023Y007080D01*
X018995Y007083D01*
X018968Y007090D01*
X018942Y007100D01*
X018918Y007114D01*
X018896Y007131D01*
X018877Y007151D01*
X018860Y007174D01*
X018847Y007199D01*
X018838Y007225D01*
X018832Y007252D01*
X018830Y007280D01*
X019080Y007630D02*
X019080Y008630D01*
X018830Y008980D02*
X018832Y009008D01*
X018838Y009035D01*
X018847Y009061D01*
X018860Y009086D01*
X018877Y009109D01*
X018896Y009129D01*
X018918Y009146D01*
X018942Y009160D01*
X018968Y009170D01*
X018995Y009177D01*
X019023Y009180D01*
X019051Y009179D01*
X019078Y009174D01*
X019105Y009165D01*
X019130Y009153D01*
X019153Y009138D01*
X019174Y009119D01*
X019192Y009098D01*
X019207Y009074D01*
X019218Y009048D01*
X019226Y009022D01*
X019230Y008994D01*
X019230Y008966D01*
X019226Y008938D01*
X019218Y008912D01*
X019207Y008886D01*
X019192Y008862D01*
X019174Y008841D01*
X019153Y008822D01*
X019130Y008807D01*
X019105Y008795D01*
X019078Y008786D01*
X019051Y008781D01*
X019023Y008780D01*
X018995Y008783D01*
X018968Y008790D01*
X018942Y008800D01*
X018918Y008814D01*
X018896Y008831D01*
X018877Y008851D01*
X018860Y008874D01*
X018847Y008899D01*
X018838Y008925D01*
X018832Y008952D01*
X018830Y008980D01*
X018680Y009080D02*
X018380Y009080D01*
X018030Y008980D01*
X017980Y009080D02*
X017680Y009080D01*
X017130Y008980D02*
X017132Y009008D01*
X017138Y009035D01*
X017147Y009061D01*
X017160Y009086D01*
X017177Y009109D01*
X017196Y009129D01*
X017218Y009146D01*
X017242Y009160D01*
X017268Y009170D01*
X017295Y009177D01*
X017323Y009180D01*
X017351Y009179D01*
X017378Y009174D01*
X017405Y009165D01*
X017430Y009153D01*
X017453Y009138D01*
X017474Y009119D01*
X017492Y009098D01*
X017507Y009074D01*
X017518Y009048D01*
X017526Y009022D01*
X017530Y008994D01*
X017530Y008966D01*
X017526Y008938D01*
X017518Y008912D01*
X017507Y008886D01*
X017492Y008862D01*
X017474Y008841D01*
X017453Y008822D01*
X017430Y008807D01*
X017405Y008795D01*
X017378Y008786D01*
X017351Y008781D01*
X017323Y008780D01*
X017295Y008783D01*
X017268Y008790D01*
X017242Y008800D01*
X017218Y008814D01*
X017196Y008831D01*
X017177Y008851D01*
X017160Y008874D01*
X017147Y008899D01*
X017138Y008925D01*
X017132Y008952D01*
X017130Y008980D01*
X017330Y008630D02*
X017330Y007630D01*
X017180Y007280D02*
X017182Y007308D01*
X017188Y007335D01*
X017197Y007361D01*
X017210Y007386D01*
X017227Y007409D01*
X017246Y007429D01*
X017268Y007446D01*
X017292Y007460D01*
X017318Y007470D01*
X017345Y007477D01*
X017373Y007480D01*
X017401Y007479D01*
X017428Y007474D01*
X017455Y007465D01*
X017480Y007453D01*
X017503Y007438D01*
X017524Y007419D01*
X017542Y007398D01*
X017557Y007374D01*
X017568Y007348D01*
X017576Y007322D01*
X017580Y007294D01*
X017580Y007266D01*
X017576Y007238D01*
X017568Y007212D01*
X017557Y007186D01*
X017542Y007162D01*
X017524Y007141D01*
X017503Y007122D01*
X017480Y007107D01*
X017455Y007095D01*
X017428Y007086D01*
X017401Y007081D01*
X017373Y007080D01*
X017345Y007083D01*
X017318Y007090D01*
X017292Y007100D01*
X017268Y007114D01*
X017246Y007131D01*
X017227Y007151D01*
X017210Y007174D01*
X017197Y007199D01*
X017188Y007225D01*
X017182Y007252D01*
X017180Y007280D01*
X018080Y008130D02*
X018082Y008150D01*
X018088Y008168D01*
X018097Y008186D01*
X018109Y008201D01*
X018124Y008213D01*
X018142Y008222D01*
X018160Y008228D01*
X018180Y008230D01*
X018200Y008228D01*
X018218Y008222D01*
X018236Y008213D01*
X018251Y008201D01*
X018263Y008186D01*
X018272Y008168D01*
X018278Y008150D01*
X018280Y008130D01*
X018278Y008110D01*
X018272Y008092D01*
X018263Y008074D01*
X018251Y008059D01*
X018236Y008047D01*
X018218Y008038D01*
X018200Y008032D01*
X018180Y008030D01*
X018160Y008032D01*
X018142Y008038D01*
X018124Y008047D01*
X018109Y008059D01*
X018097Y008074D01*
X018088Y008092D01*
X018082Y008110D01*
X018080Y008130D01*
X017480Y008130D02*
X017482Y008182D01*
X017488Y008234D01*
X017498Y008286D01*
X017511Y008336D01*
X017528Y008386D01*
X017549Y008434D01*
X017574Y008480D01*
X017602Y008524D01*
X017633Y008566D01*
X017667Y008606D01*
X017704Y008643D01*
X017744Y008677D01*
X017786Y008708D01*
X017830Y008736D01*
X017876Y008761D01*
X017924Y008782D01*
X017974Y008799D01*
X018024Y008812D01*
X018076Y008822D01*
X018128Y008828D01*
X018180Y008830D01*
X018232Y008828D01*
X018284Y008822D01*
X018336Y008812D01*
X018386Y008799D01*
X018436Y008782D01*
X018484Y008761D01*
X018530Y008736D01*
X018574Y008708D01*
X018616Y008677D01*
X018656Y008643D01*
X018693Y008606D01*
X018727Y008566D01*
X018758Y008524D01*
X018786Y008480D01*
X018811Y008434D01*
X018832Y008386D01*
X018849Y008336D01*
X018862Y008286D01*
X018872Y008234D01*
X018878Y008182D01*
X018880Y008130D01*
X018878Y008078D01*
X018872Y008026D01*
X018862Y007974D01*
X018849Y007924D01*
X018832Y007874D01*
X018811Y007826D01*
X018786Y007780D01*
X018758Y007736D01*
X018727Y007694D01*
X018693Y007654D01*
X018656Y007617D01*
X018616Y007583D01*
X018574Y007552D01*
X018530Y007524D01*
X018484Y007499D01*
X018436Y007478D01*
X018386Y007461D01*
X018336Y007448D01*
X018284Y007438D01*
X018232Y007432D01*
X018180Y007430D01*
X018128Y007432D01*
X018076Y007438D01*
X018024Y007448D01*
X017974Y007461D01*
X017924Y007478D01*
X017876Y007499D01*
X017830Y007524D01*
X017786Y007552D01*
X017744Y007583D01*
X017704Y007617D01*
X017667Y007654D01*
X017633Y007694D01*
X017602Y007736D01*
X017574Y007780D01*
X017549Y007826D01*
X017528Y007874D01*
X017511Y007924D01*
X017498Y007974D01*
X017488Y008026D01*
X017482Y008078D01*
X017480Y008130D01*
X004630Y004630D02*
X004630Y004480D01*
X004630Y004080D01*
X004630Y003130D01*
X004630Y002780D01*
X004630Y002630D01*
X004430Y002430D01*
X003830Y002430D01*
X003730Y002430D01*
X003730Y002330D01*
X003130Y002330D01*
X003130Y002430D01*
X003030Y002430D01*
X002430Y002430D01*
X002230Y002630D01*
X002230Y002780D01*
X002230Y003130D01*
X002230Y004130D01*
X002230Y004480D01*
X002230Y004630D01*
X002430Y004830D01*
X003030Y004830D01*
X003130Y004830D01*
X003130Y004930D01*
X003730Y004930D01*
X003730Y004830D01*
X003830Y004830D01*
X004430Y004830D01*
X004630Y004630D01*
X004030Y004480D02*
X004032Y004508D01*
X004038Y004535D01*
X004047Y004561D01*
X004060Y004586D01*
X004077Y004609D01*
X004096Y004629D01*
X004118Y004646D01*
X004142Y004660D01*
X004168Y004670D01*
X004195Y004677D01*
X004223Y004680D01*
X004251Y004679D01*
X004278Y004674D01*
X004305Y004665D01*
X004330Y004653D01*
X004353Y004638D01*
X004374Y004619D01*
X004392Y004598D01*
X004407Y004574D01*
X004418Y004548D01*
X004426Y004522D01*
X004430Y004494D01*
X004430Y004466D01*
X004426Y004438D01*
X004418Y004412D01*
X004407Y004386D01*
X004392Y004362D01*
X004374Y004341D01*
X004353Y004322D01*
X004330Y004307D01*
X004305Y004295D01*
X004278Y004286D01*
X004251Y004281D01*
X004223Y004280D01*
X004195Y004283D01*
X004168Y004290D01*
X004142Y004300D01*
X004118Y004314D01*
X004096Y004331D01*
X004077Y004351D01*
X004060Y004374D01*
X004047Y004399D01*
X004038Y004425D01*
X004032Y004452D01*
X004030Y004480D01*
X004280Y004130D02*
X004280Y003130D01*
X003330Y003630D02*
X003332Y003650D01*
X003338Y003668D01*
X003347Y003686D01*
X003359Y003701D01*
X003374Y003713D01*
X003392Y003722D01*
X003410Y003728D01*
X003430Y003730D01*
X003450Y003728D01*
X003468Y003722D01*
X003486Y003713D01*
X003501Y003701D01*
X003513Y003686D01*
X003522Y003668D01*
X003528Y003650D01*
X003530Y003630D01*
X003528Y003610D01*
X003522Y003592D01*
X003513Y003574D01*
X003501Y003559D01*
X003486Y003547D01*
X003468Y003538D01*
X003450Y003532D01*
X003430Y003530D01*
X003410Y003532D01*
X003392Y003538D01*
X003374Y003547D01*
X003359Y003559D01*
X003347Y003574D01*
X003338Y003592D01*
X003332Y003610D01*
X003330Y003630D01*
X002730Y003630D02*
X002732Y003682D01*
X002738Y003734D01*
X002748Y003786D01*
X002761Y003836D01*
X002778Y003886D01*
X002799Y003934D01*
X002824Y003980D01*
X002852Y004024D01*
X002883Y004066D01*
X002917Y004106D01*
X002954Y004143D01*
X002994Y004177D01*
X003036Y004208D01*
X003080Y004236D01*
X003126Y004261D01*
X003174Y004282D01*
X003224Y004299D01*
X003274Y004312D01*
X003326Y004322D01*
X003378Y004328D01*
X003430Y004330D01*
X003482Y004328D01*
X003534Y004322D01*
X003586Y004312D01*
X003636Y004299D01*
X003686Y004282D01*
X003734Y004261D01*
X003780Y004236D01*
X003824Y004208D01*
X003866Y004177D01*
X003906Y004143D01*
X003943Y004106D01*
X003977Y004066D01*
X004008Y004024D01*
X004036Y003980D01*
X004061Y003934D01*
X004082Y003886D01*
X004099Y003836D01*
X004112Y003786D01*
X004122Y003734D01*
X004128Y003682D01*
X004130Y003630D01*
X004128Y003578D01*
X004122Y003526D01*
X004112Y003474D01*
X004099Y003424D01*
X004082Y003374D01*
X004061Y003326D01*
X004036Y003280D01*
X004008Y003236D01*
X003977Y003194D01*
X003943Y003154D01*
X003906Y003117D01*
X003866Y003083D01*
X003824Y003052D01*
X003780Y003024D01*
X003734Y002999D01*
X003686Y002978D01*
X003636Y002961D01*
X003586Y002948D01*
X003534Y002938D01*
X003482Y002932D01*
X003430Y002930D01*
X003378Y002932D01*
X003326Y002938D01*
X003274Y002948D01*
X003224Y002961D01*
X003174Y002978D01*
X003126Y002999D01*
X003080Y003024D01*
X003036Y003052D01*
X002994Y003083D01*
X002954Y003117D01*
X002917Y003154D01*
X002883Y003194D01*
X002852Y003236D01*
X002824Y003280D01*
X002799Y003326D01*
X002778Y003374D01*
X002761Y003424D01*
X002748Y003474D01*
X002738Y003526D01*
X002732Y003578D01*
X002730Y003630D01*
X002530Y004130D02*
X002530Y003130D01*
X002380Y002780D02*
X002382Y002808D01*
X002388Y002835D01*
X002397Y002861D01*
X002410Y002886D01*
X002427Y002909D01*
X002446Y002929D01*
X002468Y002946D01*
X002492Y002960D01*
X002518Y002970D01*
X002545Y002977D01*
X002573Y002980D01*
X002601Y002979D01*
X002628Y002974D01*
X002655Y002965D01*
X002680Y002953D01*
X002703Y002938D01*
X002724Y002919D01*
X002742Y002898D01*
X002757Y002874D01*
X002768Y002848D01*
X002776Y002822D01*
X002780Y002794D01*
X002780Y002766D01*
X002776Y002738D01*
X002768Y002712D01*
X002757Y002686D01*
X002742Y002662D01*
X002724Y002641D01*
X002703Y002622D01*
X002680Y002607D01*
X002655Y002595D01*
X002628Y002586D01*
X002601Y002581D01*
X002573Y002580D01*
X002545Y002583D01*
X002518Y002590D01*
X002492Y002600D01*
X002468Y002614D01*
X002446Y002631D01*
X002427Y002651D01*
X002410Y002674D01*
X002397Y002699D01*
X002388Y002725D01*
X002382Y002752D01*
X002380Y002780D01*
X002930Y002680D02*
X003230Y002680D01*
X003580Y002780D01*
X003630Y002680D02*
X003930Y002680D01*
X004080Y002780D02*
X004082Y002808D01*
X004088Y002835D01*
X004097Y002861D01*
X004110Y002886D01*
X004127Y002909D01*
X004146Y002929D01*
X004168Y002946D01*
X004192Y002960D01*
X004218Y002970D01*
X004245Y002977D01*
X004273Y002980D01*
X004301Y002979D01*
X004328Y002974D01*
X004355Y002965D01*
X004380Y002953D01*
X004403Y002938D01*
X004424Y002919D01*
X004442Y002898D01*
X004457Y002874D01*
X004468Y002848D01*
X004476Y002822D01*
X004480Y002794D01*
X004480Y002766D01*
X004476Y002738D01*
X004468Y002712D01*
X004457Y002686D01*
X004442Y002662D01*
X004424Y002641D01*
X004403Y002622D01*
X004380Y002607D01*
X004355Y002595D01*
X004328Y002586D01*
X004301Y002581D01*
X004273Y002580D01*
X004245Y002583D01*
X004218Y002590D01*
X004192Y002600D01*
X004168Y002614D01*
X004146Y002631D01*
X004127Y002651D01*
X004110Y002674D01*
X004097Y002699D01*
X004088Y002725D01*
X004082Y002752D01*
X004080Y002780D01*
X002380Y004480D02*
X002382Y004508D01*
X002388Y004535D01*
X002397Y004561D01*
X002410Y004586D01*
X002427Y004609D01*
X002446Y004629D01*
X002468Y004646D01*
X002492Y004660D01*
X002518Y004670D01*
X002545Y004677D01*
X002573Y004680D01*
X002601Y004679D01*
X002628Y004674D01*
X002655Y004665D01*
X002680Y004653D01*
X002703Y004638D01*
X002724Y004619D01*
X002742Y004598D01*
X002757Y004574D01*
X002768Y004548D01*
X002776Y004522D01*
X002780Y004494D01*
X002780Y004466D01*
X002776Y004438D01*
X002768Y004412D01*
X002757Y004386D01*
X002742Y004362D01*
X002724Y004341D01*
X002703Y004322D01*
X002680Y004307D01*
X002655Y004295D01*
X002628Y004286D01*
X002601Y004281D01*
X002573Y004280D01*
X002545Y004283D01*
X002518Y004290D01*
X002492Y004300D01*
X002468Y004314D01*
X002446Y004331D01*
X002427Y004351D01*
X002410Y004374D01*
X002397Y004399D01*
X002388Y004425D01*
X002382Y004452D01*
X002380Y004480D01*
X002430Y007380D02*
X002180Y007630D01*
X001930Y007380D01*
X001430Y007380D01*
X001180Y007630D01*
X001180Y009130D01*
X001430Y009380D01*
X001930Y009380D01*
X002180Y009130D01*
X002180Y007630D01*
X002430Y007380D02*
X002930Y007380D01*
X003180Y007630D01*
X003180Y009130D01*
X002930Y009380D01*
X002430Y009380D01*
X002180Y009130D01*
X003180Y009130D02*
X003430Y009380D01*
X003930Y009380D01*
X004180Y009130D01*
X004180Y007630D01*
X003930Y007380D01*
X003430Y007380D01*
X003180Y007630D01*
X003820Y011664D02*
X001220Y011664D01*
X000280Y011664D01*
X000280Y015594D01*
X001220Y015594D01*
X003820Y015594D01*
X003900Y015594D01*
X003900Y011664D01*
X003820Y011664D01*
X003820Y015594D01*
X003100Y014614D02*
X003102Y014642D01*
X003108Y014669D01*
X003117Y014695D01*
X003130Y014720D01*
X003147Y014743D01*
X003166Y014763D01*
X003188Y014780D01*
X003212Y014794D01*
X003238Y014804D01*
X003265Y014811D01*
X003293Y014814D01*
X003321Y014813D01*
X003348Y014808D01*
X003375Y014799D01*
X003400Y014787D01*
X003423Y014772D01*
X003444Y014753D01*
X003462Y014732D01*
X003477Y014708D01*
X003488Y014682D01*
X003496Y014656D01*
X003500Y014628D01*
X003500Y014600D01*
X003496Y014572D01*
X003488Y014546D01*
X003477Y014520D01*
X003462Y014496D01*
X003444Y014475D01*
X003423Y014456D01*
X003400Y014441D01*
X003375Y014429D01*
X003348Y014420D01*
X003321Y014415D01*
X003293Y014414D01*
X003265Y014417D01*
X003238Y014424D01*
X003212Y014434D01*
X003188Y014448D01*
X003166Y014465D01*
X003147Y014485D01*
X003130Y014508D01*
X003117Y014533D01*
X003108Y014559D01*
X003102Y014586D01*
X003100Y014614D01*
X001340Y014614D02*
X001342Y014662D01*
X001348Y014710D01*
X001358Y014757D01*
X001371Y014803D01*
X001388Y014848D01*
X001409Y014891D01*
X001434Y014933D01*
X001461Y014972D01*
X001492Y015009D01*
X001526Y015044D01*
X001562Y015075D01*
X001601Y015104D01*
X001642Y015129D01*
X001685Y015151D01*
X001729Y015169D01*
X001775Y015183D01*
X001822Y015194D01*
X001870Y015201D01*
X001918Y015204D01*
X001966Y015203D01*
X002014Y015198D01*
X002061Y015189D01*
X002108Y015177D01*
X002153Y015160D01*
X002197Y015140D01*
X002239Y015117D01*
X002279Y015090D01*
X002316Y015060D01*
X002351Y015027D01*
X002384Y014991D01*
X002413Y014953D01*
X002439Y014912D01*
X002462Y014870D01*
X002481Y014826D01*
X002496Y014780D01*
X002508Y014734D01*
X002516Y014686D01*
X002520Y014638D01*
X002520Y014590D01*
X002516Y014542D01*
X002508Y014494D01*
X002496Y014448D01*
X002481Y014402D01*
X002462Y014358D01*
X002439Y014316D01*
X002413Y014275D01*
X002384Y014237D01*
X002351Y014201D01*
X002316Y014168D01*
X002279Y014138D01*
X002239Y014111D01*
X002197Y014088D01*
X002153Y014068D01*
X002108Y014051D01*
X002061Y014039D01*
X002014Y014030D01*
X001966Y014025D01*
X001918Y014024D01*
X001870Y014027D01*
X001822Y014034D01*
X001775Y014045D01*
X001729Y014059D01*
X001685Y014077D01*
X001642Y014099D01*
X001601Y014124D01*
X001562Y014153D01*
X001526Y014184D01*
X001492Y014219D01*
X001461Y014256D01*
X001434Y014295D01*
X001409Y014337D01*
X001388Y014380D01*
X001371Y014425D01*
X001358Y014471D01*
X001348Y014518D01*
X001342Y014566D01*
X001340Y014614D01*
X001220Y014264D02*
X001220Y012994D01*
X001220Y012294D01*
X001220Y011664D01*
X001340Y012644D02*
X001342Y012692D01*
X001348Y012740D01*
X001358Y012787D01*
X001371Y012833D01*
X001388Y012878D01*
X001409Y012921D01*
X001434Y012963D01*
X001461Y013002D01*
X001492Y013039D01*
X001526Y013074D01*
X001562Y013105D01*
X001601Y013134D01*
X001642Y013159D01*
X001685Y013181D01*
X001729Y013199D01*
X001775Y013213D01*
X001822Y013224D01*
X001870Y013231D01*
X001918Y013234D01*
X001966Y013233D01*
X002014Y013228D01*
X002061Y013219D01*
X002108Y013207D01*
X002153Y013190D01*
X002197Y013170D01*
X002239Y013147D01*
X002279Y013120D01*
X002316Y013090D01*
X002351Y013057D01*
X002384Y013021D01*
X002413Y012983D01*
X002439Y012942D01*
X002462Y012900D01*
X002481Y012856D01*
X002496Y012810D01*
X002508Y012764D01*
X002516Y012716D01*
X002520Y012668D01*
X002520Y012620D01*
X002516Y012572D01*
X002508Y012524D01*
X002496Y012478D01*
X002481Y012432D01*
X002462Y012388D01*
X002439Y012346D01*
X002413Y012305D01*
X002384Y012267D01*
X002351Y012231D01*
X002316Y012198D01*
X002279Y012168D01*
X002239Y012141D01*
X002197Y012118D01*
X002153Y012098D01*
X002108Y012081D01*
X002061Y012069D01*
X002014Y012060D01*
X001966Y012055D01*
X001918Y012054D01*
X001870Y012057D01*
X001822Y012064D01*
X001775Y012075D01*
X001729Y012089D01*
X001685Y012107D01*
X001642Y012129D01*
X001601Y012154D01*
X001562Y012183D01*
X001526Y012214D01*
X001492Y012249D01*
X001461Y012286D01*
X001434Y012325D01*
X001409Y012367D01*
X001388Y012410D01*
X001371Y012455D01*
X001358Y012501D01*
X001348Y012548D01*
X001342Y012596D01*
X001340Y012644D01*
X003100Y012644D02*
X003102Y012672D01*
X003108Y012699D01*
X003117Y012725D01*
X003130Y012750D01*
X003147Y012773D01*
X003166Y012793D01*
X003188Y012810D01*
X003212Y012824D01*
X003238Y012834D01*
X003265Y012841D01*
X003293Y012844D01*
X003321Y012843D01*
X003348Y012838D01*
X003375Y012829D01*
X003400Y012817D01*
X003423Y012802D01*
X003444Y012783D01*
X003462Y012762D01*
X003477Y012738D01*
X003488Y012712D01*
X003496Y012686D01*
X003500Y012658D01*
X003500Y012630D01*
X003496Y012602D01*
X003488Y012576D01*
X003477Y012550D01*
X003462Y012526D01*
X003444Y012505D01*
X003423Y012486D01*
X003400Y012471D01*
X003375Y012459D01*
X003348Y012450D01*
X003321Y012445D01*
X003293Y012444D01*
X003265Y012447D01*
X003238Y012454D01*
X003212Y012464D01*
X003188Y012478D01*
X003166Y012495D01*
X003147Y012515D01*
X003130Y012538D01*
X003117Y012563D01*
X003108Y012589D01*
X003102Y012616D01*
X003100Y012644D01*
X001220Y014264D02*
X001220Y014964D01*
X001220Y015594D01*
X001430Y017380D02*
X001930Y017380D01*
X002180Y017630D01*
X002180Y019130D01*
X002430Y019380D01*
X002930Y019380D01*
X003180Y019130D01*
X003430Y019380D01*
X003930Y019380D01*
X004180Y019130D01*
X004180Y017630D01*
X003930Y017380D01*
X003430Y017380D01*
X003180Y017630D01*
X003180Y019130D01*
X002180Y019130D02*
X001930Y019380D01*
X001430Y019380D01*
X001180Y019130D01*
X001180Y017630D01*
X001430Y017380D01*
X002180Y017630D02*
X002430Y017380D01*
X002930Y017380D01*
X003180Y017630D01*
X005430Y023380D02*
X005930Y023380D01*
X006180Y023630D01*
X006180Y025130D01*
X006430Y025380D01*
X006930Y025380D01*
X007180Y025130D01*
X007180Y023630D01*
X007430Y023380D01*
X007930Y023380D01*
X008180Y023630D01*
X008430Y023380D01*
X008930Y023380D01*
X009180Y023630D01*
X009180Y025130D01*
X008930Y025380D01*
X008430Y025380D01*
X008180Y025130D01*
X008180Y023630D01*
X007180Y023630D02*
X006930Y023380D01*
X006430Y023380D01*
X006180Y023630D01*
X005430Y023380D02*
X005180Y023630D01*
X005180Y025130D01*
X005430Y025380D01*
X005930Y025380D01*
X006180Y025130D01*
X007180Y025130D02*
X007430Y025380D01*
X007930Y025380D01*
X008180Y025130D01*
X034480Y022960D02*
X035380Y022960D01*
X035380Y022300D02*
X034480Y022300D01*
X034480Y021960D02*
X035380Y021960D01*
X035380Y021300D02*
X034480Y021300D01*
X040430Y024880D02*
X040680Y024630D01*
X041180Y024630D01*
X041430Y024880D01*
X041680Y024630D01*
X042180Y024630D01*
X042430Y024880D01*
X042680Y024630D01*
X043180Y024630D01*
X043430Y024880D01*
X043680Y024630D01*
X044180Y024630D01*
X044430Y024880D01*
X044430Y026380D01*
X044180Y026630D01*
X043680Y026630D01*
X043430Y026380D01*
X043180Y026630D01*
X042680Y026630D01*
X042430Y026380D01*
X042180Y026630D01*
X041680Y026630D01*
X041430Y026380D01*
X041180Y026630D01*
X040680Y026630D01*
X040430Y026380D01*
X040430Y024880D01*
X042480Y022960D02*
X043380Y022960D01*
X043380Y022300D02*
X042480Y022300D01*
X042480Y021960D02*
X043380Y021960D01*
X043380Y021300D02*
X042480Y021300D01*
X048180Y024880D02*
X048430Y024630D01*
X048930Y024630D01*
X049180Y024880D01*
X049430Y024630D01*
X049930Y024630D01*
X050180Y024880D01*
X050430Y024630D01*
X050930Y024630D01*
X051180Y024880D01*
X051430Y024630D01*
X051930Y024630D01*
X052180Y024880D01*
X052180Y026380D01*
X051930Y026630D01*
X051430Y026630D01*
X051180Y026380D01*
X050930Y026630D01*
X050430Y026630D01*
X050180Y026380D01*
X049930Y026630D01*
X049430Y026630D01*
X049180Y026380D01*
X048930Y026630D01*
X048430Y026630D01*
X048180Y026380D01*
X048180Y024880D01*
X050230Y022960D02*
X051130Y022960D01*
X051130Y022300D02*
X050230Y022300D01*
X050230Y021960D02*
X051130Y021960D01*
X051130Y021300D02*
X050230Y021300D01*
X052610Y022005D02*
X052610Y022760D01*
X053250Y022760D02*
X053250Y022005D01*
D18*
X052930Y022080D02*
X052930Y022680D01*
X052630Y022380D02*
X053230Y022380D01*
X054430Y022730D02*
X054430Y023530D01*
X054030Y023130D02*
X054830Y023130D01*
X054680Y024730D02*
X054680Y025530D01*
X054680Y025730D02*
X054680Y026530D01*
X054280Y026130D02*
X055080Y026130D01*
X055080Y025130D02*
X054280Y025130D01*
X050580Y025630D02*
X049780Y025630D01*
X050180Y025230D02*
X050180Y026030D01*
X046580Y026130D02*
X045780Y026130D01*
X046180Y025730D02*
X046180Y026530D01*
X046180Y025530D02*
X046180Y024730D01*
X045780Y025130D02*
X046580Y025130D01*
X045930Y023280D02*
X045930Y022480D01*
X045530Y022880D02*
X046330Y022880D01*
X043330Y022630D02*
X042530Y022630D01*
X042930Y022230D02*
X042930Y023030D01*
X042930Y022030D02*
X042930Y021230D01*
X042530Y021630D02*
X043330Y021630D01*
X038580Y022880D02*
X037780Y022880D01*
X038180Y022480D02*
X038180Y023280D01*
X038430Y024730D02*
X038430Y025530D01*
X038430Y025730D02*
X038430Y026530D01*
X038030Y026130D02*
X038830Y026130D01*
X038830Y025130D02*
X038030Y025130D01*
X034830Y025630D02*
X034030Y025630D01*
X034430Y025230D02*
X034430Y026030D01*
X030930Y024030D02*
X030930Y023230D01*
X030530Y023630D02*
X031330Y023630D01*
X029580Y022880D02*
X028780Y022880D01*
X029180Y022480D02*
X029180Y023280D01*
X026180Y024480D02*
X026180Y025280D01*
X025780Y024880D02*
X026580Y024880D01*
X022580Y024880D02*
X021780Y024880D01*
X022180Y024480D02*
X022180Y025280D01*
X024180Y022780D02*
X024180Y021980D01*
X023780Y022380D02*
X024580Y022380D01*
X018580Y019380D02*
X017780Y019380D01*
X018180Y018980D02*
X018180Y019780D01*
X017080Y019380D02*
X016280Y019380D01*
X016680Y018980D02*
X016680Y019780D01*
X015080Y019380D02*
X014280Y019380D01*
X014680Y018980D02*
X014680Y019780D01*
X016180Y021030D02*
X016180Y021730D01*
X016180Y022030D02*
X016180Y022730D01*
X016180Y023030D02*
X016180Y023730D01*
X015830Y023380D02*
X016530Y023380D01*
X016530Y022380D02*
X015830Y022380D01*
X015830Y021380D02*
X016530Y021380D01*
X012330Y019380D02*
X011530Y019380D01*
X011930Y018980D02*
X011930Y019780D01*
X011430Y017530D02*
X011430Y016730D01*
X011030Y017130D02*
X011830Y017130D01*
X012030Y017130D02*
X012830Y017130D01*
X012430Y016730D02*
X012430Y017530D01*
X014280Y016880D02*
X015080Y016880D01*
X014680Y016480D02*
X014680Y017280D01*
X016280Y016880D02*
X017080Y016880D01*
X016680Y016480D02*
X016680Y017280D01*
X017780Y016880D02*
X018580Y016880D01*
X018180Y016480D02*
X018180Y017280D01*
X022330Y016880D02*
X023030Y016880D01*
X023330Y016880D02*
X024030Y016880D01*
X023680Y016530D02*
X023680Y017230D01*
X022680Y017230D02*
X022680Y016530D01*
X025330Y016880D02*
X026030Y016880D01*
X025680Y016530D02*
X025680Y017230D01*
X027280Y016880D02*
X028080Y016880D01*
X027680Y016480D02*
X027680Y017280D01*
X033530Y018380D02*
X034330Y018380D01*
X033930Y017980D02*
X033930Y018780D01*
X034930Y021230D02*
X034930Y022030D01*
X034930Y022230D02*
X034930Y023030D01*
X034530Y022630D02*
X035330Y022630D01*
X035330Y021630D02*
X034530Y021630D01*
X041530Y018380D02*
X042330Y018380D01*
X041930Y017980D02*
X041930Y018780D01*
X049280Y018380D02*
X050080Y018380D01*
X049680Y017980D02*
X049680Y018780D01*
X050680Y021230D02*
X050680Y022030D01*
X050680Y022230D02*
X050680Y023030D01*
X050280Y022630D02*
X051080Y022630D01*
X051080Y021630D02*
X050280Y021630D01*
X042830Y025630D02*
X042030Y025630D01*
X042430Y025230D02*
X042430Y026030D01*
X020180Y013780D02*
X020180Y012980D01*
X019780Y013380D02*
X020580Y013380D01*
X018580Y013380D02*
X017780Y013380D01*
X018180Y012980D02*
X018180Y013780D01*
X009830Y013130D02*
X009030Y013130D01*
X008580Y013130D02*
X007780Y013130D01*
X008180Y012730D02*
X008180Y013530D01*
X007580Y013630D02*
X006780Y013630D01*
X007180Y013230D02*
X007180Y014030D01*
X009430Y013530D02*
X009430Y012730D01*
X002830Y013630D02*
X002030Y013630D01*
X002430Y013230D02*
X002430Y014030D01*
X002680Y017980D02*
X002680Y018780D01*
X002280Y018380D02*
X003080Y018380D01*
X007180Y021030D02*
X007180Y021730D01*
X007580Y022030D02*
X007580Y022730D01*
X007230Y022380D02*
X007930Y022380D01*
X007530Y021380D02*
X006830Y021380D01*
X007180Y023980D02*
X007180Y024780D01*
X006780Y024380D02*
X007580Y024380D01*
X022680Y009230D02*
X022680Y008530D01*
X022330Y008880D02*
X023030Y008880D01*
X023330Y008880D02*
X024030Y008880D01*
X023680Y008530D02*
X023680Y009230D01*
X025330Y008880D02*
X026030Y008880D01*
X026330Y008880D02*
X027030Y008880D01*
X026680Y008530D02*
X026680Y009230D01*
X025680Y009230D02*
X025680Y008530D01*
X028780Y008880D02*
X029580Y008880D01*
X029180Y008480D02*
X029180Y009280D01*
X030330Y008880D02*
X031030Y008880D01*
X030680Y008530D02*
X030680Y009230D01*
X035780Y006880D02*
X036580Y006880D01*
X036180Y006480D02*
X036180Y007280D01*
X039330Y007380D02*
X040030Y007380D01*
X039680Y007030D02*
X039680Y007730D01*
X041430Y005780D02*
X041430Y004980D01*
X041030Y005380D02*
X041830Y005380D01*
X044180Y006480D02*
X044180Y007280D01*
X043780Y006880D02*
X044580Y006880D01*
X047330Y007380D02*
X048030Y007380D01*
X047680Y007030D02*
X047680Y007730D01*
X051780Y006880D02*
X052580Y006880D01*
X052180Y006480D02*
X052180Y007280D01*
X054830Y007380D02*
X055530Y007380D01*
X055180Y007030D02*
X055180Y007730D01*
X025580Y003380D02*
X024780Y003380D01*
X025180Y002980D02*
X025180Y003780D01*
X018530Y003380D02*
X017830Y003380D01*
X018180Y003030D02*
X018180Y003730D01*
X018180Y002730D02*
X018180Y002030D01*
X017830Y002380D02*
X018530Y002380D01*
X010530Y003380D02*
X009830Y003380D01*
X010180Y003030D02*
X010180Y003730D01*
X003830Y003630D02*
X003030Y003630D01*
X003430Y003230D02*
X003430Y004030D01*
X002680Y007980D02*
X002680Y008780D01*
X002280Y008380D02*
X003080Y008380D01*
X017780Y008130D02*
X018580Y008130D01*
X018180Y007730D02*
X018180Y008530D01*
D19*
X032473Y016337D02*
X032473Y020423D01*
X035387Y020423D01*
X035387Y016337D01*
X032473Y016337D01*
X032687Y016340D02*
X035173Y016340D01*
X035190Y016337D02*
X035190Y020423D01*
X035173Y020440D02*
X032687Y020440D01*
X032690Y020423D02*
X032690Y016337D01*
X040473Y016337D02*
X040473Y020423D01*
X043387Y020423D01*
X043387Y016337D01*
X040473Y016337D01*
X040687Y016340D02*
X043173Y016340D01*
X043190Y016337D02*
X043190Y020423D01*
X043173Y020440D02*
X040687Y020440D01*
X040690Y020423D02*
X040690Y016337D01*
X048223Y016337D02*
X048223Y020423D01*
X051137Y020423D01*
X051137Y016337D01*
X048223Y016337D01*
X048437Y016340D02*
X050923Y016340D01*
X050940Y016337D02*
X050940Y020423D01*
X050923Y020440D02*
X048437Y020440D01*
X048440Y020423D02*
X048440Y016337D01*
X029680Y022630D02*
X029430Y022380D01*
X028930Y022380D01*
X028680Y022630D01*
X028680Y023130D01*
X028930Y023380D01*
X028680Y023630D01*
X028680Y024130D01*
X028930Y024380D01*
X028680Y024630D01*
X028680Y025130D01*
X028930Y025380D01*
X028680Y025630D01*
X028680Y026130D01*
X028930Y026380D01*
X029430Y026380D01*
X029680Y026130D01*
X029680Y025630D01*
X029430Y025380D01*
X029680Y025130D01*
X029680Y024630D01*
X029430Y024380D01*
X029680Y024130D01*
X029680Y023630D01*
X029430Y023380D01*
X029680Y023130D01*
X029680Y022630D01*
D20*
X032135Y020130D03*
X032135Y019630D03*
X032135Y019130D03*
X032135Y018630D03*
X032135Y018130D03*
X032135Y017630D03*
X032135Y017130D03*
X032135Y016630D03*
X035725Y016630D03*
X035725Y017130D03*
X035725Y017630D03*
X035725Y018130D03*
X035725Y018630D03*
X035725Y019130D03*
X035725Y019630D03*
X035725Y020130D03*
X040135Y020130D03*
X040135Y019630D03*
X040135Y019130D03*
X040135Y018630D03*
X040135Y018130D03*
X040135Y017630D03*
X040135Y017130D03*
X040135Y016630D03*
X043725Y016630D03*
X043725Y017130D03*
X043725Y017630D03*
X043725Y018130D03*
X043725Y018630D03*
X043725Y019130D03*
X043725Y019630D03*
X043725Y020130D03*
X047885Y020130D03*
X047885Y019630D03*
X047885Y019130D03*
X047885Y018630D03*
X047885Y018130D03*
X047885Y017630D03*
X047885Y017130D03*
X047885Y016630D03*
X051475Y016630D03*
X051475Y017130D03*
X051475Y017630D03*
X051475Y018130D03*
X051475Y018630D03*
X051475Y019130D03*
X051475Y019630D03*
X051475Y020130D03*
D21*
X051680Y025130D03*
X050680Y025130D03*
X049680Y025130D03*
X048680Y025130D03*
X048680Y026130D03*
X049680Y026130D03*
X050680Y026130D03*
X051680Y026130D03*
X043930Y026130D03*
X042930Y026130D03*
X041930Y026130D03*
X040930Y026130D03*
X040930Y025130D03*
X041930Y025130D03*
X042930Y025130D03*
X043930Y025130D03*
X035930Y025130D03*
X034930Y025130D03*
X033930Y025130D03*
X032930Y025130D03*
X032930Y026130D03*
X033930Y026130D03*
X034930Y026130D03*
X035930Y026130D03*
X029180Y025880D03*
X029180Y024880D03*
X029180Y023880D03*
X029180Y022880D03*
X026680Y023880D03*
X025680Y023880D03*
X025680Y024880D03*
X026680Y024880D03*
X026680Y025880D03*
X025680Y025880D03*
X022680Y025880D03*
X021680Y025880D03*
X021680Y024880D03*
X022680Y024880D03*
X022680Y023880D03*
X021680Y023880D03*
X008680Y023880D03*
X007680Y023880D03*
X006680Y023880D03*
X005680Y023880D03*
X005680Y024880D03*
X006680Y024880D03*
X007680Y024880D03*
X008680Y024880D03*
X003680Y018880D03*
X002680Y018880D03*
X001680Y018880D03*
X001680Y017880D03*
X002680Y017880D03*
X003680Y017880D03*
X003680Y008880D03*
X002680Y008880D03*
X001680Y008880D03*
X001680Y007880D03*
X002680Y007880D03*
X003680Y007880D03*
X028680Y007380D03*
X029680Y007380D03*
X029680Y008380D03*
X028680Y008380D03*
X028680Y009380D03*
X029680Y009380D03*
X029680Y010380D03*
X028680Y010380D03*
X028680Y011380D03*
X029680Y011380D03*
X029680Y012380D03*
X028680Y012380D03*
X035680Y008880D03*
X036680Y008880D03*
X036680Y007880D03*
X035680Y007880D03*
X035680Y006880D03*
X036680Y006880D03*
X036680Y005880D03*
X035680Y005880D03*
X035680Y004880D03*
X036680Y004880D03*
X043680Y004880D03*
X044680Y004880D03*
X044680Y005880D03*
X043680Y005880D03*
X043680Y006880D03*
X044680Y006880D03*
X044680Y007880D03*
X043680Y007880D03*
X043680Y008880D03*
X044680Y008880D03*
X051680Y008880D03*
X052680Y008880D03*
X052680Y007880D03*
X051680Y007880D03*
X051680Y006880D03*
X052680Y006880D03*
X052680Y005880D03*
X051680Y005880D03*
X051680Y004880D03*
X052680Y004880D03*
X029680Y005380D03*
X028680Y005380D03*
X028680Y006380D03*
X029680Y006380D03*
D22*
X034375Y021630D03*
X035485Y021630D03*
X035485Y022630D03*
X034375Y022630D03*
X042375Y022630D03*
X043485Y022630D03*
X043485Y021630D03*
X042375Y021630D03*
X050125Y021630D03*
X051235Y021630D03*
X051235Y022630D03*
X050125Y022630D03*
D23*
X046702Y025130D03*
X045658Y025130D03*
X045658Y026130D03*
X046702Y026130D03*
X038952Y026130D03*
X037908Y026130D03*
X037908Y025130D03*
X038952Y025130D03*
X054158Y025130D03*
X055202Y025130D03*
X055202Y026130D03*
X054158Y026130D03*
D24*
X045930Y023402D03*
X045930Y022358D03*
X030930Y023108D03*
X030930Y024152D03*
X008180Y013652D03*
X008180Y012608D03*
D25*
X009430Y012599D03*
X009430Y013661D03*
X038180Y022349D03*
X038180Y023411D03*
X054430Y023661D03*
X054430Y022599D03*
X041430Y005911D03*
X041430Y004849D03*
D26*
X012450Y019380D03*
X011410Y019380D03*
D27*
X014680Y018860D03*
X016680Y018860D03*
X018180Y018860D03*
X018180Y019900D03*
X016680Y019900D03*
X014680Y019900D03*
X052930Y021860D03*
X052930Y022900D03*
D28*
X018416Y016255D03*
X016916Y016255D03*
X014916Y016255D03*
X012194Y017755D03*
X011666Y016505D03*
D29*
X011720Y016584D03*
X012140Y017676D03*
X014970Y016334D03*
X016970Y016334D03*
X018470Y016334D03*
D30*
X018333Y016353D03*
X016833Y016353D03*
X014833Y016353D03*
X012277Y017657D03*
X011583Y016603D03*
D31*
X011602Y016623D03*
X012258Y017637D03*
X014852Y016373D03*
X016852Y016373D03*
X018352Y016373D03*
D32*
X017944Y016299D03*
X016444Y016299D03*
X014444Y016299D03*
X012666Y017711D03*
X011194Y016549D03*
D33*
X011213Y016623D03*
X012647Y017637D03*
X014463Y016373D03*
X016463Y016373D03*
X017963Y016373D03*
D34*
X018180Y016447D03*
X016680Y016447D03*
X014680Y016447D03*
X012430Y017563D03*
X011430Y016697D03*
D35*
X012430Y016618D03*
X011430Y017642D03*
X014680Y017392D03*
X016680Y017392D03*
X018180Y017392D03*
D36*
X017909Y016659D03*
X018451Y016659D03*
X016951Y016659D03*
X016409Y016659D03*
X014951Y016659D03*
X014409Y016659D03*
X012701Y017351D03*
X012159Y017351D03*
X011701Y016909D03*
X011159Y016909D03*
D37*
X011430Y017061D03*
X012430Y017199D03*
X014680Y016811D03*
X016680Y016811D03*
X018180Y016811D03*
D38*
X002320Y014214D02*
X001530Y015004D01*
X001540Y013044D02*
X002330Y012264D01*
D39*
X007030Y013630D03*
D40*
X006780Y011905D03*
X006780Y015355D03*
D41*
X006780Y014130D03*
X006780Y013130D03*
D42*
X006780Y012630D03*
X006780Y013630D03*
X006780Y014630D03*
M02*
