%
M48
M72
T01C0.0236
T02C0.0320
T03C0.0350
T04C0.0400
T05C0.0470
T06C0.1260
%
T01
X30180Y17880
X30930Y19380
X29930Y20630
X31930Y21380
X34680Y18630
X36680Y20380
X38180Y21380
X38930Y19380
X37930Y17880
X42680Y18630
X44680Y20380
X45930Y21380
X46680Y19380
X45930Y17880
X50430Y18630
X52430Y20380
X54430Y21380
X55430Y24130
X46680Y24130
X38930Y24130
X53680Y17880
T02
X26680Y22380
X25680Y22380
X24680Y22380
X23680Y22380
X22680Y22380
X21680Y22380
X12680Y3380
X11680Y3380
X10680Y3380
X9680Y3380
X8680Y3380
X7680Y3380
T03
X14680Y3380
X15680Y3380
X16680Y3380
X17680Y3380
X18680Y3380
X19680Y3380
X20680Y3380
X21680Y3380
X21680Y2380
X20680Y2380
X19680Y2380
X18680Y2380
X17680Y2380
X16680Y2380
X15680Y2380
X14680Y2380
X22680Y5380
X23680Y5380
X23680Y6380
X22680Y6380
X22680Y7380
X23680Y7380
X23680Y8380
X22680Y8380
X22680Y9380
X23680Y9380
X23680Y10380
X22680Y10380
X22680Y11380
X23680Y11380
X23680Y12380
X22680Y12380
X22680Y13380
X23680Y13380
X25680Y13380
X25680Y12380
X26680Y12380
X26680Y11380
X25680Y11380
X25680Y10380
X26680Y10380
X26680Y9380
X25680Y9380
X25680Y8380
X26680Y8380
X26680Y7380
X25680Y7380
X25680Y6380
X26680Y6380
X26680Y5380
X25680Y5380
X25680Y3380
X24680Y3380
X23680Y3380
X26680Y3380
X30680Y5380
X30680Y6380
X30680Y7380
X30680Y8380
X30680Y9380
X30680Y10380
X30680Y11380
X30680Y12380
X27680Y13380
X27680Y14380
X27680Y15380
X27680Y16380
X27680Y17380
X27680Y18380
X27680Y19380
X27680Y20380
X25680Y20380
X23680Y20380
X22680Y20380
X22680Y19380
X23680Y19380
X23680Y18380
X22680Y18380
X22680Y17380
X23680Y17380
X23680Y16380
X22680Y16380
X22680Y15380
X23680Y15380
X23680Y14380
X22680Y14380
X20680Y14380
X19680Y14380
X18680Y14380
X17680Y14380
X17680Y13380
X18680Y13380
X19680Y13380
X20680Y13380
X20680Y12380
X19680Y12380
X18680Y12380
X17680Y12380
X25680Y14380
X25680Y15380
X25680Y16380
X25680Y17380
X25680Y18380
X25680Y19380
X19680Y21380
X18680Y21380
X17680Y21380
X16680Y21380
X15680Y21380
X14680Y21380
X13680Y21380
X12680Y21380
X12680Y22380
X13680Y22380
X14680Y22380
X15680Y22380
X16680Y22380
X17680Y22380
X18680Y22380
X19680Y22380
X19680Y23380
X18680Y23380
X17680Y23380
X16680Y23380
X15680Y23380
X14680Y23380
X13680Y23380
X12680Y23380
X11080Y22380
X10080Y22380
X9080Y22380
X8080Y22380
X7080Y22380
X6080Y22380
X5080Y22380
X4080Y22380
X3680Y21380
X4680Y21380
X5680Y21380
X6680Y21380
X7680Y21380
X8680Y21380
X9680Y21380
X10680Y21380
X39680Y8880
X39680Y7880
X39680Y6880
X39680Y5880
X47680Y5880
X47680Y6880
X47680Y7880
X47680Y8880
X55180Y8880
X55180Y7880
X55180Y6880
X55180Y5880
T04
X2540Y2350
X4320Y2350
X4320Y4910
X2540Y4910
X2680Y7880
X1680Y7880
X1680Y8880
X2680Y8880
X3680Y8880
X3680Y7880
X6180Y12630
X6180Y13630
X6180Y14630
X3680Y17880
X2680Y17880
X1680Y17880
X1680Y18880
X2680Y18880
X3680Y18880
X5680Y23880
X6680Y23880
X7680Y23880
X8680Y23880
X8680Y24880
X7680Y24880
X6680Y24880
X5680Y24880
X21680Y24880
X22680Y24880
X22680Y25880
X21680Y25880
X21680Y23880
X22680Y23880
X25680Y23880
X26680Y23880
X26680Y24880
X25680Y24880
X25680Y25880
X26680Y25880
X29180Y25880
X29180Y24880
X29180Y23880
X29180Y22880
X32930Y25130
X33930Y25130
X34930Y25130
X35930Y25130
X35930Y26130
X34930Y26130
X33930Y26130
X32930Y26130
X40930Y26130
X41930Y26130
X42930Y26130
X43930Y26130
X43930Y25130
X42930Y25130
X41930Y25130
X40930Y25130
X48680Y25130
X49680Y25130
X50680Y25130
X51680Y25130
X51680Y26130
X50680Y26130
X49680Y26130
X48680Y26130
X29680Y12380
X28680Y12380
X28680Y11380
X29680Y11380
X29680Y10380
X28680Y10380
X28680Y9380
X29680Y9380
X29680Y8380
X28680Y8380
X28680Y7380
X29680Y7380
X29680Y6380
X28680Y6380
X28680Y5380
X29680Y5380
X35680Y4880
X36680Y4880
X36680Y5880
X35680Y5880
X35680Y6880
X36680Y6880
X36680Y7880
X35680Y7880
X35680Y8880
X36680Y8880
X43680Y8880
X44680Y8880
X44680Y7880
X43680Y7880
X43680Y6880
X44680Y6880
X44680Y5880
X43680Y5880
X43680Y4880
X44680Y4880
X51680Y4880
X52680Y4880
X52680Y5880
X51680Y5880
X51680Y6880
X52680Y6880
X52680Y7880
X51680Y7880
X51680Y8880
X52680Y8880
X19070Y9410
X17290Y9410
X17290Y6850
X19070Y6850
T05
X1930Y12646
X1930Y14614
T06
X1180Y22380
X21180Y16380
M30
